<?xml version="1.0" encoding="utf-8"?>
<!-- Generator: Adobe Illustrator 24.1.0, SVG Export Plug-In . SVG Version: 6.00 Build 0)  -->
<svg version="1.1" id="Standard_product_icon" xmlns="http://www.w3.org/2000/svg" xmlns:xlink="http://www.w3.org/1999/xlink"
	 x="0px" y="0px" viewBox="0 0 192 192" enable-background="new 0 0 192 192" xml:space="preserve">
<rect id="bounding_box_1_" fill="none" width="192" height="192"/>
<g id="art_layer">
	<circle fill="#FFFFFF" cx="33" cy="96" r="10"/>
	<path fill="#165BBC" d="M32,67L10,79c0,0-2,10.43-2,17c0,7.24,2,18,2,18l22,11l26-8c0,0,0-13.28,0-21c0-7.07,0-20,0-20L32,67z
		 M33,105c-4.97,0-9-4.03-9-9c0-4.97,4.03-9,9-9c4.97,0,9,4.03,9,9C42,100.97,37.97,105,33,105z"/>
	<circle fill="#FFFFFF" cx="96" cy="33" r="10"/>
	<path fill="#165BBC" d="M125,32l-12-22c0,0-10.43-2-17-2c-7.24,0-18,2-18,2L67,32l8,26c0,0,13.28,0,21,0c7.07,0,20,0,20,0L125,32z
		 M87,33c0-4.97,4.03-9,9-9c4.97,0,9,4.03,9,9c0,4.97-4.03,9-9,9C91.03,42,87,37.97,87,33z"/>
	<circle fill="#FFFFFF" cx="159" cy="96" r="10"/>
	<path fill="#165BBC" d="M160,125l22-12c0,0,2-10.43,2-17c0-7.24-2-18-2-18l-22-11l-26,8c0,0,0,13.28,0,21c0,7.07,0,20,0,20L160,125
		z M159,87c4.97,0,9,4.03,9,9c0,4.97-4.03,9-9,9c-4.97,0-9-4.03-9-9C150,91.03,154.03,87,159,87z"/>
	<circle fill="#FFFFFF" cx="96" cy="159" r="10"/>
	<path fill="#165BBC" d="M67,160l12,22c0,0,10.43,2,17,2c7.24,0,18-2,18-2l11-22l-8-26c0,0-13.28,0-21,0c-7.07,0-20,0-20,0L67,160z
		 M105,159c0,4.97-4.03,9-9,9c-4.97,0-9-4.03-9-9c0-4.97,4.03-9,9-9C100.97,150,105,154.03,105,159z"/>
	<path fill="#1A67D2" d="M33,71c13.81,0,25,11.19,25,25c0-20.99,17.01-38,38-38c-13.81,0-25-11.19-25-25C71,19.19,82.19,8,96,8
		C47.4,8,8,47.4,8,96C8,82.19,19.19,71,33,71z"/>
	<path fill="#1A67D2" d="M159,121c-13.81,0-25-11.19-25-25c0,20.99-17.01,38-38,38c13.81,0,25,11.19,25,25s-11.19,25-25,25
		c48.6,0,88-39.4,88-88h0C184,109.81,172.81,121,159,121z"/>
	<path fill="#397EFB" d="M71,159c0-13.81,11.19-25,25-25c-20.99,0-38-17.01-38-38c0,13.81-11.19,25-25,25c-13.81,0-25-11.19-25-25
		c0,48.6,39.4,88,88,88C82.19,184,71,172.81,71,159z"/>
	<path fill="#397EFB" d="M96,8c13.81,0,25,11.19,25,25c0,13.81-11.19,25-25,25c20.99,0,38,17.01,38,38c0-13.81,11.19-25,25-25
		c13.81,0,25,11.19,25,25h0C184,47.4,144.6,8,96,8z"/>
</g>
</svg>
