<svg xmlns="http://www.w3.org/2000/svg" width="118" height="32" viewBox="0 0 118 32" fill="none">
  <path d="M22.8413 22.9549L15.2459 30.5881C14.217 31.6222 12.5433 31.6222 11.5143 30.5881L3.91889 22.9549C2.04767 21.0744 0.77335 18.6784 0.257089 16.07C-0.259172 13.4616 0.00580823 10.7579 1.01852 8.30084C2.03124 5.84378 3.7462 3.7437 5.94654 2.26617C8.14689 0.788632 10.7338 0 13.3801 0C16.0264 0 18.6133 0.788632 20.8137 2.26617C23.014 3.7437 24.729 5.84378 25.7417 8.30084C26.7544 10.7579 27.0194 13.4616 26.5031 16.07C25.9869 18.6784 24.7126 21.0744 22.8413 22.9549Z" fill="#30CFE4"></path>
  <path d="M18.2789 9.97905C18.2789 12.6845 16.0857 14.8778 13.3802 14.8778C10.6747 14.8778 8.48145 12.6845 8.48145 9.97905C8.48145 7.27356 10.6747 5.08032 13.3802 5.08032C16.0857 5.08032 18.2789 7.27356 18.2789 9.97905Z" fill="#080D23"></path>
  <path fill-rule="evenodd" clip-rule="evenodd" d="M13.3802 12.5146C14.7805 12.5146 15.9157 11.3794 15.9157 9.97905C15.9157 8.57872 14.7805 7.44353 13.3802 7.44353C11.9798 7.44353 10.8447 8.57872 10.8447 9.97905C10.8447 11.3794 11.9798 12.5146 13.3802 12.5146ZM13.3802 14.8778C16.0857 14.8778 18.2789 12.6845 18.2789 9.97905C18.2789 7.27356 16.0857 5.08032 13.3802 5.08032C10.6747 5.08032 8.48145 7.27356 8.48145 9.97905C8.48145 12.6845 10.6747 14.8778 13.3802 14.8778Z" fill="white"></path>
  <path fill-rule="evenodd" clip-rule="evenodd" d="M6.78274 15.739L7.33468 16.2901C8.28183 17.2358 10.0489 18.3932 12.204 18.7286C14.3211 19.0581 16.8625 18.6046 19.4562 16.2631L20.0346 15.741L21.0574 16.922L20.479 17.4441C17.5383 20.0987 14.5357 20.6861 11.9713 20.287C9.44484 19.8938 7.3928 18.5531 6.25506 17.4171L5.70312 16.866L6.78274 15.739Z" fill="#080D23"></path>
  <path d="M41.3156 13.4583C41.6324 13.5609 41.9571 13.6665 42.2848 13.7761C45.2455 14.7363 48.4047 16.0746 48.4047 19.8091C48.4047 23.3996 45.4488 25.7188 40.8744 25.7188C38.6914 25.7188 36.7244 25.1662 35.2184 24.1467C33.7123 23.1272 32.7728 21.7149 32.5004 20.0677L32.4629 19.8427L36.3346 18.1077L36.379 18.5123C36.6129 20.6934 38.3992 22.1018 40.9297 22.1018C42.8463 22.1018 44.1866 21.2451 44.1866 20.0174C44.1866 18.572 42.2671 17.9452 40.0434 17.2191L40.0415 17.2185L39.5697 17.0635C36.2616 15.971 33.2919 14.6969 33.2919 11.1617C33.2919 9.46913 33.9837 8.05684 35.2934 7.07978C36.5547 6.13628 38.3193 5.64282 40.4037 5.64282C42.1752 5.64282 43.8066 6.01983 45.1222 6.73634C46.5611 7.51699 47.5855 8.65788 48.1668 10.1284L48.2655 10.3801L44.5843 12.2325L44.4935 11.8743C44.0622 10.1718 42.5236 9.15529 40.378 9.15529C38.643 9.15529 37.4321 9.89449 37.4321 10.9525C37.4321 12.2019 39.2312 12.7842 41.3156 13.4583Z" fill="#46587d"></path>
  <path d="M54.3125 22.2028C53.7211 22.2028 53.3853 21.7729 53.3853 20.7551V13.386H56.4753V9.94045H53.3853V8.16235H49.4153V20.9004C49.4153 22.3501 49.8406 23.5671 50.645 24.4186C51.4494 25.2702 52.5956 25.7191 53.9589 25.7191C54.2825 25.7191 54.6137 25.7119 54.9254 25.7051C55.0356 25.7027 55.1434 25.7004 55.2475 25.6984C55.5545 25.6927 56.4753 25.6827 56.4753 25.6827V22.2028H54.3125Z" fill="#46587d"></path>
  <path fill-rule="evenodd" clip-rule="evenodd" d="M64.3201 9.6814C59.9985 9.6814 56.4753 13.2782 56.4753 17.7C56.4753 22.1218 59.9945 25.7186 64.3201 25.7186C68.6457 25.7186 72.1649 22.1209 72.1649 17.7C72.1649 13.2792 68.6457 9.6814 64.3201 9.6814ZM64.3201 22.0776C62.0012 22.0776 60.1153 20.1133 60.1153 17.7C60.1153 15.2868 62.0012 13.3214 64.3201 13.3214C66.6391 13.3214 68.5239 15.2858 68.5239 17.7C68.5239 20.1142 66.6381 22.0776 64.3201 22.0776Z" fill="#46587d"></path>
  <path fill-rule="evenodd" clip-rule="evenodd" d="M73.1755 17.7C73.1755 13.2782 76.6987 9.6814 81.0203 9.6814C85.3459 9.6814 88.8651 13.2792 88.8651 17.7C88.8651 22.1209 85.3459 25.7186 81.0203 25.7186C76.6947 25.7186 73.1755 22.1218 73.1755 17.7ZM81.0203 22.0776C83.3383 22.0776 85.2251 20.1142 85.2251 17.7C85.2251 15.2858 83.3383 13.3214 81.0203 13.3214C78.7023 13.3214 76.8165 15.2868 76.8165 17.7C76.8165 20.1133 78.7023 22.0776 81.0203 22.0776Z" fill="#46587d"></path>
  <path fill-rule="evenodd" clip-rule="evenodd" d="M110.156 9.68335C105.835 9.68335 102.312 13.2801 102.312 17.702C102.312 22.1238 105.831 25.7206 110.156 25.7206C114.482 25.7206 118 22.1228 118 17.702C118 13.2811 114.482 9.68335 110.156 9.68335ZM114.36 17.702C114.36 20.1162 112.474 22.0796 110.156 22.0796C107.838 22.0796 105.953 20.1162 105.953 17.702C105.953 15.2877 107.838 13.3234 110.157 13.3234C112.476 13.3234 114.36 15.2877 114.36 17.702Z" fill="#46587d"></path>
  <path d="M97.6118 14.642L99.3244 9.94019H103.684L97.6443 25.4602H93.5182L87.4788 9.94019H91.8381L93.5507 14.642C93.8584 15.4713 94.8093 18.5053 95.2539 19.9237C95.3781 20.3201 95.4628 20.5904 95.4828 20.651H95.6797C95.6998 20.5903 95.7845 20.32 95.9088 19.9234C96.3534 18.5049 97.3041 15.4713 97.6118 14.642Z" fill="#46587d"></path>
</svg>