<svg width="135" height="22" viewBox="0 0 135 22" fill="none" xmlns="http://www.w3.org/2000/svg">
<path d="M1.81282 12.4381V3H0V12.4381C0 15.9489 1.81282 18.1174 5.76807 18.1174C9.62032 18.1174 11.5361 15.9489 11.5361 12.4381V3H9.72332V12.4381C9.72332 15.3294 8.3843 16.5065 5.76807 16.5065C3.15184 16.5065 1.81282 15.3294 1.81282 12.4381Z" fill="white"/>
<path fill-rule="evenodd" clip-rule="evenodd" d="M16.336 8.98912V7.54347H14.7292V22H16.3772V16.5272H16.5832C17.2012 17.4152 18.293 18.1174 19.9822 18.1174C22.4543 18.1174 24.7821 16.1761 24.7821 12.7065C24.7821 9.23695 22.4543 7.29565 19.9822 7.29565C18.2312 7.29565 17.1394 8.05978 16.542 8.98912H16.336ZM23.0929 12.7065C23.0929 15.1848 21.7127 16.6304 19.6938 16.6304C17.675 16.6304 16.2948 15.1848 16.2948 12.7065C16.2948 10.2283 17.675 8.7826 19.6938 8.7826C21.7127 8.7826 23.0929 10.2283 23.0929 12.7065Z" fill="white"/>
<path d="M28.7992 3V17.8696H27.1511V3H28.7992Z" fill="white"/>
<path fill-rule="evenodd" clip-rule="evenodd" d="M41.3447 12.7065C41.3447 9.50543 39.3465 7.29565 36.2565 7.29565C33.1664 7.29565 31.1682 9.50543 31.1682 12.7065C31.1682 15.9076 33.1664 18.1174 36.2565 18.1174C39.3465 18.1174 41.3447 15.9076 41.3447 12.7065ZM39.6555 12.7065C39.6555 15.1848 38.3165 16.6304 36.2565 16.6304C34.1964 16.6304 32.8574 15.1848 32.8574 12.7065C32.8574 10.2283 34.1964 8.7826 36.2565 8.7826C38.3165 8.7826 39.6555 10.2283 39.6555 12.7065Z" fill="white"/>
<path fill-rule="evenodd" clip-rule="evenodd" d="M47.7926 7.29565C49.4818 7.29565 50.5736 7.99782 51.1916 8.88586H51.3976L51.8096 7.54347H53.0457V17.8695H51.4388V16.4239H51.2328C50.6354 17.3533 49.5436 18.1174 47.7926 18.1174C45.3206 18.1174 42.9927 16.1761 42.9927 12.7065C42.9927 9.23695 45.3206 7.29565 47.7926 7.29565ZM48.081 16.6304C50.0998 16.6304 51.48 15.1848 51.48 12.7065C51.48 10.2283 50.0998 8.7826 48.081 8.7826C46.0622 8.7826 44.6819 10.2283 44.6819 12.7065C44.6819 15.1848 46.0622 16.6304 48.081 16.6304Z" fill="white"/>
<path fill-rule="evenodd" clip-rule="evenodd" d="M63.6136 8.88587C62.9956 7.99783 61.9038 7.29565 60.2146 7.29565C57.7425 7.29565 55.4147 9.23696 55.4147 12.7065C55.4147 16.1761 57.7425 18.1174 60.2146 18.1174C61.9656 18.1174 63.0574 17.3533 63.6548 16.4239H63.8608V17.8696H65.4676V3H63.8196V8.88587H63.6136ZM63.902 12.7065C63.902 15.1848 62.5218 16.6304 60.503 16.6304C58.4841 16.6304 57.1039 15.1848 57.1039 12.7065C57.1039 10.2283 58.4841 8.7826 60.503 8.7826C62.5218 8.7826 63.902 10.2283 63.902 12.7065Z" fill="white"/>
<path d="M73.0485 7.29565C75.9738 7.29565 77.251 8.96846 77.6012 10.6413V10.9511H75.9119C75.6853 9.87716 75.0879 8.82391 73.0279 8.82391C70.8649 8.82391 69.5259 10.2283 69.5259 12.7065C69.5259 15.1848 70.8649 16.5891 73.0279 16.5891C75.0879 16.5891 75.7884 15.5152 76.0356 14.3587H77.7248V14.6685C77.354 16.362 76.1179 18.1174 73.0279 18.1174C69.8349 18.1174 67.8367 15.9076 67.8367 12.7065C67.8367 9.50543 69.8349 7.29565 73.0485 7.29565Z" fill="white"/>
<path fill-rule="evenodd" clip-rule="evenodd" d="M87.2627 8.88586C86.6447 7.99782 85.5529 7.29565 83.8637 7.29565C81.3916 7.29565 79.0638 9.23695 79.0638 12.7065C79.0638 16.1761 81.3916 18.1174 83.8637 18.1174C85.6147 18.1174 86.7065 17.3533 87.3039 16.4239H87.5099V17.8695H89.1167V7.54347H87.8807L87.4687 8.88586H87.2627ZM87.5511 12.7065C87.5511 15.1848 86.1709 16.6304 84.1521 16.6304C82.1332 16.6304 80.753 15.1848 80.753 12.7065C80.753 10.2283 82.1332 8.7826 84.1521 8.7826C86.1709 8.7826 87.5511 10.2283 87.5511 12.7065Z" fill="white"/>
<path d="M93.8136 7.54349V9.09239H94.0196C94.3492 8.16305 95.1526 7.50218 96.7388 7.50218H97.6658V9.03044H96.7594C94.2874 9.03044 93.8548 10.4554 93.8548 12.3141V17.8696H92.2068V7.54349H93.8136Z" fill="white"/>
<path fill-rule="evenodd" clip-rule="evenodd" d="M108.481 12.2935C108.481 9.50543 106.833 7.29565 103.64 7.29565C100.509 7.29565 98.5928 9.50543 98.5928 12.7065C98.5928 15.8869 100.509 18.1174 103.722 18.1174C106.38 18.1174 107.945 16.5891 108.378 14.7717V14.4619H106.73C106.442 15.6391 105.535 16.6304 103.681 16.6304C101.621 16.6304 100.406 15.1641 100.364 13.1609H108.481V12.2935ZM103.64 8.7413C105.659 8.7413 106.709 10.0837 106.751 11.7565H100.364C100.447 10.0217 101.58 8.7413 103.64 8.7413Z" fill="white"/>
<circle cx="124" cy="11" r="11" fill="url(#paint0_radial_374_44914)"/>
<defs>
<radialGradient id="paint0_radial_374_44914" cx="0" cy="0" r="1" gradientUnits="userSpaceOnUse" gradientTransform="translate(138.929 11) rotate(149.216) scale(21.4926 24.749)">
<stop stop-color="#FFC700"/>
<stop offset="1" stop-color="#FFEDAB"/>
</radialGradient>
</defs>
</svg>
