<svg width="136" height="36" viewBox="0 0 136 36" fill="none" xmlns="http://www.w3.org/2000/svg">
<path d="M48.7487 19.1526C48.7487 16.4109 47.411 14.9689 45.1982 15.0413C42.9854 15.1138 42.1512 16.39 42.1512 16.39V10.2622H39.0029V25.0979H42.1512V20.1179C42.1512 19.3666 42.3095 18.8005 42.6313 18.4248C42.9532 18.0492 43.4022 17.8613 43.9758 17.8613C44.5493 17.8613 44.9646 18.0126 45.219 18.3153C45.4733 18.6179 45.6005 19.15 45.6005 19.917V25.0979H48.7487V19.1526Z" fill="white"/>
<path d="M56.5302 15.2424H59.7381L54.5836 29.0894L51.4743 29.1076L53.1795 24.4329L49.3486 15.2424H52.5981L54.5862 20.585H54.581L56.5302 15.2424Z" fill="white"/>
<path d="M66.878 15.0413C68.1601 15.0413 69.2268 15.5213 70.0755 16.4813C70.9242 17.4413 71.3499 18.6752 71.3499 20.1804C71.3499 21.6856 70.919 22.93 70.0574 23.8691C69.1957 24.8108 68.0874 25.2804 66.7378 25.2804C65.614 25.2804 64.7316 24.8969 64.0905 24.1326H64.0516V29.0917H60.9033V15.2421H64.0516V16.3117H64.0723C64.7809 15.4665 65.7178 15.0413 66.8806 15.0413M66.0993 22.5204C66.7145 22.5204 67.2154 22.3065 67.6047 21.876C67.9914 21.4456 68.1861 20.8821 68.1861 20.183C68.1861 19.4839 67.9862 18.936 67.5839 18.5004C67.1816 18.0647 66.6807 17.8456 66.0786 17.8456C65.4764 17.8456 64.9522 18.0673 64.5447 18.5108C64.1372 18.9543 63.9322 19.5126 63.9322 20.183C63.9322 20.8534 64.1346 21.4456 64.5447 21.876C64.9522 22.3065 65.4713 22.5204 66.0993 22.5204Z" fill="white"/>
<path d="M82.3385 20.0814C82.3385 20.431 82.3125 20.7388 82.258 21.0075H75.6008C75.7072 21.5449 75.9719 21.9649 76.3924 22.2675C76.8128 22.5701 77.3189 22.7214 77.9055 22.7214C78.8139 22.7214 79.6029 22.3249 80.2725 21.5319L81.9362 23.4049C81.495 23.9684 80.9006 24.4223 80.1505 24.7666C79.4005 25.1084 78.5388 25.2806 77.5629 25.2806C76.0913 25.2806 74.8767 24.8058 73.9138 23.8588C72.9509 22.9119 72.4707 21.6779 72.4707 20.1597C72.4707 18.6414 72.9379 17.4414 73.8748 16.4814C74.8092 15.5214 76.0005 15.0388 77.4435 15.0388C78.8866 15.0388 80.0467 15.5084 80.9629 16.4501C81.8791 17.3919 82.3359 18.5997 82.3359 20.0788M77.4825 17.5588C76.9997 17.5588 76.5896 17.6971 76.2496 17.971C75.9096 18.2475 75.6916 18.6388 75.5982 19.1501L79.2681 19.1293C79.1617 18.6466 78.9541 18.2632 78.6452 17.9814C78.3389 17.6997 77.9496 17.5588 77.4825 17.5588Z" fill="white"/>
<path d="M89.8993 15.0413C89.9538 15.0413 89.985 15.0491 90.0005 15.0621V18.4482C89.8137 18.4352 89.5723 18.4273 89.279 18.4273C88.5575 18.4273 88.0021 18.6334 87.6154 19.043C87.2286 19.4526 87.034 19.9926 87.034 20.6656V25.1004H83.8857V15.2421H87.034V16.5726H87.0547C87.8022 15.5526 88.7522 15.0413 89.9019 15.0413" fill="white"/>
<path d="M96.2039 25.2755C94.7349 25.2755 93.5202 24.7981 92.5573 23.846C91.597 22.8938 91.1143 21.6651 91.1143 20.1625C91.1143 18.6599 91.6022 17.4103 92.5755 16.4581C93.5514 15.506 94.8127 15.0286 96.3622 15.0286C97.1901 15.0286 97.9817 15.2007 98.737 15.5425C99.4923 15.8842 100.11 16.372 100.59 17.0033L98.4878 18.7955C97.9662 18.1642 97.2939 17.8486 96.4634 17.8486C95.8094 17.8486 95.2825 18.0573 94.8802 18.472C94.4805 18.8894 94.2807 19.4399 94.2807 20.1233C94.2807 20.8068 94.4831 21.386 94.8906 21.8138C95.2981 22.2442 95.8353 22.4581 96.5023 22.4581C97.2914 22.4581 97.9506 22.1633 98.4852 21.5738L100.629 23.4468C100.175 23.9842 99.5675 24.4225 98.8071 24.7642C98.0466 25.106 97.1772 25.2781 96.2039 25.2781" fill="white"/>
<path d="M106.761 25.2755C105.199 25.2755 103.927 24.7981 102.946 23.846C101.965 22.8938 101.475 21.6651 101.475 20.1625C101.475 18.6599 101.965 17.4286 102.946 16.4686C103.927 15.5086 105.199 15.0286 106.761 15.0286C108.324 15.0286 109.58 15.506 110.569 16.4581C111.558 17.4129 112.051 18.6468 112.051 20.1625C112.051 21.6781 111.558 22.8938 110.569 23.846C109.58 24.7981 108.311 25.2755 106.761 25.2755ZM106.761 22.4764C107.361 22.4764 107.867 22.2599 108.275 21.8216C108.682 21.386 108.885 20.8329 108.885 20.1599C108.885 19.4868 108.685 18.9181 108.282 18.4877C107.883 18.0573 107.374 17.8433 106.759 17.8433C106.144 17.8433 105.619 18.0625 105.228 18.4981C104.833 18.9338 104.636 19.4894 104.636 20.1599C104.636 20.8303 104.836 21.3677 105.238 21.8112C105.638 22.2547 106.146 22.4764 106.761 22.4764Z" fill="white"/>
<path d="M119.622 15.0253C119.674 15.0253 119.708 15.0331 119.724 15.0462V18.4297C119.537 18.4166 119.295 18.4088 119.002 18.4088C118.28 18.4088 117.728 18.6123 117.338 19.0218C116.952 19.4314 116.757 19.9714 116.757 20.6418V25.0714H113.611V15.2262H116.757V16.554H116.778C117.525 15.534 118.473 15.0227 119.622 15.0227" fill="white"/>
<path d="M130.16 20.061C130.16 20.4105 130.131 20.7184 130.079 20.9871H123.43C123.536 21.5245 123.801 21.9419 124.221 22.2445C124.642 22.5471 125.145 22.6984 125.734 22.6984C126.643 22.6984 127.429 22.3019 128.099 21.5114L129.762 23.3845C129.321 23.9479 128.727 24.4019 127.979 24.7436C127.232 25.0853 126.37 25.2575 125.394 25.2575C123.925 25.2575 122.711 24.7853 121.748 23.8384C120.787 22.8914 120.305 21.6601 120.305 20.1445C120.305 18.6288 120.772 17.4288 121.706 16.4688C122.641 15.5088 123.829 15.0288 125.272 15.0288C126.715 15.0288 127.873 15.4984 128.787 16.4375C129.7 17.3766 130.16 18.5845 130.16 20.061ZM125.311 17.5436C124.831 17.5436 124.421 17.6819 124.078 17.9558C123.738 18.2323 123.52 18.6236 123.427 19.1349L127.092 19.114C126.985 18.6314 126.778 18.2479 126.471 17.9662C126.163 17.6845 125.776 17.5436 125.309 17.5436" fill="white"/>
<path d="M17.4739 20.747H19.662C20.0661 20.747 20.3931 21.0743 20.3931 21.479V24.3014C20.3931 24.8246 19.8602 25.1829 19.3788 24.9793C18.64 24.6674 17.8935 24.3246 17.1444 23.9508C16.8973 23.8271 16.7402 23.5719 16.7402 23.2936V21.4764C16.7402 21.0717 17.0672 20.7444 17.4713 20.7444" fill="white"/>
<path d="M25.5051 16.0894H23.317C22.9129 16.0894 22.5859 16.4167 22.5859 16.8214V21.7161C22.5859 22.1208 22.9129 22.4481 23.317 22.4481H25.5051C25.9093 22.4481 26.2362 22.1208 26.2362 21.7161V16.8214C26.2362 16.4167 25.9093 16.0894 25.5051 16.0894Z" fill="white"/>
<path d="M25.5051 6.08228H23.317C22.9129 6.08228 22.5859 6.40962 22.5859 6.81429V11.709C22.5859 12.1137 22.9129 12.441 23.317 12.441H25.5051C25.9093 12.441 26.2362 12.1137 26.2362 11.709V6.81429C26.2362 6.40962 25.9093 6.08228 25.5051 6.08228Z" fill="white"/>
<path d="M25.5051 6.08228H23.317C22.9129 6.08228 22.5859 6.40962 22.5859 6.81429V11.709C22.5859 12.1137 22.9129 12.441 23.317 12.441H25.5051C25.9093 12.441 26.2362 12.1137 26.2362 11.709V6.81429C26.2362 6.40962 25.9093 6.08228 25.5051 6.08228Z" fill="white"/>
<path d="M19.6643 11.2332H17.4762C17.072 11.2332 16.7451 11.5605 16.7451 11.9652V16.8599C16.7451 17.2646 17.072 17.5919 17.4762 17.5919H19.6643C20.0685 17.5919 20.3954 17.2646 20.3954 16.8599V11.9652C20.3954 11.5605 20.0685 11.2332 19.6643 11.2332Z" fill="white"/>
<path d="M13.9241 15.2961H11.736C11.3318 15.2961 11.0049 15.6235 11.0049 16.0282V20.9229C11.0049 21.3275 11.3318 21.6549 11.736 21.6549H13.9241C14.3282 21.6549 14.6551 21.3275 14.6551 20.9229V16.0282C14.6551 15.6235 14.3282 15.2961 13.9241 15.2961Z" fill="white"/>
<path d="M13.8825 5.68433H11.7742C11.3469 5.68433 11.002 6.02971 11.002 6.45758V11.2698C11.002 11.6977 11.3469 12.0431 11.7742 12.0431H13.8825C14.3098 12.0431 14.6548 11.6977 14.6548 11.2698V6.45758C14.6548 6.02971 14.3098 5.68433 13.8825 5.68433Z" fill="white"/>
<path d="M8.80135 13.8388C7.69958 13.8877 7.28256 14.1713 7.22592 14.2847C7.14612 14.4496 7.23365 15.4523 9.16175 17.3468C11.0203 19.1742 13.7954 21.0481 16.9745 22.623C19.3506 23.8009 21.7214 24.6953 23.8452 25.2288C24.5634 25.4093 25.2533 25.5485 25.9046 25.6412C28.5792 26.0253 29.4287 25.4892 29.5111 25.3242C29.5213 25.301 29.5316 25.2624 29.5316 25.2031C29.5316 24.8938 29.2897 24.0844 28.054 22.7518V18.9577C28.5843 19.3959 29.0786 19.8341 29.5239 20.2723C32.631 23.3266 32.5873 25.3758 32.0029 26.5563C31.4186 27.7368 29.82 29.0152 25.5107 28.394C22.6481 27.9816 19.1807 26.8192 15.7441 25.1154C12.3075 23.4117 9.27759 21.3574 7.21563 19.3315C5.07129 17.2231 4.42773 15.5915 4.42773 14.3981C4.42773 13.862 4.55645 13.4161 4.73664 13.05C5.19486 12.1247 6.27861 11.1401 8.80135 11.0576V13.8388Z" fill="white"/>
</svg>
