<svg width="140" height="31" viewBox="0 0 140 31" fill="none" xmlns="http://www.w3.org/2000/svg">
<path d="M38.5306 9.52148C37.2541 9.52148 36.0638 10.0019 35.2076 10.8508V9.73727H32.7031V21.0776H35.2076V14.5978C35.2076 12.7487 36.6519 11.9077 37.9943 11.9077C39.4371 11.9077 40.2651 12.8889 40.2651 14.5978V21.0776H42.7696V14.0592C42.7696 11.2603 41.1449 9.52148 38.5306 9.52148Z" fill="#E5E5E4"/>
<path d="M119.852 10.9441C118.988 10.0179 117.804 9.53125 116.407 9.53125C115.01 9.53125 113.655 10.0589 112.692 11.0181C111.632 12.0734 111.07 13.5728 111.07 15.351C111.07 19.3359 113.837 21.1503 116.407 21.1503C117.804 21.1503 118.988 20.6637 119.852 19.7375V20.9377H122.327V9.74546H119.852V10.9456V10.9441ZM116.796 18.824C114.916 18.824 113.653 17.4285 113.653 15.351C113.653 13.2736 114.916 11.856 116.796 11.856C118.676 11.856 119.961 13.261 119.961 15.351C119.961 17.4411 118.689 18.824 116.796 18.824Z" fill="#E5E5E4"/>
<path d="M52.8446 10.9441C51.9805 10.0179 50.7965 9.53125 49.3992 9.53125C48.0019 9.53125 46.6469 10.0589 45.684 11.0181C44.6239 12.0734 44.0625 13.5728 44.0625 15.351C44.0625 19.3359 46.8288 21.1503 49.3992 21.1503C50.7965 21.1503 51.9805 20.6637 52.8446 19.7375V20.9377H55.3192V9.74546H52.8446V10.9456V10.9441ZM49.7881 18.824C47.9078 18.824 46.6454 17.4285 46.6454 15.351C46.6454 13.2736 47.9078 11.856 49.7881 11.856C51.6684 11.856 52.9528 13.261 52.9528 15.351C52.9528 17.4411 51.6809 18.824 49.7881 18.824Z" fill="#E5E5E4"/>
<path d="M64.5385 16.2161C64.5385 18.0652 63.0942 18.9062 61.7518 18.9062C60.309 18.9062 59.481 17.925 59.481 16.2161V9.73633H56.9766V16.7547C56.9766 19.5536 58.6012 21.2924 61.2155 21.2924C62.492 21.2924 63.6823 20.812 64.5385 19.9631V21.0766H67.043V9.73633H64.5385V16.2161Z" fill="#E5E5E4"/>
<path d="M77.2971 5.51367L75.4388 8.14714H72.2349L70.375 5.51367H72.6975L73.8455 6.85561L74.9746 5.51367H77.2971Z" fill="#E5E5E4"/>
<path d="M76.2759 17.1526C75.8352 18.3008 74.9946 18.9072 73.8435 18.9072C72.0856 18.9072 70.9502 17.5369 70.9502 15.4184C70.9502 13.3 72.0589 11.9077 73.8435 11.9077C74.924 11.9077 75.7521 12.4432 76.2366 13.4575L76.279 13.5473H78.9936L78.934 13.3457C78.2393 10.9863 76.2884 9.52148 73.842 9.52148C71.1901 9.52148 68.3359 11.3674 68.3359 15.4184C68.3359 19.4695 71.1901 21.2934 73.842 21.2934C76.4938 21.2934 78.3255 19.7435 78.9779 17.2486L79.0297 17.0518H76.3119L76.2727 17.1526H76.2759Z" fill="#E5E5E4"/>
<path d="M82.8013 9.73633H80.2969V21.0766H82.8013V9.73633Z" fill="#E5E5E4"/>
<path d="M81.5712 5.19922C80.6977 5.19922 80.0391 5.86074 80.0391 6.73804C80.0391 7.61533 80.6977 8.2548 81.5712 8.2548C82.4447 8.2548 83.0814 7.58856 83.0814 6.73804C83.0814 5.88751 82.4322 5.19922 81.5712 5.19922Z" fill="#E5E5E4"/>
<path d="M92.8382 10.9157C91.9772 10.0022 90.8073 9.5202 89.4288 9.5202C88.0504 9.5202 86.6766 10.0557 85.7137 11.0291C84.6536 12.0985 84.0938 13.6169 84.0938 15.4172C84.0938 19.454 86.8585 21.2921 89.4288 21.2921C90.8073 21.2921 91.9772 20.8117 92.8382 19.8966V21.0763H95.3426V5.51172H92.8382V10.9141V10.9157ZM89.8162 18.9075C87.9563 18.9075 86.708 17.5057 86.708 15.4187C86.708 13.3318 87.9579 11.908 89.8162 11.908C91.6745 11.908 92.9464 13.3192 92.9464 15.4187C92.9464 17.5183 91.6887 18.9075 89.8162 18.9075Z" fill="#E5E5E4"/>
<path d="M98.5946 5.19922C97.7211 5.19922 97.0625 5.86074 97.0625 6.73804C97.0625 7.61533 97.7211 8.2548 98.5946 8.2548C99.4681 8.2548 100.105 7.58856 100.105 6.73804C100.105 5.88751 99.4556 5.19922 98.5946 5.19922Z" fill="#E5E5E4"/>
<path d="M99.817 9.73633H97.3125V21.0766H99.817V9.73633Z" fill="#E5E5E4"/>
<path d="M110.376 11.7162V9.73633H101.663V12.0359H106.959L101.588 19.0763L101.555 19.1189V21.0766H110.591V18.7771H104.973L110.376 11.7162Z" fill="#E5E5E4"/>
<path d="M125.407 5.19922C124.534 5.19922 123.875 5.86074 123.875 6.73804C123.875 7.61533 124.534 8.2548 125.407 8.2548C126.281 8.2548 126.917 7.58856 126.917 6.73804C126.917 5.88751 126.268 5.19922 125.407 5.19922Z" fill="#E5E5E4"/>
<path d="M124.144 22.1965C124.144 22.8627 123.874 23.1604 123.269 23.1604H122.445V25.46H123.269C125.29 25.46 126.648 24.148 126.648 22.1949V9.73633H124.144V22.1965Z" fill="#E5E5E4"/>
<path d="M134.288 9.52148C133.012 9.52148 131.822 10.0019 130.965 10.8508V9.73727H128.461V21.0776H130.965V14.5978C130.965 12.7487 132.41 11.9077 133.752 11.9077C135.195 11.9077 136.023 12.8889 136.023 14.5978V21.0776H138.527V14.0592C138.527 11.2603 136.903 9.52148 134.288 9.52148Z" fill="#E5E5E4"/>
<path d="M17.6582 3.10287L6.66337 9.47707L3 7.35391L13.9948 0.976562L17.6582 3.10287Z" fill="#DBFF00"/>
<path d="M6.66581 13.7392L21.335 5.23242L26.518 8.2376V12.4587L21.3616 9.46614L6.6564 17.9918L1.47656 14.9882V10.7277L6.66581 13.7392Z" fill="#DBFF00"/>
<path d="M1.47656 22.7603V19.2479L6.64856 22.2468L21.3522 13.7227L26.518 16.7184V20.9899L21.3365 17.9847L7.2884 26.1293L1.47656 22.7603Z" fill="#DBFF00"/>
<path d="M13.9991 30.0212L10.3828 27.9233L20.7582 21.9082L24.3745 24.0046L13.9991 30.0212Z" fill="#DBFF00"/>
</svg>
