<svg width="191" height="70" viewBox="0 0 191 70" fill="none" xmlns="http://www.w3.org/2000/svg">
<path d="M77.4564 19.6267C82.8394 19.6267 87.195 15.2288 87.195 9.81334C87.195 4.39786 82.8306 0 77.4564 0C72.0821 0 67.7178 4.39786 67.7178 9.81334C67.7178 15.2288 72.0821 19.6267 77.4564 19.6267Z" fill="#0B1029"/>
<path d="M21.6129 21.8477H3.18945V52.4292H11.8655V28.4135H19.4439C21.2528 28.4135 22.7018 29.8735 22.7018 31.6964V52.4646H31.3778V31.6964C31.3778 26.2367 26.9871 21.8477 21.6041 21.8477H21.6129Z" fill="#0B1029"/>
<path d="M117.032 45.8455H111.35C109.673 45.7128 108.347 44.3147 108.347 42.5626V28.3603H117.023V21.7944H108.347V10.875H99.6712V21.7944H95.8688L90.9951 28.3603H99.6712V42.5892C99.6712 48.0135 104.027 52.4025 109.41 52.4025H116.988V48.7656L117.023 45.8367L117.032 45.8455Z" fill="#0B1029"/>
<path d="M93.7441 21.8477H83.9704L77.4897 30.5903L70.9739 21.8477H61.2002L72.5897 37.1207L61.2002 52.4292H70.9739L77.4897 43.6865L83.9704 52.4292H93.7441L82.3546 37.1207L93.7441 21.8477Z" fill="#0B1029"/>
<path d="M153.877 21.8477L146.298 41.3151L138.72 21.8477H130.044L141.978 52.4292H150.628L162.562 21.8477H153.885H153.877Z" fill="#0B1029"/>
<path d="M127.875 21.8477H119.199V52.4292H127.875V21.8477Z" fill="#0B1029"/>
<path d="M127.875 10.9219H119.199V19.6645H127.875V10.9219Z" fill="#0B1029"/>
<path d="M48.7133 45.8519C45.9735 45.8519 43.6465 43.5777 42.6805 40.3922H63.5539C63.7823 39.348 63.9052 38.2507 63.9052 37.1092C63.9052 28.6586 57.0996 21.8008 48.7133 21.8008C40.3271 21.8008 33.5215 28.6586 33.5215 37.1092C33.5215 45.5599 40.3271 52.4177 48.7133 52.4177H59.0052L63.8789 45.8519H48.7133ZM48.7133 28.402C51.4531 28.402 53.7802 30.6761 54.7462 33.8617H42.6805C43.6465 30.6408 45.9999 28.402 48.7133 28.402Z" fill="#0B1029"/>
<path d="M180.52 21.8477H164.714L162.167 28.4135H178.36C180.169 28.4135 181.618 29.8735 181.618 31.6964V33.8732H168.613V33.9086C163.774 34.2006 159.937 38.2268 159.937 43.1733C159.937 48.1198 163.774 52.146 168.613 52.438V52.4734H190.294V31.7052C190.259 26.2455 185.903 21.8565 180.52 21.8565V21.8477ZM170.782 40.4656C170.94 40.4302 171.106 40.4302 171.229 40.4036H181.618V45.8634H171.265C171.106 45.8634 170.94 45.828 170.817 45.8014C169.587 45.5448 168.656 44.4387 168.656 43.1379C168.656 41.8371 169.526 40.731 170.79 40.4744L170.782 40.4656Z" fill="#0B1029"/>
</svg>
