<svg width="121" height="47" viewBox="0 0 121 47" fill="none" xmlns="http://www.w3.org/2000/svg">
<path d="M49.0694 19.3368C52.4796 19.3368 55.2389 16.5724 55.2389 13.1684C55.2389 9.76437 52.474 7 49.0694 7C45.6647 7 42.8999 9.76437 42.8999 13.1684C42.8999 16.5724 45.6647 19.3368 49.0694 19.3368Z" fill="#46587D"/>
<path d="M13.6919 20.7329H2.02051V39.9556H7.51685V24.86H12.3178C13.4638 24.86 14.3817 25.7777 14.3817 26.9235V39.9778H19.878V26.9235C19.878 23.4917 17.0965 20.7329 13.6863 20.7329H13.6919Z" fill="#46587D"/>
<path d="M74.1406 35.8172H70.541C69.4786 35.7337 68.6386 34.8549 68.6386 33.7536V24.8265H74.1349V20.6993H68.6386V13.8357H63.1424V20.6993H60.7335L57.646 24.8265H63.1424V33.7703C63.1424 37.1799 65.9018 39.9387 69.312 39.9387H74.1127V37.6526L74.1349 35.8116L74.1406 35.8172Z" fill="#46587D"/>
<path d="M59.3878 20.7329H53.1961L49.0905 26.2283L44.9627 20.7329H38.771L45.9863 30.3331L38.771 39.9556H44.9627L49.0905 34.4602L53.1961 39.9556H59.3878L52.1725 30.3331L59.3878 20.7329Z" fill="#46587D"/>
<path d="M97.4822 20.7329L92.6808 32.9696L87.8801 20.7329H82.3838L89.9441 39.9556H95.4239L102.984 20.7329H97.4872H97.4822Z" fill="#46587D"/>
<path d="M81.01 20.7329H75.5137V39.9556H81.01V20.7329Z" fill="#46587D"/>
<path d="M81.01 13.8652H75.5137V19.3606H81.01V13.8652Z" fill="#46587D"/>
<path d="M30.8605 35.8212C29.1248 35.8212 27.6506 34.3917 27.0386 32.3894H40.2621C40.4068 31.733 40.4846 31.0433 40.4846 30.3258C40.4846 25.014 36.1732 20.7034 30.8605 20.7034C25.5477 20.7034 21.2363 25.014 21.2363 30.3258C21.2363 35.6377 25.5477 39.9483 30.8605 39.9483H37.3805L40.468 35.8212H30.8605ZM30.8605 24.8527C32.5961 24.8527 34.0704 26.2821 34.6823 28.2845H27.0386C27.6506 26.2599 29.1415 24.8527 30.8605 24.8527Z" fill="#46587D"/>
<path d="M114.361 20.7329H104.348L102.734 24.86H112.992C114.138 24.86 115.056 25.7777 115.056 26.9235V28.2918H106.818V28.314C103.752 28.4976 101.321 31.0283 101.321 34.1376C101.321 37.2468 103.752 39.7776 106.818 39.9611V39.9834H120.553V26.9291C120.531 23.4972 117.771 20.7384 114.361 20.7384V20.7329ZM108.192 32.4356C108.292 32.4133 108.397 32.4133 108.475 32.3966H115.056V35.8285H108.498C108.397 35.8285 108.292 35.8062 108.214 35.7895C107.435 35.6282 106.845 34.933 106.845 34.1153C106.845 33.2977 107.396 32.6024 108.197 32.4411L108.192 32.4356Z" fill="#46587D"/>
</svg>
