<svg width="132" height="52" viewBox="0 0 132 52" fill="none" xmlns="http://www.w3.org/2000/svg">
<path d="M73.152 33.132C77.552 33.132 80.94 29.942 80.94 25.19C80.94 20.416 77.552 17.226 73.152 17.226C68.466 17.226 65.298 20.68 65.298 25.19C65.298 29.7 68.466 33.132 73.152 33.132ZM73.152 31.306C69.654 31.306 67.278 28.578 67.278 25.19C67.278 21.802 69.654 19.052 73.152 19.052C76.386 19.052 78.938 21.56 78.938 25.19C78.938 28.776 76.386 31.306 73.152 31.306ZM89.2362 22.154C87.7842 22.154 86.5302 22.902 85.7382 24.178H85.7162V22.286H83.9342V33H85.7162V27.83C85.7162 25.674 86.9482 24.112 88.9722 24.112C89.1482 24.112 89.4342 24.134 89.6762 24.156V22.176C89.5662 22.154 89.4122 22.154 89.2362 22.154ZM92.8535 20.306C93.5575 20.306 94.1295 19.756 94.1295 19.052C94.1295 18.37 93.5575 17.798 92.8535 17.798C92.1275 17.798 91.5775 18.37 91.5775 19.052C91.5775 19.756 92.1275 20.306 92.8535 20.306ZM91.9515 33H93.7335V22.286H91.9515V33ZM105.13 23.562V22.286H96.7915V23.826H102.666V23.87L96.4615 31.68V33H105.108V31.46H98.8595V31.416L105.13 23.562ZM112.107 33.132C115.253 33.132 117.607 30.91 117.607 27.654C117.607 24.398 115.253 22.154 112.107 22.154C108.763 22.154 106.563 24.574 106.563 27.654C106.563 30.734 108.763 33.132 112.107 33.132ZM112.107 31.504C109.885 31.504 108.367 29.788 108.367 27.654C108.367 25.52 109.863 23.804 112.107 23.804C114.175 23.804 115.803 25.366 115.803 27.654C115.803 29.92 114.175 31.504 112.107 31.504ZM126.048 22.154C124.464 22.154 123.056 22.88 122.154 24.156H122.132V22.286H120.35V33H122.132V27.654C122.132 25.234 123.474 23.804 125.498 23.804C127.06 23.804 128.116 24.64 128.116 27.148V33H129.898V26.642C129.898 23.584 128.358 22.154 126.048 22.154Z" fill="#46587D"/>
<rect width="52" height="52" rx="26" fill="#46587D"/>
<mask id="path-3-inside-1_125_1406" fill="white">
<path fill-rule="evenodd" clip-rule="evenodd" d="M38.1323 30.6797C38.6927 29.2276 39 27.6497 39 26C39 18.8203 33.1797 13 26 13C18.8203 13 13 18.8203 13 26C13 27.6497 13.3073 29.2276 13.8677 30.6797H18.4989C17.6504 29.3225 17.16 27.7185 17.16 26C17.16 21.1178 21.1178 17.16 26 17.16C30.8822 17.16 34.84 21.1178 34.84 26C34.84 27.7185 34.3496 29.3225 33.5011 30.6797H38.1323ZM35.5321 34.8397H26.0752C26.0501 34.8399 26.0251 34.84 26 34.84C25.9749 34.84 25.9499 34.8399 25.9248 34.8397H16.4679C18.842 37.3986 22.234 39 26 39C29.766 39 33.158 37.3986 35.5321 34.8397Z"/>
</mask>
<path fill-rule="evenodd" clip-rule="evenodd" d="M38.1323 30.6797C38.6927 29.2276 39 27.6497 39 26C39 18.8203 33.1797 13 26 13C18.8203 13 13 18.8203 13 26C13 27.6497 13.3073 29.2276 13.8677 30.6797H18.4989C17.6504 29.3225 17.16 27.7185 17.16 26C17.16 21.1178 21.1178 17.16 26 17.16C30.8822 17.16 34.84 21.1178 34.84 26C34.84 27.7185 34.3496 29.3225 33.5011 30.6797H38.1323ZM35.5321 34.8397H26.0752C26.0501 34.8399 26.0251 34.84 26 34.84C25.9749 34.84 25.9499 34.8399 25.9248 34.8397H16.4679C18.842 37.3986 22.234 39 26 39C29.766 39 33.158 37.3986 35.5321 34.8397Z" fill="#D9D9D9"/>
<path d="M38.1323 30.6797V50.6797H51.8508L56.7906 37.8814L38.1323 30.6797ZM13.8677 30.6797L-4.79063 37.8814L0.149234 50.6797H13.8677V30.6797ZM18.4989 30.6797V50.6797H54.5894L35.4574 20.0775L18.4989 30.6797ZM33.5011 30.6797L16.5426 20.0775L-2.58943 50.6797H33.5011V30.6797ZM35.5321 34.8397L50.1937 48.4426L81.3702 14.8397H35.5321V34.8397ZM26.0752 34.8397V14.8397H25.9921L25.909 14.8404L26.0752 34.8397ZM25.9248 34.8397L26.091 14.8404L26.0079 14.8397H25.9248V34.8397ZM16.4679 34.8397V14.8397H-29.3701L1.8063 48.4426L16.4679 34.8397ZM19 26C19 25.1482 19.1616 24.287 19.4739 23.478L56.7906 37.8814C58.2238 34.1683 59 30.1512 59 26H19ZM26 33C22.134 33 19 29.866 19 26H59C59 7.7746 44.2254 -7 26 -7V33ZM33 26C33 29.866 29.866 33 26 33V-7C7.7746 -7 -7 7.7746 -7 26H33ZM32.5261 23.4779C32.8384 24.287 33 25.1482 33 26H-7C-7 30.1512 -6.22381 34.1683 -4.79063 37.8814L32.5261 23.4779ZM13.8677 50.6797H18.4989V10.6797H13.8677V50.6797ZM35.4574 20.0775C36.5385 21.8067 37.16 23.8613 37.16 26H-2.84C-2.84 31.5757 -1.23774 36.8384 1.54029 41.2819L35.4574 20.0775ZM37.16 26C37.16 32.1635 32.1635 37.16 26 37.16V-2.84C10.0721 -2.84 -2.84 10.0721 -2.84 26H37.16ZM26 37.16C19.8365 37.16 14.84 32.1635 14.84 26H54.84C54.84 10.0721 41.9279 -2.84 26 -2.84V37.16ZM14.84 26C14.84 23.8613 15.4615 21.8067 16.5426 20.0775L50.4597 41.2819C53.2377 36.8384 54.84 31.5757 54.84 26H14.84ZM33.5011 50.6797H38.1323V10.6797H33.5011V50.6797ZM35.5321 14.8397H26.0752V54.8397H35.5321V14.8397ZM25.909 14.8404C25.939 14.8401 25.9693 14.84 26 14.84V54.84C26.0809 54.84 26.1613 54.8397 26.2413 54.839L25.909 14.8404ZM26 14.84C26.0307 14.84 26.061 14.8401 26.091 14.8404L25.7587 54.839C25.8387 54.8397 25.9191 54.84 26 54.84V14.84ZM25.9248 14.8397H16.4679V54.8397H25.9248V14.8397ZM26 19C28.0273 19 29.8777 19.8877 31.1295 21.2368L1.8063 48.4426C7.80635 54.9096 16.4407 59 26 59V19ZM20.8706 21.2368C22.1223 19.8877 23.9727 19 26 19V59C35.5593 59 44.1937 54.9096 50.1937 48.4426L20.8706 21.2368Z" fill="white" mask="url(#path-3-inside-1_125_1406)"/>
<mask id="mask0_125_1406" style="mask-type:alpha" maskUnits="userSpaceOnUse" x="13" y="13" width="26" height="26">
<mask id="path-5-inside-2_125_1406" fill="white">
<path fill-rule="evenodd" clip-rule="evenodd" d="M38.1323 30.6797C38.6927 29.2276 39 27.6497 39 26C39 18.8203 33.1797 13 26 13C18.8203 13 13 18.8203 13 26C13 27.6497 13.3073 29.2276 13.8677 30.6797H18.4989C17.6504 29.3225 17.16 27.7185 17.16 26C17.16 21.1178 21.1178 17.16 26 17.16C30.8822 17.16 34.84 21.1178 34.84 26C34.84 27.7185 34.3496 29.3225 33.5011 30.6797H38.1323ZM35.5321 34.8397H26.0752C26.0501 34.8399 26.0251 34.84 26 34.84C25.9749 34.84 25.9499 34.8399 25.9248 34.8397H16.4679C18.842 37.3986 22.234 39 26 39C29.766 39 33.158 37.3986 35.5321 34.8397Z"/>
</mask>
<path fill-rule="evenodd" clip-rule="evenodd" d="M38.1323 30.6797C38.6927 29.2276 39 27.6497 39 26C39 18.8203 33.1797 13 26 13C18.8203 13 13 18.8203 13 26C13 27.6497 13.3073 29.2276 13.8677 30.6797H18.4989C17.6504 29.3225 17.16 27.7185 17.16 26C17.16 21.1178 21.1178 17.16 26 17.16C30.8822 17.16 34.84 21.1178 34.84 26C34.84 27.7185 34.3496 29.3225 33.5011 30.6797H38.1323ZM35.5321 34.8397H26.0752C26.0501 34.8399 26.0251 34.84 26 34.84C25.9749 34.84 25.9499 34.8399 25.9248 34.8397H16.4679C18.842 37.3986 22.234 39 26 39C29.766 39 33.158 37.3986 35.5321 34.8397Z" fill="white"/>
<path d="M38.1323 30.6797V50.6797H51.8508L56.7906 37.8814L38.1323 30.6797ZM13.8677 30.6797L-4.79063 37.8814L0.149234 50.6797H13.8677V30.6797ZM18.4989 30.6797V50.6797H54.5894L35.4574 20.0775L18.4989 30.6797ZM33.5011 30.6797L16.5426 20.0775L-2.58943 50.6797H33.5011V30.6797ZM35.5321 34.8397L50.1937 48.4426L81.3702 14.8397H35.5321V34.8397ZM26.0752 34.8397V14.8397H25.9921L25.909 14.8404L26.0752 34.8397ZM25.9248 34.8397L26.091 14.8404L26.0079 14.8397H25.9248V34.8397ZM16.4679 34.8397V14.8397H-29.3701L1.8063 48.4426L16.4679 34.8397ZM19 26C19 25.1482 19.1616 24.287 19.4739 23.478L56.7906 37.8814C58.2238 34.1683 59 30.1512 59 26H19ZM26 33C22.134 33 19 29.866 19 26H59C59 7.7746 44.2254 -7 26 -7V33ZM33 26C33 29.866 29.866 33 26 33V-7C7.7746 -7 -7 7.7746 -7 26H33ZM32.5261 23.4779C32.8384 24.287 33 25.1482 33 26H-7C-7 30.1512 -6.22381 34.1683 -4.79063 37.8814L32.5261 23.4779ZM13.8677 50.6797H18.4989V10.6797H13.8677V50.6797ZM35.4574 20.0775C36.5385 21.8067 37.16 23.8613 37.16 26H-2.84C-2.84 31.5757 -1.23774 36.8384 1.54029 41.2819L35.4574 20.0775ZM37.16 26C37.16 32.1635 32.1635 37.16 26 37.16V-2.84C10.0721 -2.84 -2.84 10.0721 -2.84 26H37.16ZM26 37.16C19.8365 37.16 14.84 32.1635 14.84 26H54.84C54.84 10.0721 41.9279 -2.84 26 -2.84V37.16ZM14.84 26C14.84 23.8613 15.4615 21.8067 16.5426 20.0775L50.4597 41.2819C53.2377 36.8384 54.84 31.5757 54.84 26H14.84ZM33.5011 50.6797H38.1323V10.6797H33.5011V50.6797ZM35.5321 14.8397H26.0752V54.8397H35.5321V14.8397ZM25.909 14.8404C25.939 14.8401 25.9693 14.84 26 14.84V54.84C26.0809 54.84 26.1613 54.8397 26.2413 54.839L25.909 14.8404ZM26 14.84C26.0307 14.84 26.061 14.8401 26.091 14.8404L25.7587 54.839C25.8387 54.8397 25.9191 54.84 26 54.84V14.84ZM25.9248 14.8397H16.4679V54.8397H25.9248V14.8397ZM26 19C28.0273 19 29.8777 19.8877 31.1295 21.2368L1.8063 48.4426C7.80635 54.9096 16.4407 59 26 59V19ZM20.8706 21.2368C22.1223 19.8877 23.9727 19 26 19V59C35.5593 59 44.1937 54.9096 50.1937 48.4426L20.8706 21.2368Z" fill="white" mask="url(#path-5-inside-2_125_1406)"/>
</mask>
<g mask="url(#mask0_125_1406)">
<rect width="26" height="26" transform="translate(13 13)" fill="#D9D9D9"/>
<rect x="13" y="13" width="26" height="26" fill="white"/>
<rect x="13" y="32.76" width="26" height="6.24" fill="#D9D9D9"/>
<mask id="mask1_125_1406" style="mask-type:alpha" maskUnits="userSpaceOnUse" x="13" y="32" width="26" height="7">
<rect x="13" y="32.76" width="26" height="6.24" fill="white"/>
</mask>
<g mask="url(#mask1_125_1406)">
<rect width="26" height="26" transform="translate(13 13)" fill="#D9D9D9"/>
<rect x="13" y="13" width="26" height="26" fill="#9EA7B1"/>
</g>
</g>
</svg>
