<svg width="157" height="47" viewBox="0 0 157 47" fill="none" xmlns="http://www.w3.org/2000/svg">
<path d="M23.0023 15.7651C23.0023 20.6361 19.0928 24.5848 14.27 24.5848H0V23.7243C4.35224 23.7243 7.88043 20.1608 7.88043 15.7651C7.88043 11.3693 4.35224 7.80577 0 7.80577V6.94531H14.27C19.0928 6.94531 23.0023 10.8941 23.0023 15.7651Z" fill="#46587D"/>
<path d="M23.0023 36.6315C23.0023 31.7605 19.0928 27.8118 14.27 27.8118H0V28.6721C4.35224 28.6721 7.88043 32.2356 7.88043 36.6315H23.0023Z" fill="#46587D"/>
<path d="M31.7349 34.8752V11.678H42.956C44.5092 11.678 45.8762 11.9873 47.0574 12.6059C48.2604 13.2024 49.1901 14.0419 49.8463 15.1244C50.5244 16.207 50.8634 17.4552 50.8634 18.8691C50.8634 20.3494 50.4588 21.6528 49.6495 22.7795C48.8401 23.9063 47.7574 24.7458 46.4011 25.2981L51.4868 34.8752H46.1715L41.6765 25.994H36.4924V34.8752H31.7349ZM36.4924 22.0505H42.5295C43.6013 22.0505 44.4545 21.7633 45.0888 21.1889C45.745 20.6145 46.073 19.8634 46.073 18.9354C46.073 18.0075 45.745 17.2564 45.0888 16.682C44.4545 16.1076 43.6013 15.8204 42.5295 15.8204H36.4924V22.0505Z" fill="#46587D"/>
<path d="M61.0819 35.2065C59.3758 35.2065 57.8227 34.8089 56.4228 34.0135C55.0447 33.2182 53.9511 32.1468 53.1417 30.799C52.3324 29.4514 51.9277 27.9381 51.9277 26.259C51.9277 24.58 52.3106 23.0667 53.0762 21.719C53.8635 20.3714 54.9245 19.2998 56.2587 18.5046C57.5931 17.7092 59.0804 17.3115 60.721 17.3115C62.3616 17.3115 63.8162 17.7202 65.0847 18.5376C66.3534 19.3551 67.3487 20.4598 68.0705 21.8515C68.8143 23.2434 69.1861 24.823 69.1861 26.5904V27.7834H56.5213C56.7181 28.4683 57.0352 29.0869 57.4727 29.6392C57.9321 30.1916 58.4898 30.6224 59.1461 30.9316C59.8242 31.2409 60.546 31.3955 61.3116 31.3955C62.0771 31.3955 62.7771 31.2741 63.4115 31.0311C64.0676 30.7881 64.6254 30.4455 65.0847 30.0038L68.0378 32.7212C66.9878 33.5828 65.9051 34.2124 64.7894 34.61C63.6958 35.0076 62.4599 35.2065 61.0819 35.2065ZM56.4556 24.5359H64.7567C64.6035 23.851 64.3192 23.2545 63.9036 22.7462C63.5099 22.2161 63.0287 21.8074 62.4599 21.5202C61.9131 21.2109 61.3006 21.0563 60.6225 21.0563C59.9226 21.0563 59.2883 21.1998 58.7196 21.4871C58.1508 21.7742 57.6696 22.1829 57.2759 22.7132C56.904 23.2213 56.6305 23.8289 56.4556 24.5359Z" fill="#46587D"/>
<path d="M79.9756 35.1072C78.3569 35.1072 76.8913 34.7095 75.5789 33.9142C74.2665 33.1189 73.2166 32.0584 72.4291 30.7329C71.6636 29.3852 71.2808 27.883 71.2808 26.226C71.2808 24.569 71.6636 23.0777 72.4291 21.7522C73.2166 20.4046 74.2775 19.3442 75.6117 18.5709C76.946 17.7755 78.4444 17.3779 80.1068 17.3779C80.9598 17.3779 81.7801 17.4994 82.5675 17.7424C83.355 17.9633 84.0878 18.2947 84.7659 18.7366V11.678H89.2609V34.8752H84.8314V33.4503C83.4315 34.5549 81.813 35.1072 79.9756 35.1072ZM80.6974 31.2299C81.5285 31.2299 82.2832 31.0974 82.9613 30.8323C83.6613 30.5451 84.2628 30.1253 84.7659 29.5729V22.8458C84.2628 22.3377 83.6613 21.94 82.9613 21.6528C82.2613 21.3656 81.5067 21.2221 80.6974 21.2221C79.7568 21.2221 78.9038 21.4429 78.1381 21.8847C77.3945 22.3046 76.8039 22.9011 76.3664 23.6742C75.9289 24.4255 75.7101 25.2759 75.7101 26.226C75.7101 27.176 75.9289 28.0265 76.3664 28.7777C76.8039 29.5288 77.3945 30.1253 78.1381 30.5672C78.9038 31.0091 79.7568 31.2299 80.6974 31.2299Z" fill="#46587D"/>
<path d="M101.101 35.2065C99.3947 35.2065 97.8526 34.8088 96.4745 34.0135C95.0966 33.2181 94.0028 32.1467 93.1935 30.799C92.3842 29.4514 91.9795 27.9381 91.9795 26.2589C91.9795 24.5799 92.3733 23.0666 93.1608 21.7189C93.97 20.3492 95.0638 19.2666 96.4418 18.4714C97.8417 17.676 99.3947 17.2783 101.101 17.2783C102.807 17.2783 104.349 17.676 105.727 18.4714C107.127 19.2666 108.221 20.3492 109.008 21.7189C109.818 23.0666 110.222 24.5799 110.222 26.2589C110.222 27.9381 109.818 29.4514 109.008 30.799C108.221 32.1467 107.138 33.2181 105.76 34.0135C104.382 34.8088 102.829 35.2065 101.101 35.2065ZM101.101 31.2629C101.998 31.2629 102.796 31.042 103.496 30.6002C104.218 30.1583 104.787 29.5618 105.202 28.8106C105.64 28.0374 105.858 27.1868 105.858 26.2589C105.858 25.309 105.64 24.4585 105.202 23.7073C104.787 22.9562 104.218 22.3597 103.496 21.9178C102.796 21.4538 101.998 21.2219 101.101 21.2219C100.226 21.2219 99.4276 21.4538 98.7058 21.9178C97.9838 22.3597 97.4151 22.9562 96.9996 23.7073C96.5839 24.4585 96.3762 25.309 96.3762 26.2589C96.3762 27.1868 96.5839 28.0374 96.9996 28.8106C97.4151 29.5618 97.9838 30.1583 98.7058 30.6002C99.4276 31.042 100.226 31.2629 101.101 31.2629Z" fill="#46587D"/>
<path d="M121.155 35.2065C119.471 35.2065 117.951 34.8198 116.594 34.0466C115.238 33.2513 114.166 32.1797 113.379 30.8321C112.592 29.4623 112.198 27.9381 112.198 26.2589C112.198 24.5579 112.592 23.0335 113.379 21.6857C114.166 20.3381 115.238 19.2666 116.594 18.4714C117.951 17.676 119.471 17.2783 121.155 17.2783C122.511 17.2783 123.802 17.5434 125.027 18.0737C126.273 18.6039 127.345 19.3661 128.242 20.3602L125.486 23.3096C124.852 22.6027 124.185 22.0835 123.485 21.7521C122.807 21.3986 122.063 21.2219 121.254 21.2219C120.379 21.2219 119.591 21.4427 118.891 21.8846C118.213 22.3265 117.666 22.923 117.251 23.6741C116.857 24.4253 116.66 25.2869 116.66 26.2589C116.66 27.1868 116.857 28.0374 117.251 28.8106C117.666 29.5618 118.235 30.1583 118.957 30.6002C119.679 31.0199 120.477 31.2298 121.352 31.2298C122.118 31.2298 122.828 31.0751 123.485 30.7659C124.163 30.4345 124.808 29.9485 125.42 29.3077L128.111 32.1577C127.236 33.1076 126.186 33.8589 124.961 34.4111C123.736 34.9414 122.468 35.2065 121.155 35.2065Z" fill="#46587D"/>
<path d="M130.448 34.8752V11.678H134.943V34.8752H130.448Z" fill="#46587D"/>
<path d="M140.132 42.0001C139.738 42.0001 139.355 41.978 138.983 41.9339C138.634 41.9117 138.338 41.8786 138.097 41.8344V37.924C138.534 38.0124 139.06 38.0565 139.673 38.0565C141.313 38.0565 142.45 37.2723 143.085 35.7037L143.346 35.0409L136.687 17.6099H141.64L145.907 29.3742L150.729 17.6099H155.586L147.711 36.2671C147.12 37.6589 146.475 38.7746 145.775 39.6141C145.075 40.4536 144.266 41.0612 143.346 41.4368C142.45 41.8123 141.379 42.0001 140.132 42.0001Z" fill="#46587D"/>
</svg>
