<svg width="122" height="34" viewBox="0 0 122 34" fill="none" xmlns="http://www.w3.org/2000/svg">
<path d="M23.6156 24.8941L15.7627 33.0094C14.6989 34.1089 12.9685 34.1089 11.9046 33.0094L4.05173 24.8941C2.11708 22.8948 0.799565 20.3475 0.265804 17.5743C-0.267957 14.8012 0.00600505 11.9267 1.05305 9.31442C2.1001 6.70216 3.87319 4.46943 6.14812 2.89857C8.42306 1.3277 11.0977 0.489258 13.8337 0.489258C16.5697 0.489258 19.2443 1.3277 21.5192 2.89857C23.7941 4.46943 25.5673 6.70216 26.6143 9.31442C27.6613 11.9267 27.9353 14.8012 27.4015 17.5743C26.8678 20.3475 25.5503 22.8948 23.6156 24.8941Z" fill="#46587D"/>
<path d="M18.8981 11.0988C18.8981 13.9751 16.6306 16.307 13.8334 16.307C11.0362 16.307 8.76855 13.9751 8.76855 11.0988C8.76855 8.2224 11.0362 5.89062 13.8334 5.89062C16.6306 5.89062 18.8981 8.2224 18.8981 11.0988Z" fill="#46587D"/>
<path fill-rule="evenodd" clip-rule="evenodd" d="M13.8334 13.7945C15.2811 13.7945 16.4548 12.5876 16.4548 11.0988C16.4548 9.61 15.2811 8.40311 13.8334 8.40311C12.3855 8.40311 11.2119 9.61 11.2119 11.0988C11.2119 12.5876 12.3855 13.7945 13.8334 13.7945ZM13.8334 16.307C16.6306 16.307 18.8981 13.9751 18.8981 11.0988C18.8981 8.2224 16.6306 5.89062 13.8334 5.89062C11.0362 5.89062 8.76855 8.2224 8.76855 11.0988C8.76855 13.9751 11.0362 16.307 13.8334 16.307Z" fill="white"/>
<path fill-rule="evenodd" clip-rule="evenodd" d="M7.0127 17.2224L7.58335 17.8083C8.56261 18.8138 10.3896 20.0443 12.6177 20.4008C14.8066 20.7512 17.4341 20.269 20.1158 17.7796L20.7138 17.2245L21.7713 18.4801L21.1732 19.0352C18.1329 21.8575 15.0285 22.482 12.3771 22.0577C9.76504 21.6397 7.64344 20.2143 6.46713 19.0065L5.89648 18.4206L7.0127 17.2224Z" fill="white"/>
<path d="M42.7158 14.7977C43.0433 14.9067 43.379 15.019 43.7178 15.1355C46.7789 16.1564 50.0452 17.5792 50.0452 21.5496C50.0452 25.3669 46.9891 27.8326 42.2596 27.8326C40.0026 27.8326 37.9689 27.2451 36.4119 26.1612C34.8547 25.0773 33.8834 23.5758 33.6018 21.8245L33.563 21.5853L37.5659 19.7407L37.6118 20.1709C37.8537 22.4898 39.7005 23.9871 42.3168 23.9871C44.2984 23.9871 45.6841 23.0763 45.6841 21.7711C45.6841 20.2344 43.6995 19.568 41.4005 18.796L41.3985 18.7954L40.9107 18.6306C37.4905 17.4691 34.4201 16.1145 34.4201 12.356C34.4201 10.5565 35.1353 9.05503 36.4894 8.01625C37.7935 7.01315 39.6179 6.48853 41.773 6.48853C43.6045 6.48853 45.2912 6.88935 46.6514 7.65112C48.1391 8.48108 49.1982 9.69403 49.7992 11.2574L49.9013 11.525L46.0953 13.4944L46.0014 13.1136C45.5555 11.3036 43.9647 10.2229 41.7464 10.2229C39.9526 10.2229 38.7006 11.0088 38.7006 12.1336C38.7006 13.4619 40.5607 14.081 42.7158 14.7977Z" fill="#46587D"/>
<path d="M56.1535 24.0946C55.5421 24.0946 55.1949 23.6375 55.1949 22.5554V14.7208H58.3897V11.0576H55.1949V9.16724H51.0903V22.7099C51.0903 24.2512 51.5301 25.545 52.3617 26.4503C53.1934 27.3557 54.3784 27.833 55.788 27.833C56.1225 27.833 56.4649 27.8253 56.7872 27.8181C56.9012 27.8155 57.0126 27.8131 57.1202 27.811C57.4376 27.8049 58.3897 27.7943 58.3897 27.7943V24.0946H56.1535Z" fill="#46587D"/>
<path fill-rule="evenodd" clip-rule="evenodd" d="M66.5004 10.7825C62.0323 10.7825 58.3896 14.6065 58.3896 19.3076C58.3896 24.0087 62.0281 27.8327 66.5004 27.8327C70.9726 27.8327 74.6111 24.0077 74.6111 19.3076C74.6111 14.6075 70.9726 10.7825 66.5004 10.7825ZM66.5004 23.9617C64.1029 23.9617 62.153 21.8733 62.153 19.3076C62.153 16.7419 64.1029 14.6524 66.5004 14.6524C68.898 14.6524 70.8467 16.7409 70.8467 19.3076C70.8467 21.8743 68.8969 23.9617 66.5004 23.9617Z" fill="#46587D"/>
<path fill-rule="evenodd" clip-rule="evenodd" d="M75.6558 19.3076C75.6558 14.6065 79.2984 10.7825 83.7665 10.7825C88.2387 10.7825 91.8772 14.6075 91.8772 19.3076C91.8772 24.0077 88.2387 27.8327 83.7665 27.8327C79.2943 27.8327 75.6558 24.0087 75.6558 19.3076ZM83.7665 23.9617C86.1631 23.9617 88.1138 21.8743 88.1138 19.3076C88.1138 16.7409 86.1631 14.6524 83.7665 14.6524C81.3699 14.6524 79.4202 16.7419 79.4202 19.3076C79.4202 21.8733 81.3699 23.9617 83.7665 23.9617Z" fill="#46587D"/>
<path fill-rule="evenodd" clip-rule="evenodd" d="M113.89 10.7842C109.423 10.7842 105.78 14.6081 105.78 19.3093C105.78 24.0104 109.419 27.8344 113.89 27.8344C118.363 27.8344 122 24.0094 122 19.3093C122 14.6092 118.363 10.7842 113.89 10.7842ZM118.237 19.3093C118.237 21.876 116.287 23.9634 113.89 23.9634C111.494 23.9634 109.545 21.876 109.545 19.3093C109.545 16.7425 111.494 14.6542 113.891 14.6542C116.289 14.6542 118.237 16.7425 118.237 19.3093Z" fill="#46587D"/>
<path d="M100.921 16.0562L102.691 11.0574H107.199L100.954 27.5577H96.6885L90.4443 11.0574H94.9514L96.7221 16.0562C97.0402 16.9379 98.0233 20.1635 98.483 21.6715C98.6114 22.0929 98.699 22.3803 98.7197 22.4447H98.9232C98.944 22.3802 99.0316 22.0928 99.1601 21.6712C99.6198 20.1631 100.603 16.9379 100.921 16.0562Z" fill="#46587D"/>
</svg>
