<svg width="130" height="48" viewBox="0 0 130 48" fill="none" xmlns="http://www.w3.org/2000/svg">
<g clip-path="url(#clip0_125_1280)" filter="url(#filter0_d_125_1280)">
<path d="M27.6156 30.8941L19.7627 39.0094C18.6989 40.1089 16.9685 40.1089 15.9046 39.0094L8.05173 30.8941C6.11708 28.8948 4.79957 26.3475 4.2658 23.5743C3.73204 20.8012 4.00601 17.9267 5.05305 15.3144C6.1001 12.7022 7.87319 10.4694 10.1481 8.89857C12.4231 7.3277 15.0977 6.48926 17.8337 6.48926C20.5697 6.48926 23.2443 7.3277 25.5192 8.89857C27.7941 10.4694 29.5673 12.7022 30.6143 15.3144C31.6613 17.9267 31.9353 20.8012 31.4015 23.5743C30.8678 26.3475 29.5503 28.8948 27.6156 30.8941Z" fill="#46587D"/>
<path d="M22.8981 17.0988C22.8981 19.9751 20.6306 22.307 17.8334 22.307C15.0362 22.307 12.7686 19.9751 12.7686 17.0988C12.7686 14.2224 15.0362 11.8906 17.8334 11.8906C20.6306 11.8906 22.8981 14.2224 22.8981 17.0988Z" fill="#46587D"/>
<path fill-rule="evenodd" clip-rule="evenodd" d="M17.8334 19.7945C19.2811 19.7945 20.4548 18.5876 20.4548 17.0988C20.4548 15.61 19.2811 14.4031 17.8334 14.4031C16.3855 14.4031 15.2119 15.61 15.2119 17.0988C15.2119 18.5876 16.3855 19.7945 17.8334 19.7945ZM17.8334 22.307C20.6306 22.307 22.8981 19.9751 22.8981 17.0988C22.8981 14.2224 20.6306 11.8906 17.8334 11.8906C15.0362 11.8906 12.7686 14.2224 12.7686 17.0988C12.7686 19.9751 15.0362 22.307 17.8334 22.307Z" fill="white"/>
<path fill-rule="evenodd" clip-rule="evenodd" d="M11.0127 23.2224L11.5834 23.8083C12.5626 24.8138 14.3896 26.0443 16.6177 26.4008C18.8066 26.7512 21.4341 26.269 24.1158 23.7796L24.7138 23.2245L25.7713 24.4801L25.1732 25.0352C22.1329 27.8575 19.0285 28.482 16.3771 28.0577C13.765 27.6397 11.6434 26.2143 10.4671 25.0065L9.89648 24.4206L11.0127 23.2224Z" fill="white"/>
<path d="M46.7158 20.7977C47.0433 20.9067 47.379 21.019 47.7178 21.1355C50.7789 22.1564 54.0452 23.5792 54.0452 27.5496C54.0452 31.3669 50.9891 33.8326 46.2596 33.8326C44.0026 33.8326 41.9689 33.2451 40.4119 32.1612C38.8547 31.0773 37.8834 29.5758 37.6018 27.8245L37.563 27.5853L41.5659 25.7407L41.6118 26.1709C41.8537 28.4898 43.7005 29.9871 46.3168 29.9871C48.2984 29.9871 49.6841 29.0763 49.6841 27.7711C49.6841 26.2344 47.6995 25.568 45.4005 24.796L45.3985 24.7954L44.9107 24.6306C41.4905 23.4691 38.4201 22.1145 38.4201 18.356C38.4201 16.5565 39.1353 15.055 40.4894 14.0163C41.7935 13.0132 43.6179 12.4885 45.773 12.4885C47.6045 12.4885 49.2912 12.8893 50.6514 13.6511C52.1391 14.4811 53.1982 15.694 53.7992 17.2574L53.9013 17.525L50.0953 19.4944L50.0014 19.1136C49.5555 17.3036 47.9647 16.2229 45.7464 16.2229C43.9526 16.2229 42.7006 17.0088 42.7006 18.1336C42.7006 19.4619 44.5607 20.081 46.7158 20.7977Z" fill="#46587D"/>
<path d="M60.1535 30.0946C59.5421 30.0946 59.1949 29.6375 59.1949 28.5554V20.7208H62.3897V17.0576H59.1949V15.1672H55.0903V28.7099C55.0903 30.2512 55.5301 31.545 56.3617 32.4503C57.1934 33.3557 58.3784 33.833 59.788 33.833C60.1225 33.833 60.4649 33.8253 60.7872 33.8181C60.9012 33.8155 61.0126 33.8131 61.1202 33.811C61.4376 33.8049 62.3897 33.7943 62.3897 33.7943V30.0946H60.1535Z" fill="#46587D"/>
<path fill-rule="evenodd" clip-rule="evenodd" d="M70.5004 16.7825C66.0323 16.7825 62.3896 20.6065 62.3896 25.3076C62.3896 30.0087 66.0281 33.8327 70.5004 33.8327C74.9726 33.8327 78.6111 30.0077 78.6111 25.3076C78.6111 20.6075 74.9726 16.7825 70.5004 16.7825ZM70.5004 29.9617C68.1029 29.9617 66.153 27.8733 66.153 25.3076C66.153 22.7419 68.1029 20.6524 70.5004 20.6524C72.898 20.6524 74.8467 22.7409 74.8467 25.3076C74.8467 27.8743 72.8969 29.9617 70.5004 29.9617Z" fill="#46587D"/>
<path fill-rule="evenodd" clip-rule="evenodd" d="M79.6558 25.3076C79.6558 20.6065 83.2984 16.7825 87.7665 16.7825C92.2387 16.7825 95.8772 20.6075 95.8772 25.3076C95.8772 30.0077 92.2387 33.8327 87.7665 33.8327C83.2943 33.8327 79.6558 30.0087 79.6558 25.3076ZM87.7665 29.9617C90.1631 29.9617 92.1138 27.8743 92.1138 25.3076C92.1138 22.7409 90.1631 20.6524 87.7665 20.6524C85.3699 20.6524 83.4202 22.7419 83.4202 25.3076C83.4202 27.8733 85.3699 29.9617 87.7665 29.9617Z" fill="#46587D"/>
<path fill-rule="evenodd" clip-rule="evenodd" d="M117.89 16.7842C113.423 16.7842 109.78 20.6081 109.78 25.3093C109.78 30.0104 113.419 33.8344 117.89 33.8344C122.363 33.8344 126 30.0094 126 25.3093C126 20.6092 122.363 16.7842 117.89 16.7842ZM122.237 25.3093C122.237 27.876 120.287 29.9634 117.89 29.9634C115.494 29.9634 113.545 27.876 113.545 25.3093C113.545 22.7425 115.494 20.6542 117.891 20.6542C120.289 20.6542 122.237 22.7425 122.237 25.3093Z" fill="#46587D"/>
<path d="M104.921 22.0562L106.691 17.0574H111.199L104.954 33.5577H100.688L94.4443 17.0574H98.9514L100.722 22.0562C101.04 22.9379 102.023 26.1635 102.483 27.6715C102.611 28.0929 102.699 28.3803 102.72 28.4447H102.923C102.944 28.3802 103.032 28.0928 103.16 27.6712C103.62 26.1631 104.603 22.9379 104.921 22.0562Z" fill="#46587D"/>
</g>
<defs>
<filter id="filter0_d_125_1280" x="0" y="0" width="130" height="55" filterUnits="userSpaceOnUse" color-interpolation-filters="sRGB">
<feFlood flood-opacity="0" result="BackgroundImageFix"/>
<feColorMatrix in="SourceAlpha" type="matrix" values="0 0 0 0 0 0 0 0 0 0 0 0 0 0 0 0 0 0 127 0" result="hardAlpha"/>
<feOffset dy="4"/>
<feGaussianBlur stdDeviation="2"/>
<feComposite in2="hardAlpha" operator="out"/>
<feColorMatrix type="matrix" values="0 0 0 0 0 0 0 0 0 0 0 0 0 0 0 0 0 0 0.25 0"/>
<feBlend mode="normal" in2="BackgroundImageFix" result="effect1_dropShadow_125_1280"/>
<feBlend mode="normal" in="SourceGraphic" in2="effect1_dropShadow_125_1280" result="shape"/>
</filter>
<clipPath id="clip0_125_1280">
<rect width="122" height="47" fill="white" transform="translate(4)"/>
</clipPath>
</defs>
</svg>
