<svg width="122" height="47" viewBox="0 0 122 47" fill="none" xmlns="http://www.w3.org/2000/svg">
<path d="M82.3 15.613C80.142 15.613 78.478 16.382 76.934 17.987V15.987H72.696V35.667H77.256V24.253C77.256 21.64 78.812 19.987 81.173 19.987C81.602 19.987 81.978 20.04 82.246 20.093L85.411 15.933C84.177 15.72 83.105 15.613 82.3 15.613ZM121.625 15.987H116.367L111.512 22.406L106.657 15.986H101.399L108.817 25.903L101.399 35.667H106.764L111.485 29.441L116.206 35.667H121.625L114.157 25.919L121.625 15.987ZM25.86 11.56C24.304 13.64 23.928 14.333 22.426 14.333H0V41H8.799C10.784 41 12.715 40.04 13.949 38.44C15.559 36.307 15.773 35.667 17.329 35.667H39.809V9H30.956C28.971 9 27.04 9.96 25.859 11.56H25.86ZM32.834 28.787H23.445C21.406 28.787 19.529 29.64 18.295 31.293C16.685 33.427 16.363 34.067 14.861 34.067H6.921V21.267H16.31C18.348 21.267 20.226 20.307 21.46 18.707C23.07 16.627 23.499 15.987 24.947 15.987H32.834V28.787ZM66.526 22.227C68.512 21.107 69.906 19.133 69.906 16.52C69.906 12.68 66.956 9 62.664 9H49.788V35.667H62.664C67.331 35.667 70.55 32.36 70.55 28.2C70.55 25.747 69.424 23.613 66.526 22.227ZM54.348 13.16H62.288C64.273 13.16 65.453 15.027 65.453 16.68C65.453 18.707 63.683 20.093 62.02 20.093H54.348V13.16ZM62.02 31.507H54.348V24.253H62.288C64.327 24.253 65.99 26.013 65.99 27.827C65.99 29.853 63.898 31.507 62.02 31.507Z" fill="black"/>
<path d="M96.8388 30.013C96.0878 31.187 94.6388 31.88 93.0288 31.88C90.5088 31.88 88.4158 30.173 88.4158 27.56H102.043C102.258 26.76 102.311 26.387 102.311 25.693C102.311 19.72 98.6088 15.613 93.0298 15.613C87.5568 15.613 83.6948 19.507 83.6948 25.853C83.6948 32.04 87.3958 36.04 93.1368 36.04C97.1608 36.04 100.702 34.067 101.721 30.013H96.8388ZM93.0288 19.773C95.5508 19.773 97.4828 21.373 97.4288 23.773H88.4688C88.4688 21.427 90.5088 19.773 93.0288 19.773Z" fill="black"/>
</svg>
