<svg width="162" height="47" viewBox="0 0 162 47" fill="none" xmlns="http://www.w3.org/2000/svg">
<path d="M18.8496 11.8957V25.8831C18.8496 28.0616 22.2324 28.0645 22.2324 25.8831V11.8957C22.2324 9.71717 18.8496 9.71436 18.8496 11.8957Z" fill="#121212"/>
<path d="M13 23.8228C13 27.0498 13.4102 30.0913 15.391 32.7729C17.9702 36.2586 22.2464 38.2403 26.5816 37.7877C30.2313 37.4083 32.8891 35.4687 35.3869 32.9697L40.8853 27.4686C42.4277 25.9254 40.0339 23.5304 38.4915 25.0737L34.249 29.3182C32.5576 31.0105 30.9365 32.9782 28.6466 33.858C25.0981 35.2241 21.0748 34.1981 18.5686 31.3534C16.6778 29.2058 16.3856 26.6394 16.3856 23.9184V16.7785C16.3856 14.6 13.0028 14.5972 13.0028 16.7785H13V23.8228Z" fill="#121212"/>
<path d="M24.6992 8.63494V22.6224C24.6992 24.8009 28.0819 24.8037 28.0819 22.6224V8.63494C28.0819 6.45643 24.6992 6.45361 24.6992 8.63494Z" fill="#121212"/>
<path d="M30.5488 11.8957V25.8831C30.5488 28.0616 33.9316 28.0645 33.9316 25.8831V11.8957C33.9316 9.71717 30.5488 9.71436 30.5488 11.8957Z" fill="#121212"/>
<path d="M61.4806 19.0754C60.346 17.953 58.8531 17.3766 57.0318 17.3766C54.9716 17.3766 53.3593 18.1956 52.2247 19.8034V11.8555H49V33.0906H52.2247V25.2336C52.2247 23.6864 52.583 22.473 53.2996 21.5629C54.0161 20.6529 55.0313 20.1978 56.3152 20.1978C57.5095 20.1978 58.4053 20.5922 59.0323 21.3506C59.6593 22.1393 59.9877 23.2617 59.9877 24.7179V33.0906H63.2124V24.5358C63.2124 22.0483 62.6152 20.2282 61.4806 19.0754Z" fill="#121212"/>
<path d="M68.265 11.9162C67.8769 11.5522 67.3992 11.3398 66.8617 11.3398C66.2944 11.3398 65.8167 11.5522 65.4584 11.9162C65.0702 12.2803 64.8911 12.7656 64.8911 13.3117C64.8911 13.8881 65.0702 14.3734 65.4584 14.7375C65.8167 15.1015 66.2944 15.2835 66.8617 15.2835C67.3992 15.2835 67.8769 15.1015 68.265 14.7375C68.6233 14.3734 68.8323 13.8881 68.8323 13.3117C68.8323 12.7656 68.6233 12.2803 68.265 11.9162ZM65.2494 17.5587V33.0907H68.474V17.5587H65.2494Z" fill="#121212"/>
<path d="M85.5786 17.5585H82.772L82.4137 19.9854C81.8762 19.1966 81.2193 18.5596 80.3833 18.0742C79.5473 17.6192 78.5321 17.3765 77.3975 17.3765C76.0241 17.3765 74.77 17.7102 73.6951 18.3776C72.5904 19.045 71.7245 19.955 71.0975 21.1381C70.4705 22.3516 70.1719 23.7167 70.1719 25.2638C70.1719 26.9019 70.4705 28.2974 71.0975 29.4805C71.6946 30.6636 72.5605 31.5737 73.6653 32.2107C74.7402 32.8478 75.9942 33.1511 77.3975 33.1511C79.607 33.1511 81.2492 32.3017 82.3838 30.6029V32.3321C82.3838 35.2443 80.9208 36.6701 77.9947 36.6701C76.8601 36.6701 75.9345 36.4577 75.2179 35.9724C74.5013 35.487 74.0236 34.8196 73.8444 33.9399H70.56C70.6795 35.669 71.3961 37.0038 72.7098 37.9442C73.9937 38.8846 75.6658 39.3396 77.7558 39.3396C80.4132 39.3396 82.3838 38.7633 83.6677 37.5498C84.9217 36.3364 85.5786 34.6376 85.5786 32.4534V17.5585ZM81.1596 28.9951C80.3236 29.9355 79.2487 30.3906 77.935 30.3906C76.5914 30.3906 75.5165 29.9355 74.7103 28.9648C73.8743 28.0244 73.4861 26.7806 73.4861 25.2638C73.4861 23.747 73.8743 22.5336 74.7103 21.5628C75.5165 20.6224 76.5914 20.137 77.935 20.137C79.2487 20.137 80.3236 20.6224 81.1596 21.5932C81.9658 22.5639 82.3838 23.8077 82.3838 25.3245C82.3838 26.8413 81.9658 28.0547 81.1596 28.9951Z" fill="#121212"/>
<path d="M100.315 19.0754C99.18 17.953 97.6871 17.3766 95.8658 17.3766C93.8056 17.3766 92.1932 18.1956 91.0586 19.8034V11.8555H87.834V33.0906H91.0586V25.2336C91.0586 23.6864 91.4169 22.473 92.1335 21.5629C92.8501 20.6529 93.8653 20.1978 95.1492 20.1978C96.3435 20.1978 97.2392 20.5922 97.8662 21.3506C98.4933 22.1393 98.8217 23.2617 98.8217 24.7179V33.0906H102.046V24.5358C102.046 22.0483 101.449 20.2282 100.315 19.0754Z" fill="#121212"/>
<path d="M114.444 14.7375C114.802 15.1015 115.28 15.2835 115.877 15.2835C116.415 15.2835 116.892 15.1015 117.251 14.7375C117.609 14.3734 117.818 13.8881 117.818 13.3117C117.818 12.7656 117.609 12.2803 117.251 11.9162C116.892 11.5522 116.415 11.3398 115.877 11.3398C115.31 11.3398 114.832 11.5522 114.474 11.9162C114.086 12.2803 113.907 12.7656 113.907 13.3117C113.907 13.8881 114.086 14.3734 114.444 14.7375ZM117.489 33.0907V17.5587H108.323V16.2543C108.323 15.7385 108.413 15.3442 108.651 15.1015C108.89 14.8588 109.249 14.7375 109.786 14.7375H112.055V11.8556H109.338C107.875 11.8556 106.8 12.2196 106.114 12.9173C105.397 13.615 105.068 14.6465 105.068 16.0116V17.5587H102.411V20.4406H105.068V33.0907H108.323V20.4406H114.235V33.0907H117.489Z" fill="#121212"/>
<path d="M118.197 17.5586L123.841 33.0906H127.782L133.425 17.5586H130.021L125.871 29.5716L121.661 17.5586H118.197Z" fill="#121212"/>
<path d="M133.937 21.1685C133.31 22.3819 133.011 23.7773 133.011 25.3548C133.011 26.9323 133.31 28.3277 133.967 29.5108C134.624 30.7243 135.519 31.6343 136.714 32.3017C137.908 32.9691 139.281 33.2725 140.894 33.2725C142.715 33.2725 144.238 32.7871 145.462 31.7557C146.686 30.7546 147.433 29.4502 147.731 27.8727H144.507C144.268 28.7524 143.82 29.4198 143.163 29.9052C142.476 30.3906 141.64 30.6029 140.655 30.6029C139.401 30.6029 138.386 30.2085 137.639 29.4198C136.863 28.6311 136.445 27.5693 136.385 26.2042V26.0222H147.91C147.97 25.5975 148 25.2031 148 24.7784C147.97 23.292 147.642 21.9875 146.985 20.8651C146.328 19.773 145.462 18.8933 144.327 18.2866C143.193 17.6798 141.909 17.3765 140.446 17.3765C138.983 17.3765 137.699 17.7102 136.564 18.3776C135.43 19.045 134.564 19.955 133.937 21.1685ZM144.716 23.6257H136.505C136.624 22.5336 137.042 21.6842 137.818 21.0168C138.595 20.3494 139.49 20.0157 140.565 20.0157C141.7 20.0157 142.625 20.3494 143.372 20.9864C144.118 21.6235 144.566 22.5032 144.716 23.6257Z" fill="#121212"/>
<path d="M38.0869 22.4845C37.6036 22.4845 37.2019 22.3243 36.8788 22.0011C36.5557 21.6778 36.3955 21.2843 36.3955 20.8176C36.3955 20.351 36.5557 19.9547 36.8788 19.6314C37.2019 19.3081 37.6036 19.1479 38.0869 19.1479C38.5701 19.1479 38.9719 19.3081 39.295 19.6314C39.6181 19.9547 39.7783 20.3482 39.7783 20.8176C39.7783 21.2871 39.6181 21.6834 39.295 22.0011C38.9719 22.3243 38.5701 22.4845 38.0869 22.4845ZM39 21.7228C39.236 21.481 39.3568 21.1803 39.3568 20.8176C39.3568 20.455 39.236 20.1542 39 19.9097C38.7584 19.6679 38.455 19.5471 38.0869 19.5471C37.7188 19.5471 37.421 19.6679 37.1822 19.9097C36.9462 20.1571 36.8254 20.455 36.8254 20.8176C36.8254 21.1803 36.9462 21.481 37.1822 21.7228C37.4182 21.9701 37.7245 22.091 38.0869 22.091C38.4493 22.091 38.7584 21.9701 39 21.7228ZM37.2215 20.8176C37.2215 20.2414 37.5671 19.8731 38.0981 19.8731C38.5673 19.8731 38.882 20.1458 38.9298 20.5815H38.483C38.4521 20.3623 38.3089 20.2442 38.0981 20.2442C37.8256 20.2442 37.6683 20.4466 37.6683 20.8176C37.6683 21.1887 37.8256 21.3855 38.0981 21.3855C38.3117 21.3855 38.4662 21.2702 38.4971 21.0369H38.9354C38.8961 21.481 38.5673 21.7621 38.0981 21.7621C37.5643 21.7621 37.2215 21.3911 37.2215 20.8176Z" fill="#121212"/>
</svg>
