<svg width="136" height="33" viewBox="0 0 136 33" fill="none" xmlns="http://www.w3.org/2000/svg">
<path d="M6.22849 4.89568V18.8831C6.22849 21.0616 9.61124 21.0645 9.61124 18.8831V4.89568C9.61124 2.71717 6.22849 2.71436 6.22849 4.89568Z" fill="white"/>
<path d="M0.378906 16.8227C0.378906 20.0497 0.789107 23.0912 2.76987 25.7728C5.34908 29.2585 9.62529 31.2402 13.9605 30.7876C17.6102 30.4082 20.268 28.4686 22.7658 25.9696L28.2642 20.4685C29.8066 18.9253 27.4128 16.5303 25.8704 18.0736L21.6279 22.3181C19.9365 24.0104 18.3154 25.9781 16.0255 26.8579C12.477 28.224 8.45369 27.198 5.94753 24.3533C4.05667 22.2057 3.76447 19.6393 3.76447 16.9183V9.77835C3.76447 7.59984 0.381716 7.59703 0.381716 9.77835H0.378906V16.8227Z" fill="white"/>
<path d="M12.0781 1.63494V15.6224C12.0781 17.8009 15.4608 17.8037 15.4608 15.6224V1.63494C15.4608 -0.543574 12.0781 -0.546385 12.0781 1.63494Z" fill="white"/>
<path d="M17.9276 4.89568V18.8831C17.9276 21.0616 21.3104 21.0645 21.3104 18.8831V4.89568C21.3104 2.71717 17.9276 2.71436 17.9276 4.89568Z" fill="white"/>
<path d="M25.4658 15.4846C24.9825 15.4846 24.5808 15.3244 24.2577 15.0012C23.9346 14.6779 23.7744 14.2844 23.7744 13.8177C23.7744 13.3511 23.9346 12.9548 24.2577 12.6315C24.5808 12.3082 24.9825 12.148 25.4658 12.148C25.949 12.148 26.3508 12.3082 26.6739 12.6315C26.997 12.9548 27.1572 13.3483 27.1572 13.8177C27.1572 14.2872 26.997 14.6835 26.6739 15.0012C26.3508 15.3244 25.949 15.4846 25.4658 15.4846ZM26.3789 14.7229C26.6149 14.4811 26.7357 14.1804 26.7357 13.8177C26.7357 13.4551 26.6149 13.1543 26.3789 12.9098C26.1373 12.668 25.8339 12.5472 25.4658 12.5472C25.0977 12.5472 24.7999 12.668 24.5611 12.9098C24.3251 13.1572 24.2043 13.4551 24.2043 13.8177C24.2043 14.1804 24.3251 14.4811 24.5611 14.7229C24.7971 14.9702 25.1034 15.0911 25.4658 15.0911C25.8282 15.0911 26.1373 14.9702 26.3789 14.7229ZM24.6004 13.8177C24.6004 13.2415 24.946 12.8732 25.477 12.8732C25.9462 12.8732 26.2609 13.1459 26.3087 13.5816H25.8619C25.831 13.3624 25.6878 13.2443 25.477 13.2443C25.2045 13.2443 25.0472 13.4467 25.0472 13.8177C25.0472 14.1888 25.2045 14.3856 25.477 14.3856C25.6906 14.3856 25.8451 14.2703 25.876 14.037H26.3143C26.275 14.4811 25.9462 14.7622 25.477 14.7622C24.9432 14.7622 24.6004 14.3912 24.6004 13.8177Z" fill="white"/>
<path d="M48.8595 12.0755C47.7249 10.9531 46.232 10.3767 44.4107 10.3767C42.3505 10.3767 40.7382 11.1957 39.6036 12.8035V4.85555H36.3789V26.0907H39.6036V18.2337C39.6036 16.6865 39.9619 15.4731 40.6785 14.563C41.395 13.653 42.4102 13.1979 43.6941 13.1979C44.8884 13.1979 45.7842 13.5923 46.4112 14.3507C47.0382 15.1394 47.3666 16.2618 47.3666 17.718V26.0907H50.5913V17.5359C50.5913 15.0484 49.9941 13.2283 48.8595 12.0755Z" fill="white"/>
<path d="M55.6438 4.91623C55.2557 4.55219 54.778 4.33984 54.2405 4.33984C53.6732 4.33984 53.1955 4.55219 52.8372 4.91623C52.449 5.28025 52.2699 5.76563 52.2699 6.31167C52.2699 6.88806 52.449 7.37343 52.8372 7.73746C53.1955 8.10149 53.6732 8.28351 54.2405 8.28351C54.778 8.28351 55.2557 8.10149 55.6438 7.73746C56.0021 7.37343 56.2111 6.88806 56.2111 6.31167C56.2111 5.76563 56.0021 5.28025 55.6438 4.91623ZM52.6282 10.5587V26.0907H55.8528V10.5587H52.6282Z" fill="white"/>
<path d="M72.9575 10.5587H70.1509L69.7926 12.9856C69.2551 12.1968 68.5982 11.5598 67.7622 11.0744C66.9262 10.6194 65.911 10.3767 64.7764 10.3767C63.403 10.3767 62.1489 10.7104 61.074 11.3778C59.9693 12.0452 59.1034 12.9552 58.4764 14.1383C57.8494 15.3518 57.5508 16.7169 57.5508 18.264C57.5508 19.9021 57.8494 21.2976 58.4764 22.4807C59.0735 23.6638 59.9394 24.5739 61.0442 25.2109C62.1191 25.848 63.3731 26.1513 64.7764 26.1513C66.9859 26.1513 68.6281 25.3019 69.7627 23.6031V25.3323C69.7627 28.2445 68.2997 29.6703 65.3736 29.6703C64.239 29.6703 63.3134 29.4579 62.5968 28.9726C61.8802 28.4872 61.4025 27.8198 61.2233 26.9401H57.9389C58.0584 28.6692 58.775 30.004 60.0887 30.9444C61.3726 31.8848 63.0447 32.3398 65.1347 32.3398C67.7921 32.3398 69.7627 31.7635 71.0466 30.55C72.3006 29.3366 72.9575 27.6378 72.9575 25.4536V10.5587ZM68.5385 21.9953C67.7025 22.9357 66.6276 23.3908 65.3139 23.3908C63.9703 23.3908 62.8954 22.9357 62.0892 21.965C61.2532 21.0246 60.865 19.7808 60.865 18.264C60.865 16.7472 61.2532 15.5338 62.0892 14.563C62.8954 13.6226 63.9703 13.1372 65.3139 13.1372C66.6276 13.1372 67.7025 13.6226 68.5385 14.5934C69.3447 15.5641 69.7627 16.8079 69.7627 18.3247C69.7627 19.8415 69.3447 21.0549 68.5385 21.9953Z" fill="white"/>
<path d="M87.6936 12.0755C86.559 10.9531 85.0661 10.3767 83.2448 10.3767C81.1846 10.3767 79.5722 11.1957 78.4376 12.8035V4.85555H75.213V26.0907H78.4376V18.2337C78.4376 16.6865 78.7959 15.4731 79.5125 14.563C80.2291 13.653 81.2443 13.1979 82.5282 13.1979C83.7225 13.1979 84.6182 13.5923 85.2452 14.3507C85.8723 15.1394 86.2007 16.2618 86.2007 17.718V26.0907H89.4254V17.5359C89.4254 15.0484 88.8282 13.2283 87.6936 12.0755Z" fill="white"/>
<path d="M101.823 7.73746C102.181 8.10149 102.659 8.28351 103.256 8.28351C103.794 8.28351 104.271 8.10149 104.63 7.73746C104.988 7.37343 105.197 6.88806 105.197 6.31167C105.197 5.76563 104.988 5.28025 104.63 4.91623C104.271 4.55219 103.794 4.33984 103.256 4.33984C102.689 4.33984 102.211 4.55219 101.853 4.91623C101.465 5.28025 101.286 5.76563 101.286 6.31167C101.286 6.88806 101.465 7.37343 101.823 7.73746ZM104.868 26.0907V10.5587H95.7021V9.25425C95.7021 8.73854 95.7916 8.34418 96.0305 8.10149C96.2694 7.8588 96.6277 7.73746 97.1651 7.73746H99.4343V4.85555H96.7172C95.2542 4.85555 94.1793 5.21958 93.4926 5.91731C92.776 6.61503 92.4475 7.64645 92.4475 9.01157V10.5587H89.7902V13.4406H92.4475V26.0907H95.7021V13.4406H101.614V26.0907H104.868Z" fill="white"/>
<path d="M105.576 10.5587L111.22 26.0907H115.161L120.804 10.5587H117.4L113.25 22.5717L109.04 10.5587H105.576Z" fill="white"/>
<path d="M121.316 14.1687C120.689 15.3821 120.39 16.7775 120.39 18.355C120.39 19.9325 120.689 21.3279 121.346 22.511C122.003 23.7245 122.898 24.6345 124.093 25.3019C125.287 25.9693 126.66 26.2727 128.273 26.2727C130.094 26.2727 131.617 25.7873 132.841 24.7559C134.065 23.7548 134.812 22.4504 135.11 20.8729H131.886C131.647 21.7526 131.199 22.42 130.542 22.9054C129.855 23.3908 129.019 23.6031 128.034 23.6031C126.78 23.6031 125.765 23.2087 125.018 22.42C124.242 21.6313 123.824 20.5695 123.764 19.2044V19.0224H135.289C135.349 18.5977 135.379 18.2033 135.379 17.7786C135.349 16.2922 135.021 14.9877 134.364 13.8653C133.707 12.7732 132.841 11.8935 131.706 11.2868C130.572 10.68 129.288 10.3767 127.825 10.3767C126.362 10.3767 125.078 10.7104 123.943 11.3778C122.809 12.0452 121.943 12.9552 121.316 14.1687ZM132.095 16.6259H123.884C124.003 15.5338 124.421 14.6844 125.197 14.017C125.974 13.3496 126.869 13.0159 127.944 13.0159C129.079 13.0159 130.004 13.3496 130.751 13.9866C131.497 14.6237 131.945 15.5034 132.095 16.6259Z" fill="white"/>
</svg>
