<svg width="180" height="47" viewBox="0 0 180 47" fill="none" xmlns="http://www.w3.org/2000/svg">
<path d="M77.6936 14.2664C74.9461 14.2664 71.8213 15.5779 69.912 18.2036L69.9133 18.1986L69.912 18.1998L69.9133 14.6786H63.36V39.253H69.912V25.2699C69.912 22.7533 71.8069 20.0779 75.3156 20.0779C78.0269 20.0779 80.8329 22.0202 80.8329 25.2699V39.253H87.3861V24.0195C87.3861 18.3673 83.459 14.2664 77.6936 14.2664ZM133.962 14.6799L128.037 31.4191L122.113 14.6799H114.627L124.446 39.2463H131.627L141.446 14.6799H133.962ZM43.7962 22.0829C44.9121 20.5397 46.6898 19.6338 48.8367 19.6338C51.1982 19.6338 52.9897 21.0225 53.916 23.0724L42.467 27.9637C42.1544 25.4535 42.7781 23.4903 43.7962 22.0829ZM56.3859 31.6977C53.6279 33.7995 52.0522 34.3009 49.537 34.3009C47.2736 34.3009 45.5014 33.5773 44.2521 32.3083L61.0056 25.1515C60.6398 22.4846 59.6567 20.102 58.1443 18.2904C55.943 15.658 52.6848 14.2652 48.7178 14.2652C41.5122 14.2652 36.0788 19.7389 36.0788 26.9688C36.0788 34.3861 41.5251 39.6708 49.4402 39.6708C53.8748 39.6708 58.409 37.5066 60.5301 34.978L56.3859 31.6977ZM35.4542 33.0569H20.5602V7.32935H13.9175V39.253H35.4542V33.0569ZM153.214 20.0478C149.554 20.0478 146.896 22.9037 146.896 26.9663C146.896 30.8452 149.711 33.8847 153.301 33.8847C156.962 33.8847 159.618 30.9503 159.618 26.9663C159.618 23.0873 156.805 20.0478 153.214 20.0478ZM153.214 39.6673C146.047 39.6673 140.431 34.1692 140.431 26.9663C140.431 19.844 146.085 14.2652 153.301 14.2652C160.468 14.2652 166.082 19.7629 166.082 26.9663C166.082 34.0869 160.429 39.6673 153.214 39.6673ZM102.76 20.0478C99.1 20.0478 96.4441 22.9037 96.4441 26.9663C96.4441 30.8452 99.2577 33.8847 102.849 33.8847C106.508 33.8847 109.164 30.9503 109.164 26.9663C109.164 23.0873 106.351 20.0478 102.76 20.0478ZM102.76 39.6673C95.5929 39.6673 89.9787 34.1692 89.9787 26.9663C89.9787 19.844 95.6316 14.2652 102.849 14.2652C110.014 14.2652 115.63 19.7629 115.63 26.9663C115.63 34.0869 109.976 39.6673 102.76 39.6673Z" fill="#E60012"/>
</svg>
