<svg width="136" height="50" viewBox="0 0 136 50" fill="none" xmlns="http://www.w3.org/2000/svg">
<path d="M60.4533 31.3196H57.6836L53.3081 25.0795H51.1405V31.3593H48.8123V14.5867H55.3152C56.961 14.5867 58.2455 15.1034 59.0885 16.1367C59.9315 17.1304 60.3329 18.4022 60.3329 19.8728C60.3329 21.2639 59.9716 22.3768 59.2089 23.3705C58.4864 24.3641 57.3624 24.9205 55.8772 25L60.4533 31.3196ZM51.1806 16.6932V22.9333H55.2349C57.1617 22.9333 58.0448 21.5422 58.0448 19.7933C58.0448 18.0843 57.1617 16.6534 55.3152 16.6534H51.1806V16.6932Z" fill="#0044d4"/>
<path d="M72.4557 26.5103H63.1429C63.4238 28.3784 64.8689 29.6105 66.8359 29.6105C68.2408 29.6105 69.5254 28.9348 70.1275 27.8617C70.3684 27.9412 70.6895 28.1002 71.131 28.2592L72.0944 28.5771C71.131 30.5247 69.124 31.5978 66.7957 31.5978C65.1499 31.5978 63.745 31.0413 62.5809 29.9682C61.4569 28.8553 60.9351 27.4642 60.9351 25.6757C60.9351 23.8871 61.497 22.496 62.5809 21.4229C63.7048 20.31 65.1098 19.7933 66.7957 19.7933C68.4415 19.7933 69.8064 20.3498 70.8501 21.4229C71.9339 22.496 72.4959 23.9269 72.4959 25.6757C72.4557 26.0731 72.4557 26.3116 72.4557 26.5103ZM70.2479 24.7615C69.9669 22.8935 68.6021 21.7409 66.7556 21.7409C64.8288 21.7409 63.3837 22.9332 63.1429 24.7615H70.2479Z" fill="#0044d4"/>
<path d="M83.8962 31.3196V29.5707C83.1335 30.8426 81.568 31.558 79.8419 31.558C78.1961 31.558 76.8714 31.0016 75.7073 29.9285C74.5834 28.8156 74.0615 27.4245 74.0615 25.6757C74.0615 23.8871 74.6235 22.496 75.7073 21.4229C76.7912 20.3498 78.1961 19.7933 79.8018 19.7933C81.5279 19.7933 83.0934 20.469 83.8561 21.7409V13.8315H86.104V31.3593L83.8962 31.3196ZM77.3933 22.973C76.6707 23.6486 76.3496 24.5628 76.3496 25.6757C76.3496 26.7886 76.6707 27.7027 77.3933 28.4181C78.1158 29.1335 78.9989 29.4913 80.0426 29.4913C81.0863 29.4913 81.9694 29.1733 82.7321 28.4976C83.4948 27.7822 83.8561 26.868 83.8561 25.7154C83.8561 24.5231 83.4547 23.6486 82.692 22.973C81.9293 22.2973 81.0462 21.9793 80.0426 21.9793C78.9989 21.9396 78.1158 22.2576 77.3933 22.973Z" fill="#0044d4"/>
<path d="M89.3153 21.3832C90.4795 20.2703 91.8844 19.7536 93.6105 19.7536C95.2965 19.7536 96.7416 20.31 97.9057 21.3832C99.0698 22.4563 99.6318 23.8871 99.6318 25.636C99.6318 27.3848 99.0698 28.8156 97.8655 29.9285C96.7014 31.0414 95.2965 31.5581 93.6105 31.5581C91.9647 31.5581 90.5196 31.0016 89.3555 29.9285C88.1914 28.8554 87.6294 27.4245 87.6294 25.636C87.6294 23.8474 88.1914 22.4563 89.3153 21.3832ZM96.3 22.9333C95.5774 22.2576 94.6542 21.9396 93.6105 21.9396C92.5668 21.9396 91.6436 22.2576 90.8809 22.9333C90.1583 23.6089 89.797 24.5231 89.797 25.636C89.797 26.7886 90.1583 27.7027 90.8809 28.4181C91.6436 29.1336 92.5267 29.4515 93.6105 29.4515C94.6542 29.4515 95.5774 29.1336 96.3 28.4181C97.0627 27.7027 97.424 26.7886 97.424 25.636C97.424 24.5231 97.0225 23.6089 96.3 22.9333Z" fill="#0044d4"/>
<path d="M111.353 21.5421L109.667 22.973C108.945 22.2576 108.021 21.8999 106.938 21.8999C105.894 21.8999 104.971 22.2178 104.208 22.9332C103.445 23.6089 103.084 24.5231 103.084 25.6359C103.084 26.7488 103.445 27.7027 104.208 28.3784C104.971 29.0938 105.854 29.4515 106.938 29.4515C108.062 29.4515 108.945 29.0938 109.667 28.3386L111.393 29.7695C110.229 31.0016 108.784 31.6375 106.938 31.6375C105.252 31.6375 103.807 31.0811 102.642 30.008C101.438 28.8951 100.876 27.4642 100.876 25.7154C100.876 23.9666 101.438 22.5755 102.642 21.4627C103.847 20.3498 105.252 19.8331 106.938 19.8331C108.744 19.7536 110.229 20.3498 111.353 21.5421Z" fill="#0044d4"/>
<path d="M116.531 13.8315H114.283V31.3593H116.531V13.8315Z" fill="#0044d4"/>
<path d="M122.874 36.884H120.546L122.954 31.0414L118.378 19.9921H120.746L124.198 28.2592L127.611 19.9921H129.979L122.874 36.884Z" fill="#0044d4"/>
<path d="M36.6896 33.0684C35.8065 32.4722 34.8431 31.9158 33.8797 31.5183C35.5656 30.8029 37.1311 29.8092 38.3755 28.5374C40.8643 26.0732 42.4298 22.655 42.4298 18.9189C42.4298 15.1431 40.9045 11.7647 38.3755 9.3005C35.8867 6.79653 32.4747 5.28619 28.6612 5.28619H7.50657C7.22558 5.28619 6.94459 5.40543 6.78402 5.60416C6.58332 5.76314 6.46289 6.04136 6.46289 6.31958C6.46289 6.5978 6.58332 6.87602 6.78402 7.035C6.94459 7.23373 7.22558 7.35297 7.50657 7.35297C10.7179 7.35297 13.6483 8.66457 15.7758 10.7313C17.8631 12.8379 19.1878 15.7393 19.1878 18.9189C19.1878 22.0986 17.8631 25 15.7758 27.1065C13.6483 29.1733 10.7179 30.4849 7.50657 30.4849C7.38615 30.4849 7.34601 30.5247 7.22558 30.5247C6.78402 30.6439 6.46289 31.0016 6.46289 31.4786V31.5978C6.46289 32.1542 6.90445 32.5517 7.42629 32.5517H8.1087C10.4369 32.6709 12.6046 33.4261 14.3708 34.698C16.2976 36.0891 17.7828 37.9968 18.5857 40.2623C18.7061 40.6598 19.1477 40.938 19.5491 40.938H40.7439C41.065 40.938 41.3862 40.779 41.5467 40.5008C41.7474 40.2226 41.7876 39.9046 41.6671 39.5867C40.7037 36.9635 38.9777 34.698 36.6896 33.0684ZM17.2209 28.5374C19.7096 26.0732 21.2752 22.655 21.2752 18.9189C21.2752 15.1431 19.7498 11.7647 17.2209 9.3005C16.4582 8.54534 15.6152 7.86966 14.6919 7.31322H28.6612C31.8726 7.31322 34.8029 8.62483 36.9304 10.6916C39.0178 12.7981 40.3425 15.6995 40.3425 18.8792C40.3425 22.0588 39.0178 24.9603 36.9304 27.0668C34.8029 29.1336 31.8726 30.4452 28.6612 30.4452C28.581 30.4452 28.5408 30.4452 28.4605 30.4849H14.6518C15.5751 30.008 16.4582 29.3323 17.2209 28.5374ZM15.5349 33.0684C15.2941 32.9094 15.0131 32.7504 14.7722 32.5517H29.3035C31.6317 32.6709 33.7994 33.4261 35.5656 34.698C37.091 35.7711 38.3354 37.2019 39.1784 38.911H20.1913C19.2279 36.566 17.5821 34.5787 15.5349 33.0684Z" fill="#0044d4"/>
<path d="M25.45 18.9189C25.45 19.4754 25.8915 19.9126 26.4535 19.9126H36.6495C37.2115 19.9126 37.653 19.4754 37.653 18.9189C37.653 18.3625 37.2115 17.9253 36.6495 17.9253H26.4936C25.8915 17.9253 25.45 18.4022 25.45 18.9189Z" fill="#0044d4"/>
<path d="M24.7273 23.9667H34.9233C35.4853 23.9667 35.9268 23.5294 35.9268 22.973C35.9268 22.4166 35.4853 21.9794 34.9233 21.9794H24.7273C24.1653 21.9794 23.7238 22.4166 23.7238 22.973C23.6836 23.5294 24.1653 23.9667 24.7273 23.9667Z" fill="#0044d4"/>
<path d="M24.7273 15.8983H34.9233C35.4853 15.8983 35.9268 15.4611 35.9268 14.9047C35.9268 14.3482 35.4853 13.911 34.9233 13.911H24.7273C24.1653 13.911 23.7238 14.3482 23.7238 14.9047C23.6836 15.4213 24.1653 15.8983 24.7273 15.8983Z" fill="#0044d4"/>
</svg>
