<svg width="175" height="47" viewBox="0 0 175 47" fill="none" xmlns="http://www.w3.org/2000/svg">
<path d="M2.34995 24.9364V12.5476H0V24.9364C0 29.5448 2.34995 32.3913 7.47713 32.3913C12.4708 32.3913 14.9542 29.5448 14.9542 24.9364V12.5476H12.6043V24.9364C12.6043 28.7317 10.8685 30.2768 7.47713 30.2768C4.08572 30.2768 2.34995 28.7317 2.34995 24.9364Z" fill="#46587D"/>
<path fill-rule="evenodd" clip-rule="evenodd" d="M21.1762 20.4092V18.5116H19.0933V37.4878H21.2296V30.304H21.4966C22.2977 31.4696 23.713 32.3913 25.9027 32.3913C29.1073 32.3913 32.1248 29.8431 32.1248 25.2888C32.1248 20.7345 29.1073 18.1863 25.9027 18.1863C23.6329 18.1863 22.2176 19.1893 21.4432 20.4092H21.1762ZM29.9351 25.2888C29.9351 28.5419 28.1459 30.4394 25.5289 30.4394C22.9119 30.4394 21.1227 28.5419 21.1227 25.2888C21.1227 22.0358 22.9119 20.1381 25.5289 20.1381C28.1459 20.1381 29.9351 22.0358 29.9351 25.2888Z" fill="#46587D"/>
<path d="M37.3322 12.5476V32.066H35.1958V12.5476H37.3322Z" fill="#46587D"/>
<path fill-rule="evenodd" clip-rule="evenodd" d="M53.5946 25.2888C53.5946 21.0869 51.0043 18.1863 46.9988 18.1863C42.9931 18.1863 40.4028 21.0869 40.4028 25.2888C40.4028 29.4907 42.9931 32.3913 46.9988 32.3913C51.0043 32.3913 53.5946 29.4907 53.5946 25.2888ZM51.4049 25.2888C51.4049 28.5419 49.6691 30.4394 46.9988 30.4394C44.3283 30.4394 42.5925 28.5419 42.5925 25.2888C42.5925 22.0358 44.3283 20.1381 46.9988 20.1381C49.6691 20.1381 51.4049 22.0358 51.4049 25.2888Z" fill="#46587D"/>
<path fill-rule="evenodd" clip-rule="evenodd" d="M61.9535 18.1863C64.1432 18.1863 65.5585 19.108 66.3597 20.2737H66.6267L67.1608 18.5116H68.7631V32.0659H66.6801V30.1684H66.4131C65.6387 31.3883 64.2234 32.3913 61.9535 32.3913C58.7491 32.3913 55.7314 29.8431 55.7314 25.2888C55.7314 20.7345 58.7491 18.1863 61.9535 18.1863ZM62.3274 30.4394C64.9444 30.4394 66.7335 28.5419 66.7335 25.2888C66.7335 22.0358 64.9444 20.1381 62.3274 20.1381C59.7104 20.1381 57.9212 22.0358 57.9212 25.2888C57.9212 28.5419 59.7104 30.4394 62.3274 30.4394Z" fill="#46587D"/>
<path fill-rule="evenodd" clip-rule="evenodd" d="M82.4622 20.2736C81.6611 19.108 80.2458 18.1862 78.0561 18.1862C74.8515 18.1862 71.834 20.7345 71.834 25.2887C71.834 29.8431 74.8515 32.3913 78.0561 32.3913C80.3259 32.3913 81.7412 31.3883 82.5156 30.1683H82.7826V32.066H84.8655V12.5476H82.7292V20.2736H82.4622ZM82.836 25.2887C82.836 28.5418 81.0469 30.4394 78.4299 30.4394C75.8128 30.4394 74.0237 28.5418 74.0237 25.2887C74.0237 22.0358 75.8128 20.1381 78.4299 20.1381C81.0469 20.1381 82.836 22.0358 82.836 25.2887Z" fill="#46587D"/>
<path d="M94.6926 18.1863C98.4846 18.1863 100.14 20.3821 100.594 22.5779V22.9846H98.4044C98.1106 21.5749 97.3362 20.1923 94.6659 20.1923C91.862 20.1923 90.1262 22.0358 90.1262 25.2888C90.1262 28.5419 91.862 30.3852 94.6659 30.3852C97.3362 30.3852 98.2443 28.9756 98.5647 27.4575H100.754V27.8642C100.274 30.0871 98.6714 32.3913 94.6659 32.3913C90.5268 32.3913 87.9365 29.4907 87.9365 25.2888C87.9365 21.0869 90.5268 18.1863 94.6926 18.1863Z" fill="#46587D"/>
<path fill-rule="evenodd" clip-rule="evenodd" d="M113.118 20.2737C112.317 19.108 110.902 18.1863 108.712 18.1863C105.507 18.1863 102.49 20.7345 102.49 25.2888C102.49 29.8431 105.507 32.3913 108.712 32.3913C110.982 32.3913 112.397 31.3883 113.171 30.1684H113.438V32.0659H115.521V18.5116H113.919L113.385 20.2737H113.118ZM113.492 25.2888C113.492 28.5419 111.703 30.4394 109.086 30.4394C106.469 30.4394 104.679 28.5419 104.679 25.2888C104.679 22.0358 106.469 20.1381 109.086 20.1381C111.703 20.1381 113.492 22.0358 113.492 25.2888Z" fill="#46587D"/>
<path d="M121.61 18.5117V20.5449H121.877C122.305 19.325 123.346 18.4575 125.402 18.4575H126.604V20.4636H125.429C122.224 20.4636 121.664 22.334 121.664 24.7738V32.0662H119.527V18.5117H121.61Z" fill="#46587D"/>
<path fill-rule="evenodd" clip-rule="evenodd" d="M140.623 24.7466C140.623 21.0869 138.487 18.1863 134.348 18.1863C130.289 18.1863 127.805 21.0869 127.805 25.2888C127.805 29.4635 130.289 32.3913 134.454 32.3913C137.9 32.3913 139.928 30.3852 140.49 27.9996V27.593H138.353C137.98 29.1382 136.804 30.4394 134.401 30.4394C131.731 30.4394 130.156 28.5147 130.101 25.8852H140.623V24.7466ZM134.348 20.0839C136.965 20.0839 138.326 21.846 138.381 24.0418H130.101C130.209 21.7646 131.677 20.0839 134.348 20.0839Z" fill="#46587D"/>
<path d="M160.741 37.4879C168.616 37.4879 175 31.0233 175 23.0489C175 15.0744 168.616 8.60986 160.741 8.60986C152.866 8.60986 146.481 15.0744 146.481 23.0489C146.481 31.0233 152.866 37.4879 160.741 37.4879Z" fill="url(#paint0_radial_124_1192)"/>
<defs>
<radialGradient id="paint0_radial_124_1192" cx="0" cy="0" r="1" gradientUnits="userSpaceOnUse" gradientTransform="translate(180.093 23.0489) rotate(148.899) scale(27.9532 32.3791)">
<stop stop-color="#FFC700"/>
<stop offset="1" stop-color="#FFEDAB"/>
</radialGradient>
</defs>
</svg>
