<?xml version="1.0" encoding="utf-8"?>
<svg width="800px" height="800px" viewBox="0 0 24 24" fill="none" xmlns="http://www.w3.org/2000/svg">
  <defs>
    <linearGradient id="brandGradient" x1="0%" y1="0%" x2="100%" y2="100%">
      <stop offset="0%" style="stop-color:#4F46E5;stop-opacity:1" /> <!-- indigo-600 -->
      <stop offset="100%" style="stop-color:#9333EA;stop-opacity:1" /> <!-- purple-600 -->
    </linearGradient>
  </defs>
  <path d="M5 10a6 6 0 0 1 11.671-1.963A6 6 0 0 1 16 20H7a5 5 0 0 1-1.986-9.59A6.071 6.071 0 0 1 5 10zm6-4a4 4 0 0 0-3.903 4.879 1 1 0 0 1-.757 1.194A3.002 3.002 0 0 0 7 18h9a4 4 0 1 0-.08-8 1 1 0 0 1-1-.8A4.002 4.002 0 0 0 11 6z" fill="url(#brandGradient)"/>
</svg>