<svg width="206" height="47" viewBox="0 0 206 47" fill="none" xmlns="http://www.w3.org/2000/svg">
<path d="M73.8397 25.261C73.8397 21.0723 71.8134 18.8693 68.4617 18.9799C65.11 19.0906 63.8464 21.0404 63.8464 21.0404V11.6785H59.0776V34.3441H63.8464V26.7358C63.8464 25.588 64.0862 24.7231 64.5736 24.1491C65.0612 23.5753 65.7413 23.2882 66.6101 23.2882C67.4788 23.2882 68.1079 23.5194 68.4932 23.9818C68.8784 24.4441 69.0711 25.257 69.0711 26.4289V34.3441H73.8397V25.261Z" fill="#121212"/>
<path d="M85.6266 19.2871H90.4856L82.678 40.4422L77.9683 40.4701L80.5512 33.3281L74.7485 19.2871H79.6706L82.682 27.4494H82.6741L85.6266 19.2871Z" fill="#121212"/>
<path d="M101.3 18.9797C103.242 18.9797 104.858 19.7131 106.144 21.1797C107.429 22.6464 108.074 24.5315 108.074 26.8311C108.074 29.1308 107.421 31.0319 106.116 32.4667C104.811 33.9054 103.132 34.6228 101.088 34.6228C99.3858 34.6228 98.0492 34.0369 97.0782 32.8692H97.0192V40.4456H92.2505V19.2865H97.0192V20.9206H97.0506C98.1239 19.6293 99.543 18.9797 101.304 18.9797M100.121 30.4061C101.053 30.4061 101.811 30.0793 102.401 29.4216C102.987 28.7641 103.282 27.9032 103.282 26.8351C103.282 25.767 102.979 24.93 102.37 24.2645C101.76 23.5988 101.002 23.2641 100.09 23.2641C99.1774 23.2641 98.3834 23.6028 97.7661 24.2804C97.1489 24.9579 96.8384 25.8109 96.8384 26.8351C96.8384 27.8593 97.145 28.7641 97.7661 29.4216C98.3834 30.0793 99.1697 30.4061 100.121 30.4061Z" fill="#121212"/>
<path d="M124.719 26.68C124.719 27.2142 124.679 27.6844 124.597 28.0949H114.513C114.674 28.9159 115.075 29.5576 115.712 30.0199C116.349 30.4822 117.116 30.7134 118.004 30.7134C119.38 30.7134 120.575 30.1076 121.589 28.8961L124.109 31.7576C123.441 32.6185 122.541 33.312 121.405 33.838C120.269 34.3602 118.963 34.6233 117.485 34.6233C115.256 34.6233 113.416 33.8979 111.958 32.4511C110.499 31.0044 109.772 29.1191 109.772 26.7997C109.772 24.48 110.48 22.6467 111.899 21.18C113.314 19.7134 115.119 18.9761 117.304 18.9761C119.49 18.9761 121.247 19.6935 122.635 21.1322C124.023 22.5711 124.715 24.4163 124.715 26.6761M117.363 22.8261C116.632 22.8261 116.011 23.0374 115.496 23.4558C114.981 23.8783 114.651 24.4761 114.509 25.2572L120.068 25.2254C119.907 24.488 119.592 23.9022 119.125 23.4717C118.661 23.0413 118.071 22.8261 117.363 22.8261Z" fill="#121212"/>
<path d="M136.171 18.9797C136.253 18.9797 136.301 18.9917 136.324 19.0115V24.1847C136.041 24.1649 135.676 24.1528 135.231 24.1528C134.138 24.1528 133.297 24.4677 132.711 25.0934C132.126 25.7192 131.831 26.5442 131.831 27.5724V34.3478H127.062V19.2865H131.831V21.3192H131.862C132.994 19.7609 134.433 18.9797 136.175 18.9797" fill="#121212"/>
<path d="M145.72 34.6154C143.495 34.6154 141.655 33.8861 140.196 32.4315C138.742 30.9767 138.011 29.0995 138.011 26.8039C138.011 24.5083 138.75 22.5992 140.224 21.1444C141.702 19.6898 143.613 18.9604 145.96 18.9604C147.214 18.9604 148.413 19.2234 149.557 19.7456C150.701 20.2676 151.636 21.0129 152.364 21.9774L149.18 24.7154C148.389 23.7509 147.371 23.2688 146.113 23.2688C145.122 23.2688 144.324 23.5876 143.715 24.2212C143.11 24.8589 142.807 25.6999 142.807 26.744C142.807 27.7883 143.113 28.6731 143.731 29.3267C144.348 29.9843 145.162 30.3111 146.172 30.3111C147.367 30.3111 148.366 29.8607 149.176 28.9601L152.423 31.8216C151.734 32.6426 150.815 33.3122 149.663 33.8343C148.511 34.3565 147.194 34.6194 145.72 34.6194" fill="#121212"/>
<path d="M161.712 34.6154C159.346 34.6154 157.419 33.8861 155.933 32.4315C154.447 30.9767 153.705 29.0995 153.705 26.8039C153.705 24.5083 154.447 22.6271 155.933 21.1604C157.419 19.6938 159.346 18.9604 161.712 18.9604C164.079 18.9604 165.982 19.6898 167.48 21.1444C168.978 22.6031 169.725 24.4883 169.725 26.8039C169.725 29.1194 168.978 30.9767 167.48 32.4315C165.982 33.8861 164.06 34.6154 161.712 34.6154ZM161.712 30.339C162.621 30.339 163.387 30.0083 164.005 29.3386C164.622 28.6731 164.929 27.8281 164.929 26.7999C164.929 25.7716 164.626 24.9027 164.016 24.2452C163.411 23.5876 162.64 23.2607 161.709 23.2607C160.777 23.2607 159.982 23.5956 159.39 24.2611C158.791 24.9267 158.493 25.7756 158.493 26.7999C158.493 27.8242 158.796 28.6452 159.405 29.3228C160.011 30.0003 160.78 30.339 161.712 30.339Z" fill="#121212"/>
<path d="M181.192 18.9554C181.271 18.9554 181.323 18.9673 181.347 18.9873V24.1566C181.064 24.1365 180.697 24.1246 180.253 24.1246C179.16 24.1246 178.323 24.4355 177.733 25.0612C177.148 25.6869 176.853 26.5119 176.853 27.5362V34.3036H172.087V19.2623H176.853V21.2909H176.884C178.016 19.7326 179.452 18.9514 181.192 18.9514" fill="#121212"/>
<path d="M197.154 26.649C197.154 27.183 197.11 27.6534 197.033 28.0639H186.96C187.121 28.8849 187.522 29.5226 188.16 29.9849C188.796 30.4472 189.559 30.6784 190.451 30.6784C191.827 30.6784 193.019 30.0726 194.032 28.8649L196.553 31.7266C195.885 32.5873 194.983 33.281 193.852 33.803C192.719 34.325 191.415 34.5881 189.936 34.5881C187.711 34.5881 185.871 33.8667 184.412 32.42C182.958 30.9732 182.227 29.0921 182.227 26.7766C182.227 24.4609 182.934 22.6276 184.35 21.1609C185.765 19.6943 187.566 18.9609 189.752 18.9609C191.937 18.9609 193.69 19.6784 195.074 21.1131C196.459 22.5479 197.154 24.3933 197.154 26.649ZM189.811 22.803C189.084 22.803 188.463 23.0143 187.943 23.4327C187.428 23.8552 187.098 24.453 186.955 25.2341L192.507 25.2022C192.346 24.4649 192.031 23.879 191.568 23.4486C191.1 23.0183 190.514 22.803 189.806 22.803" fill="#121212"/>
<path d="M26.4688 27.6968H29.7831C30.3952 27.6968 30.8905 28.1969 30.8905 28.8152V33.1272C30.8905 33.9265 30.0833 34.4739 29.3541 34.1629C28.2351 33.6863 27.1043 33.1626 25.9697 32.5915C25.5954 32.4026 25.3574 32.0127 25.3574 31.5875V28.8112C25.3574 28.1929 25.8526 27.6929 26.4648 27.6929" fill="#006BF1"/>
<path d="M38.6327 20.5811H35.3183C34.7062 20.5811 34.2109 21.0811 34.2109 21.6994V29.1774C34.2109 29.7957 34.7062 30.2957 35.3183 30.2957H38.6327C39.2449 30.2957 39.7401 29.7957 39.7401 29.1774V21.6994C39.7401 21.0811 39.2449 20.5811 38.6327 20.5811Z" fill="#006BF1"/>
<path d="M38.6327 5.29224H35.3183C34.7062 5.29224 34.2109 5.79234 34.2109 6.41058V13.8886C34.2109 14.5069 34.7062 15.0069 35.3183 15.0069H38.6327C39.2449 15.0069 39.7401 14.5069 39.7401 13.8886V6.41058C39.7401 5.79234 39.2449 5.29224 38.6327 5.29224Z" fill="black"/>
<path d="M38.6327 5.29224H35.3183C34.7062 5.29224 34.2109 5.79234 34.2109 6.41058V13.8886C34.2109 14.5069 34.7062 15.0069 35.3183 15.0069H38.6327C39.2449 15.0069 39.7401 14.5069 39.7401 13.8886V6.41058C39.7401 5.79234 39.2449 5.29224 38.6327 5.29224Z" fill="#006BF1"/>
<path d="M29.786 13.1619H26.4717C25.8594 13.1619 25.3643 13.6619 25.3643 14.2802V21.7582C25.3643 22.3765 25.8594 22.8765 26.4717 22.8765H29.786C30.3982 22.8765 30.8934 22.3765 30.8934 21.7582V14.2802C30.8934 13.6619 30.3982 13.1619 29.786 13.1619Z" fill="#006BF1"/>
<path d="M21.0915 19.3691H17.7773C17.1651 19.3691 16.6699 19.8693 16.6699 20.4876V27.9656C16.6699 28.5838 17.1651 29.084 17.7773 29.084H21.0915C21.7037 29.084 22.1989 28.5838 22.1989 27.9656V20.4876C22.1989 19.8693 21.7037 19.3691 21.0915 19.3691Z" fill="#006BF1"/>
<path d="M21.0277 4.68433H17.8342C17.187 4.68433 16.6646 5.21199 16.6646 5.86568V13.2177C16.6646 13.8714 17.187 14.3991 17.8342 14.3991H21.0277C21.6749 14.3991 22.1975 13.8714 22.1975 13.2177V5.86568C22.1975 5.21199 21.6749 4.68433 21.0277 4.68433Z" fill="#006BF1"/>
<path d="M13.3313 17.1426C11.6624 17.2173 11.0308 17.6506 10.945 17.8238C10.8241 18.0758 10.9567 19.6077 13.8772 22.5021C16.6923 25.2939 20.8958 28.1568 25.7112 30.5629C29.3103 32.3625 32.9014 33.7289 36.1183 34.544C37.2062 34.8198 38.2512 35.0324 39.2377 35.1741C43.2889 35.7609 44.5757 34.9418 44.7005 34.6898C44.7159 34.6543 44.7315 34.5953 44.7315 34.5047C44.7315 34.0322 44.3651 32.7956 42.4934 30.7597V24.9632C43.2966 25.6326 44.0454 26.3021 44.7199 26.9716C49.4262 31.6379 49.36 34.7686 48.4748 36.5721C47.5898 38.3757 45.1684 40.3288 38.641 39.3797C34.305 38.7497 29.053 36.9738 23.8475 34.3708C18.6421 31.7679 14.0527 28.6294 10.9294 25.5342C7.68135 22.3131 6.70654 19.8203 6.70654 17.9971C6.70654 17.1781 6.90152 16.4968 7.17445 15.9375C7.86852 14.5238 9.51008 13.0196 13.3313 12.8936V17.1426Z" fill="#121212"/>
</svg>
