<svg width="84" height="36" viewBox="0 0 84 36" fill="none" xmlns="http://www.w3.org/2000/svg">
<path d="M8.5 18C8.5 16.6193 9.61929 15.5 11 15.5H29C30.3807 15.5 31.5 16.6193 31.5 18C31.5 19.3807 30.3807 20.5 29 20.5H11C9.61929 20.5 8.5 19.3807 8.5 18Z" fill="#B3B3B3" stroke="#B3B3B3"/>
<rect x="18" y="17" width="4" height="2" rx="1" fill="#010914"/>
<path d="M36.5 18C36.5 16.6193 37.6193 15.5 39 15.5H57C58.3807 15.5 59.5 16.6193 59.5 18C59.5 19.3807 58.3807 20.5 57 20.5H39C37.6193 20.5 36.5 19.3807 36.5 18Z" stroke="#B3B3B3"/>
<rect x="46" y="17" width="4" height="2" rx="1" fill="#B3B3B3"/>
</svg>
