<svg width="84" height="36" viewBox="0 0 84 36" fill="none" xmlns="http://www.w3.org/2000/svg">
<path d="M16.5 18C16.5 16.6193 17.6193 15.5 19 15.5H37C38.3807 15.5 39.5 16.6193 39.5 18C39.5 19.3807 38.3807 20.5 37 20.5H19C17.6193 20.5 16.5 19.3807 16.5 18Z" fill="#B3B3B3" stroke="#B3B3B3"/>
<rect x="26" y="17" width="4" height="2" rx="1" fill="#010914"/>
<path d="M44.5 18C44.5 16.6193 45.6193 15.5 47 15.5H65C66.3807 15.5 67.5 16.6193 67.5 18C67.5 19.3807 66.3807 20.5 65 20.5H47C45.6193 20.5 44.5 19.3807 44.5 18Z" stroke="#B3B3B3"/>
<rect x="54" y="17" width="4" height="2" rx="1" fill="#B3B3B3"/>
</svg>
