<svg width="84" height="36" viewBox="0 0 84 36" fill="none" xmlns="http://www.w3.org/2000/svg">
<path d="M30.5 18C30.5 16.6193 31.6193 15.5 33 15.5H51C52.3807 15.5 53.5 16.6193 53.5 18C53.5 19.3807 52.3807 20.5 51 20.5H33C31.6193 20.5 30.5 19.3807 30.5 18Z" fill="#010914" stroke="#010914"/>
<path d="M30.5 18C30.5 16.6193 31.6193 15.5 33 15.5H51C52.3807 15.5 53.5 16.6193 53.5 18C53.5 19.3807 52.3807 20.5 51 20.5H33C31.6193 20.5 30.5 19.3807 30.5 18Z" fill="#010914" stroke="#010914"/>
<rect x="40" y="17" width="4" height="2" rx="1" fill="white"/>
</svg>
