<svg width="84" height="38" viewBox="0 0 84 38" fill="none" xmlns="http://www.w3.org/2000/svg">
<rect x="8.25" y="8.25" width="19.5" height="21.5" rx="1.75" fill="white"/>
<rect x="14" y="12" width="8" height="8" rx="4" fill="#010914"/>
<rect opacity="0.4" x="12" y="22" width="12" height="4" rx="2" fill="#757575"/>
<rect x="8.25" y="8.25" width="19.5" height="21.5" rx="1.75" stroke="#B3B3B3" stroke-width="0.5"/>
<rect x="32.25" y="8.25" width="19.5" height="21.5" rx="1.75" fill="white"/>
<rect x="38" y="12" width="8" height="8" rx="4" fill="#010914"/>
<rect opacity="0.4" x="36" y="22" width="12" height="4" rx="2" fill="#757575"/>
<rect x="32.25" y="8.25" width="19.5" height="21.5" rx="1.75" stroke="#B3B3B3" stroke-width="0.5"/>
<rect x="56.25" y="8.25" width="19.5" height="21.5" rx="1.75" fill="white"/>
<rect x="62" y="12" width="8" height="8" rx="4" fill="#010914"/>
<rect opacity="0.4" x="60" y="22" width="12" height="4" rx="2" fill="#757575"/>
<rect x="56.25" y="8.25" width="19.5" height="21.5" rx="1.75" stroke="#B3B3B3" stroke-width="0.5"/>
</svg>
