<svg width="84" height="38" viewBox="0 0 84 38" fill="none" xmlns="http://www.w3.org/2000/svg">
<path d="M26.2051 8H9.79487C8.80359 8 8 8.80172 8 9.7907V28.2093C8 29.1983 8.80359 30 9.79487 30H26.2051C27.1964 30 28 29.1983 28 28.2093V9.7907C28 8.80172 27.1964 8 26.2051 8Z" fill="white"/>
<path d="M20 16C20 13.7909 18.2091 12 16 12C13.7909 12 12 13.7909 12 16C12 18.2091 13.7909 20 16 20C18.2091 20 20 18.2091 20 16Z" fill="#010914"/>
<path opacity="0.4" d="M22 22H14C12.8954 22 12 22.8954 12 24C12 25.1046 12.8954 26 14 26H22C23.1046 26 24 25.1046 24 24C24 22.8954 23.1046 22 22 22Z" fill="#757575"/>
<path d="M26.2051 8H9.79487C8.80359 8 8 8.80172 8 9.7907V28.2093C8 29.1983 8.80359 30 9.79487 30H26.2051C27.1964 30 28 29.1983 28 28.2093V9.7907C28 8.80172 27.1964 8 26.2051 8Z" stroke="#B3B3B3" stroke-width="0.5"/>
<path d="M74.2051 8H57.7949C56.8036 8 56 8.80172 56 9.7907V28.2093C56 29.1983 56.8036 30 57.7949 30H74.2051C75.1964 30 76 29.1983 76 28.2093V9.7907C76 8.80172 75.1964 8 74.2051 8Z" fill="white"/>
<path d="M68 16C68 13.7909 66.2091 12 64 12C61.7909 12 60 13.7909 60 16C60 18.2091 61.7909 20 64 20C66.2091 20 68 18.2091 68 16Z" fill="#010914"/>
<path opacity="0.4" d="M70 22H62C60.8954 22 60 22.8954 60 24C60 25.1046 60.8954 26 62 26H70C71.1046 26 72 25.1046 72 24C72 22.8954 71.1046 22 70 22Z" fill="#757575"/>
<path d="M74.2051 8H57.7949C56.8036 8 56 8.80172 56 9.7907V28.2093C56 29.1983 56.8036 30 57.7949 30H74.2051C75.1964 30 76 29.1983 76 28.2093V9.7907C76 8.80172 75.1964 8 74.2051 8Z" stroke="#B3B3B3" stroke-width="0.5"/>
<path d="M50.2051 8H33.7949C32.8036 8 32 8.80172 32 9.7907V28.2093C32 29.1983 32.8036 30 33.7949 30H50.2051C51.1964 30 52 29.1983 52 28.2093V9.7907C52 8.80172 51.1964 8 50.2051 8Z" fill="white"/>
<path d="M44 16C44 13.7909 42.2091 12 40 12C37.7909 12 36 13.7909 36 16C36 18.2091 37.7909 20 40 20C42.2091 20 44 18.2091 44 16Z" fill="#010914"/>
<path opacity="0.4" d="M46 22H38C36.8954 22 36 22.8954 36 24C36 25.1046 36.8954 26 38 26H46C47.1046 26 48 25.1046 48 24C48 22.8954 47.1046 22 46 22Z" fill="#757575"/>
<path d="M50.2051 8H33.7949C32.8036 8 32 8.80172 32 9.7907V28.2093C32 29.1983 32.8036 30 33.7949 30H50.2051C51.1964 30 52 29.1983 52 28.2093V9.7907C52 8.80172 51.1964 8 50.2051 8Z" stroke="#B3B3B3" stroke-width="0.5"/>
</svg>
