<svg width="84" height="64" viewBox="0 0 84 64" fill="none" xmlns="http://www.w3.org/2000/svg">
<path d="M26 34.25H10C9.0335 34.25 8.25 35.0335 8.25 36V54C8.25 54.9665 9.0335 55.75 10 55.75H26C26.9665 55.75 27.75 54.9665 27.75 54V36C27.75 35.0335 26.9665 34.25 26 34.25Z" fill="#010914"/>
<path d="M20 42C20 39.7909 18.2091 38 16 38C13.7909 38 12 39.7909 12 42C12 44.2091 13.7909 46 16 46C18.2091 46 20 44.2091 20 42Z" fill="#B3B3B3"/>
<path opacity="0.4" d="M22 48H14C12.8954 48 12 48.8954 12 50C12 51.1046 12.8954 52 14 52H22C23.1046 52 24 51.1046 24 50C24 48.8954 23.1046 48 22 48Z" fill="#757575"/>
<path d="M26 34.25H10C9.0335 34.25 8.25 35.0335 8.25 36V54C8.25 54.9665 9.0335 55.75 10 55.75H26C26.9665 55.75 27.75 54.9665 27.75 54V36C27.75 35.0335 26.9665 34.25 26 34.25Z" stroke="#757575" stroke-width="0.5"/>
<path d="M74 34.25H58C57.0335 34.25 56.25 35.0335 56.25 36V54C56.25 54.9665 57.0335 55.75 58 55.75H74C74.9665 55.75 75.75 54.9665 75.75 54V36C75.75 35.0335 74.9665 34.25 74 34.25Z" fill="#010914"/>
<path d="M68 42C68 39.7909 66.2091 38 64 38C61.7909 38 60 39.7909 60 42C60 44.2091 61.7909 46 64 46C66.2091 46 68 44.2091 68 42Z" fill="#B3B3B3"/>
<path opacity="0.4" d="M70 48H62C60.8954 48 60 48.8954 60 50C60 51.1046 60.8954 52 62 52H70C71.1046 52 72 51.1046 72 50C72 48.8954 71.1046 48 70 48Z" fill="#757575"/>
<path d="M74 34.25H58C57.0335 34.25 56.25 35.0335 56.25 36V54C56.25 54.9665 57.0335 55.75 58 55.75H74C74.9665 55.75 75.75 54.9665 75.75 54V36C75.75 35.0335 74.9665 34.25 74 34.25Z" stroke="#757575" stroke-width="0.5"/>
<path d="M50.2051 34H33.7949C32.8036 34 32 34.8017 32 35.7907V54.2093C32 55.1983 32.8036 56 33.7949 56H50.2051C51.1964 56 52 55.1983 52 54.2093V35.7907C52 34.8017 51.1964 34 50.2051 34Z" fill="#010914"/>
<path d="M44 42C44 39.7909 42.2091 38 40 38C37.7909 38 36 39.7909 36 42C36 44.2091 37.7909 46 40 46C42.2091 46 44 44.2091 44 42Z" fill="#B3B3B3"/>
<path opacity="0.4" d="M46 48H38C36.8954 48 36 48.8954 36 50C36 51.1046 36.8954 52 38 52H46C47.1046 52 48 51.1046 48 50C48 48.8954 47.1046 48 46 48Z" fill="#757575"/>
<path d="M50.2051 34H33.7949C32.8036 34 32 34.8017 32 35.7907V54.2093C32 55.1983 32.8036 56 33.7949 56H50.2051C51.1964 56 52 55.1983 52 54.2093V35.7907C52 34.8017 51.1964 34 50.2051 34Z" stroke="#757575" stroke-width="0.5"/>
<path d="M26.2051 8H9.79487C8.80359 8 8 8.80172 8 9.7907V28.2093C8 29.1983 8.80359 30 9.79487 30H26.2051C27.1964 30 28 29.1983 28 28.2093V9.7907C28 8.80172 27.1964 8 26.2051 8Z" fill="#010914"/>
<path d="M20 16C20 13.7909 18.2091 12 16 12C13.7909 12 12 13.7909 12 16C12 18.2091 13.7909 20 16 20C18.2091 20 20 18.2091 20 16Z" fill="#B3B3B3"/>
<path opacity="0.4" d="M22 22H14C12.8954 22 12 22.8954 12 24C12 25.1046 12.8954 26 14 26H22C23.1046 26 24 25.1046 24 24C24 22.8954 23.1046 22 22 22Z" fill="#757575"/>
<path d="M26.2051 8H9.79487C8.80359 8 8 8.80172 8 9.7907V28.2093C8 29.1983 8.80359 30 9.79487 30H26.2051C27.1964 30 28 29.1983 28 28.2093V9.7907C28 8.80172 27.1964 8 26.2051 8Z" stroke="#757575" stroke-width="0.5"/>
<path d="M74.2051 8H57.7949C56.8036 8 56 8.80172 56 9.7907V28.2093C56 29.1983 56.8036 30 57.7949 30H74.2051C75.1964 30 76 29.1983 76 28.2093V9.7907C76 8.80172 75.1964 8 74.2051 8Z" fill="#010914"/>
<path d="M68 16C68 13.7909 66.2091 12 64 12C61.7909 12 60 13.7909 60 16C60 18.2091 61.7909 20 64 20C66.2091 20 68 18.2091 68 16Z" fill="#B3B3B3"/>
<path opacity="0.4" d="M70 22H62C60.8954 22 60 22.8954 60 24C60 25.1046 60.8954 26 62 26H70C71.1046 26 72 25.1046 72 24C72 22.8954 71.1046 22 70 22Z" fill="#757575"/>
<path d="M74.2051 8H57.7949C56.8036 8 56 8.80172 56 9.7907V28.2093C56 29.1983 56.8036 30 57.7949 30H74.2051C75.1964 30 76 29.1983 76 28.2093V9.7907C76 8.80172 75.1964 8 74.2051 8Z" stroke="#757575" stroke-width="0.5"/>
<path d="M50.2051 8H33.7949C32.8036 8 32 8.80172 32 9.7907V28.2093C32 29.1983 32.8036 30 33.7949 30H50.2051C51.1964 30 52 29.1983 52 28.2093V9.7907C52 8.80172 51.1964 8 50.2051 8Z" fill="#010914"/>
<path d="M44 16C44 13.7909 42.2091 12 40 12C37.7909 12 36 13.7909 36 16C36 18.2091 37.7909 20 40 20C42.2091 20 44 18.2091 44 16Z" fill="#B3B3B3"/>
<path opacity="0.4" d="M46 22H38C36.8954 22 36 22.8954 36 24C36 25.1046 36.8954 26 38 26H46C47.1046 26 48 25.1046 48 24C48 22.8954 47.1046 22 46 22Z" fill="#757575"/>
<path d="M50.2051 8H33.7949C32.8036 8 32 8.80172 32 9.7907V28.2093C32 29.1983 32.8036 30 33.7949 30H50.2051C51.1964 30 52 29.1983 52 28.2093V9.7907C52 8.80172 51.1964 8 50.2051 8Z" stroke="#757575" stroke-width="0.5"/>
<path d="M26.2051 34H9.79487C8.80359 34 8 34.8017 8 35.7907V54.2093C8 55.1983 8.80359 56 9.79487 56H26.2051C27.1964 56 28 55.1983 28 54.2093V35.7907C28 34.8017 27.1964 34 26.2051 34Z" fill="#010914"/>
<path d="M20 42C20 39.7909 18.2091 38 16 38C13.7909 38 12 39.7909 12 42C12 44.2091 13.7909 46 16 46C18.2091 46 20 44.2091 20 42Z" fill="#B3B3B3"/>
<path opacity="0.4" d="M22 48H14C12.8954 48 12 48.8954 12 50C12 51.1046 12.8954 52 14 52H22C23.1046 52 24 51.1046 24 50C24 48.8954 23.1046 48 22 48Z" fill="#757575"/>
<path d="M26.2051 34H9.79487C8.80359 34 8 34.8017 8 35.7907V54.2093C8 55.1983 8.80359 56 9.79487 56H26.2051C27.1964 56 28 55.1983 28 54.2093V35.7907C28 34.8017 27.1964 34 26.2051 34Z" stroke="#757575" stroke-width="0.5"/>
<path d="M74.2051 34H57.7949C56.8036 34 56 34.8017 56 35.7907V54.2093C56 55.1983 56.8036 56 57.7949 56H74.2051C75.1964 56 76 55.1983 76 54.2093V35.7907C76 34.8017 75.1964 34 74.2051 34Z" fill="#010914"/>
<path d="M68 42C68 39.7909 66.2091 38 64 38C61.7909 38 60 39.7909 60 42C60 44.2091 61.7909 46 64 46C66.2091 46 68 44.2091 68 42Z" fill="#B3B3B3"/>
<path opacity="0.4" d="M70 48H62C60.8954 48 60 48.8954 60 50C60 51.1046 60.8954 52 62 52H70C71.1046 52 72 51.1046 72 50C72 48.8954 71.1046 48 70 48Z" fill="#757575"/>
<path d="M74.2051 34H57.7949C56.8036 34 56 34.8017 56 35.7907V54.2093C56 55.1983 56.8036 56 57.7949 56H74.2051C75.1964 56 76 55.1983 76 54.2093V35.7907C76 34.8017 75.1964 34 74.2051 34Z" stroke="#757575" stroke-width="0.5"/>
<path d="M50.2051 34H33.7949C32.8036 34 32 34.8017 32 35.7907V54.2093C32 55.1983 32.8036 56 33.7949 56H50.2051C51.1964 56 52 55.1983 52 54.2093V35.7907C52 34.8017 51.1964 34 50.2051 34Z" fill="#010914"/>
<path d="M44 42C44 39.7909 42.2091 38 40 38C37.7909 38 36 39.7909 36 42C36 44.2091 37.7909 46 40 46C42.2091 46 44 44.2091 44 42Z" fill="#B3B3B3"/>
<path opacity="0.4" d="M46 48H38C36.8954 48 36 48.8954 36 50C36 51.1046 36.8954 52 38 52H46C47.1046 52 48 51.1046 48 50C48 48.8954 47.1046 48 46 48Z" fill="#757575"/>
<path d="M50.2051 34H33.7949C32.8036 34 32 34.8017 32 35.7907V54.2093C32 55.1983 32.8036 56 33.7949 56H50.2051C51.1964 56 52 55.1983 52 54.2093V35.7907C52 34.8017 51.1964 34 50.2051 34Z" stroke="#757575" stroke-width="0.5"/>
</svg>
