<svg width="84" height="38" viewBox="0 0 84 38" fill="none" xmlns="http://www.w3.org/2000/svg">
<path d="M20.7436 8H9.25641C8.56251 8 8 8.80172 8 9.7907V28.2093C8 29.1983 8.56251 30 9.25641 30H20.7436C21.4375 30 22 29.1983 22 28.2093V9.7907C22 8.80172 21.4375 8 20.7436 8Z" fill="white"/>
<path d="M16 16C16 14.3431 14.6569 13 13 13C11.3431 13 10 14.3431 10 16C10 17.6569 11.3431 19 13 19C14.6569 19 16 17.6569 16 16Z" fill="#010914"/>
<path opacity="0.4" d="M18.3333 21H11.6667C10.7462 21 10 21.8954 10 23C10 24.1046 10.7462 25 11.6667 25H18.3333C19.2538 25 20 24.1046 20 23C20 21.8954 19.2538 21 18.3333 21Z" fill="#757575"/>
<path d="M20.7436 8H9.25641C8.56251 8 8 8.80172 8 9.7907V28.2093C8 29.1983 8.56251 30 9.25641 30H20.7436C21.4375 30 22 29.1983 22 28.2093V9.7907C22 8.80172 21.4375 8 20.7436 8Z" stroke="#B3B3B3" stroke-width="0.5"/>
<path d="M74.7436 8H63.2564C62.5625 8 62 8.80172 62 9.7907V28.2093C62 29.1983 62.5625 30 63.2564 30H74.7436C75.4375 30 76 29.1983 76 28.2093V9.7907C76 8.80172 75.4375 8 74.7436 8Z" fill="white"/>
<path d="M70 16C70 14.3431 68.6569 13 67 13C65.3431 13 64 14.3431 64 16C64 17.6569 65.3431 19 67 19C68.6569 19 70 17.6569 70 16Z" fill="#010914"/>
<path opacity="0.4" d="M72.3333 21H65.6667C64.7462 21 64 21.8954 64 23C64 24.1046 64.7462 25 65.6667 25H72.3333C73.2538 25 74 24.1046 74 23C74 21.8954 73.2538 21 72.3333 21Z" fill="#757575"/>
<path d="M74.7436 8H63.2564C62.5625 8 62 8.80172 62 9.7907V28.2093C62 29.1983 62.5625 30 63.2564 30H74.7436C75.4375 30 76 29.1983 76 28.2093V9.7907C76 8.80172 75.4375 8 74.7436 8Z" stroke="#B3B3B3" stroke-width="0.5"/>
<path d="M56.7436 8H45.2564C44.5625 8 44 8.80172 44 9.7907V28.2093C44 29.1983 44.5625 30 45.2564 30H56.7436C57.4375 30 58 29.1983 58 28.2093V9.7907C58 8.80172 57.4375 8 56.7436 8Z" fill="white"/>
<path d="M52 16C52 14.3431 50.6569 13 49 13C47.3431 13 46 14.3431 46 16C46 17.6569 47.3431 19 49 19C50.6569 19 52 17.6569 52 16Z" fill="#010914"/>
<path opacity="0.4" d="M54.3333 21H47.6667C46.7462 21 46 21.8954 46 23C46 24.1046 46.7462 25 47.6667 25H54.3333C55.2538 25 56 24.1046 56 23C56 21.8954 55.2538 21 54.3333 21Z" fill="#757575"/>
<path d="M56.7436 8H45.2564C44.5625 8 44 8.80172 44 9.7907V28.2093C44 29.1983 44.5625 30 45.2564 30H56.7436C57.4375 30 58 29.1983 58 28.2093V9.7907C58 8.80172 57.4375 8 56.7436 8Z" stroke="#B3B3B3" stroke-width="0.5"/>
<path d="M38.7436 8H27.2564C26.5625 8 26 8.80172 26 9.7907V28.2093C26 29.1983 26.5625 30 27.2564 30H38.7436C39.4375 30 40 29.1983 40 28.2093V9.7907C40 8.80172 39.4375 8 38.7436 8Z" fill="white"/>
<path d="M34 16C34 14.3431 32.6569 13 31 13C29.3431 13 28 14.3431 28 16C28 17.6569 29.3431 19 31 19C32.6569 19 34 17.6569 34 16Z" fill="#010914"/>
<path opacity="0.4" d="M36.3333 21H29.6667C28.7462 21 28 21.8954 28 23C28 24.1046 28.7462 25 29.6667 25H36.3333C37.2538 25 38 24.1046 38 23C38 21.8954 37.2538 21 36.3333 21Z" fill="#757575"/>
<path d="M38.7436 8H27.2564C26.5625 8 26 8.80172 26 9.7907V28.2093C26 29.1983 26.5625 30 27.2564 30H38.7436C39.4375 30 40 29.1983 40 28.2093V9.7907C40 8.80172 39.4375 8 38.7436 8Z" stroke="#B3B3B3" stroke-width="0.5"/>
</svg>
