<svg width="84" height="64" viewBox="0 0 84 64" fill="none" xmlns="http://www.w3.org/2000/svg">
<path d="M69.2336 8H45.7664C44.7908 8 44 8.80172 44 9.7907V28.2093C44 29.1983 44.7908 30 45.7664 30H69.2336C70.2092 30 71 29.1983 71 28.2093V9.7907C71 8.80172 70.2092 8 69.2336 8Z" fill="white"/>
<path d="M56 16C56 13.7909 54.2091 12 52 12C49.7909 12 48 13.7909 48 16C48 18.2091 49.7909 20 52 20C54.2091 20 56 18.2091 56 16Z" fill="#010914"/>
<path opacity="0.4" d="M65.25 22H50C48.8954 22 48 22.8954 48 24C48 25.1046 48.8954 26 50 26H65.25C66.3546 26 67.25 25.1046 67.25 24C67.25 22.8954 66.3546 22 65.25 22Z" fill="#757575"/>
<path d="M69.2336 8H45.7664C44.7908 8 44 8.80172 44 9.7907V28.2093C44 29.1983 44.7908 30 45.7664 30H69.2336C70.2092 30 71 29.1983 71 28.2093V9.7907C71 8.80172 70.2092 8 69.2336 8Z" stroke="#B3B3B3" stroke-width="0.5"/>
<path d="M38.2336 8H14.7664C13.7908 8 13 8.80172 13 9.7907V28.2093C13 29.1983 13.7908 30 14.7664 30H38.2336C39.2092 30 40 29.1983 40 28.2093V9.7907C40 8.80172 39.2092 8 38.2336 8Z" fill="white"/>
<path d="M25 16C25 13.7909 23.2091 12 21 12C18.7909 12 17 13.7909 17 16C17 18.2091 18.7909 20 21 20C23.2091 20 25 18.2091 25 16Z" fill="#010914"/>
<path opacity="0.4" d="M34.25 22H19C17.8954 22 17 22.8954 17 24C17 25.1046 17.8954 26 19 26H34.25C35.3546 26 36.25 25.1046 36.25 24C36.25 22.8954 35.3546 22 34.25 22Z" fill="#757575"/>
<path d="M38.2336 8H14.7664C13.7908 8 13 8.80172 13 9.7907V28.2093C13 29.1983 13.7908 30 14.7664 30H38.2336C39.2092 30 40 29.1983 40 28.2093V9.7907C40 8.80172 39.2092 8 38.2336 8Z" stroke="#B3B3B3" stroke-width="0.5"/>
<path d="M69.2336 34H45.7664C44.7908 34 44 34.8017 44 35.7907V54.2093C44 55.1983 44.7908 56 45.7664 56H69.2336C70.2092 56 71 55.1983 71 54.2093V35.7907C71 34.8017 70.2092 34 69.2336 34Z" fill="white"/>
<path d="M56 42C56 39.7909 54.2091 38 52 38C49.7909 38 48 39.7909 48 42C48 44.2091 49.7909 46 52 46C54.2091 46 56 44.2091 56 42Z" fill="#010914"/>
<path opacity="0.4" d="M65.25 48H50C48.8954 48 48 48.8954 48 50C48 51.1046 48.8954 52 50 52H65.25C66.3546 52 67.25 51.1046 67.25 50C67.25 48.8954 66.3546 48 65.25 48Z" fill="#757575"/>
<path d="M69.2336 34H45.7664C44.7908 34 44 34.8017 44 35.7907V54.2093C44 55.1983 44.7908 56 45.7664 56H69.2336C70.2092 56 71 55.1983 71 54.2093V35.7907C71 34.8017 70.2092 34 69.2336 34Z" stroke="#B3B3B3" stroke-width="0.5"/>
<path d="M38.2336 34H14.7664C13.7908 34 13 34.8017 13 35.7907V54.2093C13 55.1983 13.7908 56 14.7664 56H38.2336C39.2092 56 40 55.1983 40 54.2093V35.7907C40 34.8017 39.2092 34 38.2336 34Z" fill="white"/>
<path d="M25 42C25 39.7909 23.2091 38 21 38C18.7909 38 17 39.7909 17 42C17 44.2091 18.7909 46 21 46C23.2091 46 25 44.2091 25 42Z" fill="#010914"/>
<path opacity="0.4" d="M34.25 48H19C17.8954 48 17 48.8954 17 50C17 51.1046 17.8954 52 19 52H34.25C35.3546 52 36.25 51.1046 36.25 50C36.25 48.8954 35.3546 48 34.25 48Z" fill="#757575"/>
<path d="M38.2336 34H14.7664C13.7908 34 13 34.8017 13 35.7907V54.2093C13 55.1983 13.7908 56 14.7664 56H38.2336C39.2092 56 40 55.1983 40 54.2093V35.7907C40 34.8017 39.2092 34 38.2336 34Z" stroke="#B3B3B3" stroke-width="0.5"/>
</svg>
