<svg width="84" height="64" viewBox="0 0 84 64" fill="none" xmlns="http://www.w3.org/2000/svg">
<rect x="8.25" y="8.25" width="19.5" height="21.5" rx="1.75" fill="white"/>
<rect x="14" y="12" width="8" height="8" rx="4" fill="#010914"/>
<rect opacity="0.4" x="11" y="22" width="14" height="4" rx="2" fill="#757575"/>
<rect x="8.25" y="8.25" width="19.5" height="21.5" rx="1.75" stroke="#B3B3B3" stroke-width="0.5"/>
<rect x="32.25" y="8.25" width="19.5" height="21.5" rx="1.75" fill="white"/>
<rect x="38" y="12" width="8" height="8" rx="4" fill="#010914"/>
<rect opacity="0.4" x="35" y="22" width="14" height="4" rx="2" fill="#757575"/>
<rect x="32.25" y="8.25" width="19.5" height="21.5" rx="1.75" stroke="#B3B3B3" stroke-width="0.5"/>
<rect x="56.25" y="8.25" width="19.5" height="21.5" rx="1.75" fill="white"/>
<rect x="62" y="12" width="8" height="8" rx="4" fill="#010914"/>
<rect opacity="0.4" x="59" y="22" width="14" height="4" rx="2" fill="#757575"/>
<rect x="56.25" y="8.25" width="19.5" height="21.5" rx="1.75" stroke="#B3B3B3" stroke-width="0.5"/>
<rect x="8.25" y="34.25" width="19.5" height="21.5" rx="1.75" fill="white"/>
<rect x="14" y="38" width="8" height="8" rx="4" fill="#010914"/>
<rect opacity="0.4" x="11" y="48" width="14" height="4" rx="2" fill="#757575"/>
<rect x="8.25" y="34.25" width="19.5" height="21.5" rx="1.75" stroke="#B3B3B3" stroke-width="0.5"/>
<rect x="32.25" y="34.25" width="19.5" height="21.5" rx="1.75" fill="white"/>
<rect x="38" y="38" width="8" height="8" rx="4" fill="#010914"/>
<rect opacity="0.4" x="35" y="48" width="14" height="4" rx="2" fill="#757575"/>
<rect x="32.25" y="34.25" width="19.5" height="21.5" rx="1.75" stroke="#B3B3B3" stroke-width="0.5"/>
<rect x="56.25" y="34.25" width="19.5" height="21.5" rx="1.75" fill="white"/>
<rect x="62" y="38" width="8" height="8" rx="4" fill="#010914"/>
<rect opacity="0.4" x="59" y="48" width="14" height="4" rx="2" fill="#757575"/>
<rect x="56.25" y="34.25" width="19.5" height="21.5" rx="1.75" stroke="#B3B3B3" stroke-width="0.5"/>
<g clip-path="url(#clip0_17_4891)">
<rect x="68" y="4" width="12" height="12" rx="6" fill="white" fill-opacity="0.4"/>
</g>
<defs>
<clipPath id="clip0_17_4891">
<rect x="68" y="4" width="12" height="12" rx="6" fill="white"/>
</clipPath>
</defs>
</svg>
