<svg width="32" height="32" viewBox="0 0 32 32" fill="none" xmlns="http://www.w3.org/2000/svg">
<rect width="32" height="32" rx="12" fill="#010914"/>
<path d="M22 9.33325H14C13.8232 9.33325 13.6537 9.40349 13.5286 9.52851C13.4036 9.65354 13.3334 9.82311 13.3334 9.99992V12.6666H12C11.8232 12.6666 11.6537 12.7368 11.5286 12.8618C11.4036 12.9869 11.3334 13.1564 11.3334 13.3333V15.9999H10C9.82323 15.9999 9.65366 16.0702 9.52864 16.1952C9.40361 16.3202 9.33337 16.4898 9.33337 16.6666V21.9999C9.33337 22.1767 9.40361 22.3463 9.52864 22.4713C9.65366 22.5963 9.82323 22.6666 10 22.6666H15.3334C15.5102 22.6666 15.6798 22.5963 15.8048 22.4713C15.9298 22.3463 16 22.1767 16 21.9999V20.6666H18.6667C18.8435 20.6666 19.0131 20.5963 19.1381 20.4713C19.2631 20.3463 19.3334 20.1767 19.3334 19.9999V18.6666H22C22.1769 18.6666 22.3464 18.5963 22.4714 18.4713C22.5965 18.3463 22.6667 18.1767 22.6667 17.9999V9.99992C22.6667 9.82311 22.5965 9.65354 22.4714 9.52851C22.3464 9.40349 22.1769 9.33325 22 9.33325ZM14.6667 21.3333H10.6667V17.3333H14.6667V21.3333ZM18 19.3333H16V16.6666C16 16.4898 15.9298 16.3202 15.8048 16.1952C15.6798 16.0702 15.5102 15.9999 15.3334 15.9999H12.6667V13.9999H18V19.3333ZM21.3334 17.3333H19.3334V13.3333C19.3334 13.1564 19.2631 12.9869 19.1381 12.8618C19.0131 12.7368 18.8435 12.6666 18.6667 12.6666H14.6667V10.6666H21.3334V17.3333Z" fill="white"/>
</svg>
