<svg width="32" height="32" viewBox="0 0 32 32" fill="none" xmlns="http://www.w3.org/2000/svg">
<rect width="32" height="32" rx="12" fill="#F0F5FF"/>
<path d="M21.9999 9.33337H13.9999C13.8231 9.33337 13.6535 9.40361 13.5285 9.52864C13.4035 9.65366 13.3333 9.82323 13.3333 10V12.6667H11.9999C11.8231 12.6667 11.6535 12.7369 11.5285 12.862C11.4035 12.987 11.3333 13.1566 11.3333 13.3334V16H9.99992C9.82311 16 9.65354 16.0703 9.52851 16.1953C9.40349 16.3203 9.33325 16.4899 9.33325 16.6667V22C9.33325 22.1769 9.40349 22.3464 9.52851 22.4714C9.65354 22.5965 9.82311 22.6667 9.99992 22.6667H15.3333C15.5101 22.6667 15.6796 22.5965 15.8047 22.4714C15.9297 22.3464 15.9999 22.1769 15.9999 22V20.6667H18.6666C18.8434 20.6667 19.013 20.5965 19.138 20.4714C19.263 20.3464 19.3333 20.1769 19.3333 20V18.6667H21.9999C22.1767 18.6667 22.3463 18.5965 22.4713 18.4714C22.5963 18.3464 22.6666 18.1769 22.6666 18V10C22.6666 9.82323 22.5963 9.65366 22.4713 9.52864C22.3463 9.40361 22.1767 9.33337 21.9999 9.33337V9.33337ZM14.6666 21.3334H10.6666V17.3334H14.6666V21.3334ZM17.9999 19.3334H15.9999V16.6667C15.9999 16.4899 15.9297 16.3203 15.8047 16.1953C15.6796 16.0703 15.5101 16 15.3333 16H12.6666V14H17.9999V19.3334ZM21.3333 17.3334H19.3333V13.3334C19.3333 13.1566 19.263 12.987 19.138 12.862C19.013 12.7369 18.8434 12.6667 18.6666 12.6667H14.6666V10.6667H21.3333V17.3334Z" fill="#2862F7"/>
</svg>
