<svg width="84" height="36" viewBox="0 0 84 36" fill="none" xmlns="http://www.w3.org/2000/svg">
<path d="M16.9452 10.4033C16.9142 10.372 16.8774 10.3472 16.8368 10.3303C16.7961 10.3134 16.7526 10.3047 16.7086 10.3047C16.6646 10.3047 16.621 10.3134 16.5804 10.3303C16.5397 10.3472 16.5029 10.372 16.4719 10.4033L13.9886 12.89L12.9452 11.8433C12.9131 11.8122 12.8751 11.7878 12.8335 11.7714C12.7918 11.755 12.7474 11.7469 12.7027 11.7477C12.6579 11.7485 12.6138 11.758 12.5728 11.7759C12.5318 11.7937 12.4946 11.8194 12.4636 11.8516C12.4325 11.8838 12.408 11.9218 12.3916 11.9634C12.3752 12.005 12.3672 12.0495 12.368 12.0942C12.3687 12.1389 12.3783 12.183 12.3962 12.2241C12.414 12.2651 12.4397 12.3022 12.4719 12.3333L13.7519 13.6133C13.7829 13.6445 13.8197 13.6693 13.8604 13.6863C13.901 13.7032 13.9446 13.7119 13.9886 13.7119C14.0326 13.7119 14.0761 13.7032 14.1168 13.6863C14.1574 13.6693 14.1942 13.6445 14.2252 13.6133L16.9452 10.8933C16.9791 10.8621 17.0061 10.8242 17.0245 10.782C17.043 10.7399 17.0525 10.6943 17.0525 10.6483C17.0525 10.6023 17.043 10.5567 17.0245 10.5146C17.0061 10.4724 16.9791 10.4345 16.9452 10.4033Z" fill="#B3B3B3"/>
<rect x="20.7085" y="10" width="19.25" height="4" rx="2" fill="#757575"/>
<path d="M16.9452 22.4033C16.9142 22.372 16.8774 22.3472 16.8368 22.3303C16.7961 22.3134 16.7526 22.3047 16.7086 22.3047C16.6646 22.3047 16.621 22.3134 16.5804 22.3303C16.5397 22.3472 16.5029 22.372 16.4719 22.4033L13.9886 24.89L12.9452 23.8433C12.9131 23.8122 12.8751 23.7878 12.8335 23.7714C12.7918 23.755 12.7474 23.7469 12.7027 23.7477C12.6579 23.7485 12.6138 23.758 12.5728 23.7759C12.5318 23.7937 12.4946 23.8194 12.4636 23.8516C12.4325 23.8838 12.408 23.9218 12.3916 23.9634C12.3752 24.005 12.3672 24.0495 12.368 24.0942C12.3687 24.1389 12.3783 24.183 12.3962 24.2241C12.414 24.2651 12.4397 24.3022 12.4719 24.3333L13.7519 25.6133C13.7829 25.6445 13.8197 25.6693 13.8604 25.6863C13.901 25.7032 13.9446 25.7119 13.9886 25.7119C14.0326 25.7119 14.0761 25.7032 14.1168 25.6863C14.1574 25.6693 14.1942 25.6445 14.2252 25.6133L16.9452 22.8933C16.9791 22.8621 17.0061 22.8242 17.0245 22.782C17.043 22.7399 17.0525 22.6943 17.0525 22.6483C17.0525 22.6023 17.043 22.5567 17.0245 22.5146C17.0061 22.4724 16.9791 22.4345 16.9452 22.4033Z" fill="#B3B3B3"/>
<rect x="20.7085" y="22" width="19.25" height="4" rx="2" fill="#757575"/>
<path d="M50.2785 10.4033C50.2475 10.372 50.2106 10.3472 50.17 10.3303C50.1294 10.3134 50.0858 10.3047 50.0418 10.3047C49.9978 10.3047 49.9542 10.3134 49.9136 10.3303C49.873 10.3472 49.8361 10.372 49.8051 10.4033L47.3218 12.89L46.2785 11.8433C46.2463 11.8122 46.2083 11.7878 46.1667 11.7714C46.1251 11.755 46.0806 11.7469 46.0359 11.7477C45.9912 11.7485 45.9471 11.758 45.906 11.7759C45.865 11.7937 45.8279 11.8194 45.7968 11.8516C45.7657 11.8838 45.7413 11.9218 45.7249 11.9634C45.7085 12.005 45.7004 12.0495 45.7012 12.0942C45.702 12.1389 45.7116 12.183 45.7294 12.2241C45.7472 12.2651 45.773 12.3022 45.8051 12.3333L47.0851 13.6133C47.1161 13.6445 47.153 13.6693 47.1936 13.6863C47.2342 13.7032 47.2778 13.7119 47.3218 13.7119C47.3658 13.7119 47.4094 13.7032 47.45 13.6863C47.4906 13.6693 47.5275 13.6445 47.5585 13.6133L50.2785 10.8933C50.3123 10.8621 50.3393 10.8242 50.3578 10.782C50.3763 10.7399 50.3858 10.6943 50.3858 10.6483C50.3858 10.6023 50.3763 10.5567 50.3578 10.5146C50.3393 10.4724 50.3123 10.4345 50.2785 10.4033Z" fill="#B3B3B3"/>
<rect x="54.0417" y="10" width="19.25" height="4" rx="2" fill="#757575"/>
<path d="M50.2785 22.4033C50.2475 22.372 50.2106 22.3472 50.17 22.3303C50.1294 22.3134 50.0858 22.3047 50.0418 22.3047C49.9978 22.3047 49.9542 22.3134 49.9136 22.3303C49.873 22.3472 49.8361 22.372 49.8051 22.4033L47.3218 24.89L46.2785 23.8433C46.2463 23.8122 46.2083 23.7878 46.1667 23.7714C46.1251 23.755 46.0806 23.7469 46.0359 23.7477C45.9912 23.7485 45.9471 23.758 45.906 23.7759C45.865 23.7937 45.8279 23.8194 45.7968 23.8516C45.7657 23.8838 45.7413 23.9218 45.7249 23.9634C45.7085 24.005 45.7004 24.0495 45.7012 24.0942C45.702 24.1389 45.7116 24.183 45.7294 24.2241C45.7472 24.2651 45.773 24.3022 45.8051 24.3333L47.0851 25.6133C47.1161 25.6445 47.153 25.6693 47.1936 25.6863C47.2342 25.7032 47.2778 25.7119 47.3218 25.7119C47.3658 25.7119 47.4094 25.7032 47.45 25.6863C47.4906 25.6693 47.5275 25.6445 47.5585 25.6133L50.2785 22.8933C50.3123 22.8621 50.3393 22.8242 50.3578 22.782C50.3763 22.7399 50.3858 22.6943 50.3858 22.6483C50.3858 22.6023 50.3763 22.5567 50.3578 22.5146C50.3393 22.4724 50.3123 22.4345 50.2785 22.4033Z" fill="#B3B3B3"/>
<rect x="54.0417" y="22" width="19.25" height="4" rx="2" fill="#757575"/>
</svg>
