<svg width="84" height="36" viewBox="0 0 84 36" fill="none" xmlns="http://www.w3.org/2000/svg">
<path d="M14.2367 10.4033C14.2057 10.372 14.1689 10.3472 14.1283 10.3303C14.0876 10.3134 14.0441 10.3047 14.0001 10.3047C13.9561 10.3047 13.9125 10.3134 13.8719 10.3303C13.8313 10.3472 13.7944 10.372 13.7634 10.4033L11.2801 12.89L10.2367 11.8433C10.2046 11.8122 10.1666 11.7878 10.125 11.7714C10.0833 11.755 10.0389 11.7469 9.99417 11.7477C9.94945 11.7485 9.90531 11.758 9.86428 11.7759C9.82326 11.7937 9.78614 11.8194 9.75506 11.8516C9.72399 11.8838 9.69955 11.9218 9.68315 11.9634C9.66674 12.005 9.6587 12.0495 9.65947 12.0942C9.66025 12.1389 9.66982 12.183 9.68766 12.2241C9.70549 12.2651 9.73122 12.3022 9.7634 12.3333L11.0434 13.6133C11.0744 13.6445 11.1113 13.6693 11.1519 13.6863C11.1925 13.7032 11.2361 13.7119 11.2801 13.7119C11.3241 13.7119 11.3676 13.7032 11.4083 13.6863C11.4489 13.6693 11.4857 13.6445 11.5167 13.6133L14.2367 10.8933C14.2706 10.8621 14.2976 10.8242 14.316 10.782C14.3345 10.7399 14.344 10.6943 14.344 10.6483C14.344 10.6023 14.3345 10.5567 14.316 10.5146C14.2976 10.4724 14.2706 10.4345 14.2367 10.4033Z" fill="#B3B3B3"/>
<rect x="18" y="10" width="10" height="4" rx="2" fill="#757575"/>
<path d="M14.2367 22.4033C14.2057 22.372 14.1689 22.3472 14.1283 22.3303C14.0876 22.3134 14.0441 22.3047 14.0001 22.3047C13.9561 22.3047 13.9125 22.3134 13.8719 22.3303C13.8313 22.3472 13.7944 22.372 13.7634 22.4033L11.2801 24.89L10.2367 23.8433C10.2046 23.8122 10.1666 23.7878 10.125 23.7714C10.0833 23.755 10.0389 23.7469 9.99417 23.7477C9.94945 23.7485 9.90531 23.758 9.86428 23.7759C9.82326 23.7937 9.78614 23.8194 9.75506 23.8516C9.72399 23.8838 9.69955 23.9218 9.68315 23.9634C9.66674 24.005 9.6587 24.0495 9.65947 24.0942C9.66025 24.1389 9.66982 24.183 9.68766 24.2241C9.70549 24.2651 9.73122 24.3022 9.7634 24.3333L11.0434 25.6133C11.0744 25.6445 11.1113 25.6693 11.1519 25.6863C11.1925 25.7032 11.2361 25.7119 11.2801 25.7119C11.3241 25.7119 11.3676 25.7032 11.4083 25.6863C11.4489 25.6693 11.4857 25.6445 11.5167 25.6133L14.2367 22.8933C14.2706 22.8621 14.2976 22.8242 14.316 22.782C14.3345 22.7399 14.344 22.6943 14.344 22.6483C14.344 22.6023 14.3345 22.5567 14.316 22.5146C14.2976 22.4724 14.2706 22.4345 14.2367 22.4033Z" fill="#B3B3B3"/>
<rect x="18" y="22" width="10" height="4" rx="2" fill="#757575"/>
<path d="M38.2367 10.4033C38.2057 10.372 38.1689 10.3472 38.1283 10.3303C38.0876 10.3134 38.0441 10.3047 38.0001 10.3047C37.9561 10.3047 37.9125 10.3134 37.8719 10.3303C37.8313 10.3472 37.7944 10.372 37.7634 10.4033L35.2801 12.89L34.2367 11.8433C34.2046 11.8122 34.1666 11.7878 34.125 11.7714C34.0833 11.755 34.0389 11.7469 33.9942 11.7477C33.9494 11.7485 33.9053 11.758 33.8643 11.7759C33.8233 11.7937 33.7861 11.8194 33.7551 11.8516C33.724 11.8838 33.6995 11.9218 33.6831 11.9634C33.6667 12.005 33.6587 12.0495 33.6595 12.0942C33.6602 12.1389 33.6698 12.183 33.6877 12.2241C33.7055 12.2651 33.7312 12.3022 33.7634 12.3333L35.0434 13.6133C35.0744 13.6445 35.1113 13.6693 35.1519 13.6863C35.1925 13.7032 35.2361 13.7119 35.2801 13.7119C35.3241 13.7119 35.3676 13.7032 35.4083 13.6863C35.4489 13.6693 35.4857 13.6445 35.5167 13.6133L38.2367 10.8933C38.2706 10.8621 38.2976 10.8242 38.316 10.782C38.3345 10.7399 38.344 10.6943 38.344 10.6483C38.344 10.6023 38.3345 10.5567 38.316 10.5146C38.2976 10.4724 38.2706 10.4345 38.2367 10.4033Z" fill="#B3B3B3"/>
<rect x="42" y="10" width="10" height="4" rx="2" fill="#757575"/>
<path d="M38.2367 22.4033C38.2057 22.372 38.1689 22.3472 38.1283 22.3303C38.0876 22.3134 38.0441 22.3047 38.0001 22.3047C37.9561 22.3047 37.9125 22.3134 37.8719 22.3303C37.8313 22.3472 37.7944 22.372 37.7634 22.4033L35.2801 24.89L34.2367 23.8433C34.2046 23.8122 34.1666 23.7878 34.125 23.7714C34.0833 23.755 34.0389 23.7469 33.9942 23.7477C33.9494 23.7485 33.9053 23.758 33.8643 23.7759C33.8233 23.7937 33.7861 23.8194 33.7551 23.8516C33.724 23.8838 33.6995 23.9218 33.6831 23.9634C33.6667 24.005 33.6587 24.0495 33.6595 24.0942C33.6602 24.1389 33.6698 24.183 33.6877 24.2241C33.7055 24.2651 33.7312 24.3022 33.7634 24.3333L35.0434 25.6133C35.0744 25.6445 35.1113 25.6693 35.1519 25.6863C35.1925 25.7032 35.2361 25.7119 35.2801 25.7119C35.3241 25.7119 35.3676 25.7032 35.4083 25.6863C35.4489 25.6693 35.4857 25.6445 35.5167 25.6133L38.2367 22.8933C38.2706 22.8621 38.2976 22.8242 38.316 22.782C38.3345 22.7399 38.344 22.6943 38.344 22.6483C38.344 22.6023 38.3345 22.5567 38.316 22.5146C38.2976 22.4724 38.2706 22.4345 38.2367 22.4033Z" fill="#B3B3B3"/>
<rect x="42" y="22" width="10" height="4" rx="2" fill="#757575"/>
<path d="M62.2367 10.4033C62.2057 10.372 62.1689 10.3472 62.1283 10.3303C62.0876 10.3134 62.0441 10.3047 62.0001 10.3047C61.9561 10.3047 61.9125 10.3134 61.8719 10.3303C61.8313 10.3472 61.7944 10.372 61.7634 10.4033L59.2801 12.89L58.2367 11.8433C58.2046 11.8122 58.1666 11.7878 58.125 11.7714C58.0833 11.755 58.0389 11.7469 57.9942 11.7477C57.9494 11.7485 57.9053 11.758 57.8643 11.7759C57.8233 11.7937 57.7861 11.8194 57.7551 11.8516C57.724 11.8838 57.6995 11.9218 57.6831 11.9634C57.6667 12.005 57.6587 12.0495 57.6595 12.0942C57.6602 12.1389 57.6698 12.183 57.6877 12.2241C57.7055 12.2651 57.7312 12.3022 57.7634 12.3333L59.0434 13.6133C59.0744 13.6445 59.1113 13.6693 59.1519 13.6863C59.1925 13.7032 59.2361 13.7119 59.2801 13.7119C59.3241 13.7119 59.3676 13.7032 59.4083 13.6863C59.4489 13.6693 59.4857 13.6445 59.5167 13.6133L62.2367 10.8933C62.2706 10.8621 62.2976 10.8242 62.316 10.782C62.3345 10.7399 62.344 10.6943 62.344 10.6483C62.344 10.6023 62.3345 10.5567 62.316 10.5146C62.2976 10.4724 62.2706 10.4345 62.2367 10.4033Z" fill="#B3B3B3"/>
<rect x="66" y="10" width="10" height="4" rx="2" fill="#757575"/>
<path d="M62.2367 22.4033C62.2057 22.372 62.1689 22.3472 62.1283 22.3303C62.0876 22.3134 62.0441 22.3047 62.0001 22.3047C61.9561 22.3047 61.9125 22.3134 61.8719 22.3303C61.8313 22.3472 61.7944 22.372 61.7634 22.4033L59.2801 24.89L58.2367 23.8433C58.2046 23.8122 58.1666 23.7878 58.125 23.7714C58.0833 23.755 58.0389 23.7469 57.9942 23.7477C57.9494 23.7485 57.9053 23.758 57.8643 23.7759C57.8233 23.7937 57.7861 23.8194 57.7551 23.8516C57.724 23.8838 57.6995 23.9218 57.6831 23.9634C57.6667 24.005 57.6587 24.0495 57.6595 24.0942C57.6602 24.1389 57.6698 24.183 57.6877 24.2241C57.7055 24.2651 57.7312 24.3022 57.7634 24.3333L59.0434 25.6133C59.0744 25.6445 59.1113 25.6693 59.1519 25.6863C59.1925 25.7032 59.2361 25.7119 59.2801 25.7119C59.3241 25.7119 59.3676 25.7032 59.4083 25.6863C59.4489 25.6693 59.4857 25.6445 59.5167 25.6133L62.2367 22.8933C62.2706 22.8621 62.2976 22.8242 62.316 22.782C62.3345 22.7399 62.344 22.6943 62.344 22.6483C62.344 22.6023 62.3345 22.5567 62.316 22.5146C62.2976 22.4724 62.2706 22.4345 62.2367 22.4033Z" fill="#B3B3B3"/>
<rect x="66" y="22" width="10" height="4" rx="2" fill="#757575"/>
</svg>
