<svg width="84" height="36" viewBox="0 0 84 36" fill="none" xmlns="http://www.w3.org/2000/svg">
<path d="M14.2365 10.4033C14.2055 10.372 14.1686 10.3472 14.128 10.3303C14.0874 10.3134 14.0438 10.3047 13.9998 10.3047C13.9558 10.3047 13.9122 10.3134 13.8716 10.3303C13.831 10.3472 13.7941 10.372 13.7632 10.4033L11.2798 12.89L10.2365 11.8433C10.2043 11.8122 10.1663 11.7878 10.1247 11.7714C10.0831 11.755 10.0387 11.7469 9.99393 11.7477C9.9492 11.7485 9.90506 11.758 9.86404 11.7759C9.82301 11.7937 9.7859 11.8194 9.75482 11.8516C9.72374 11.8838 9.6993 11.9218 9.6829 11.9634C9.6665 12.005 9.65846 12.0495 9.65923 12.0942C9.66 12.1389 9.66958 12.183 9.68741 12.2241C9.70524 12.2651 9.73098 12.3022 9.76315 12.3333L11.0432 13.6133C11.0741 13.6445 11.111 13.6693 11.1516 13.6863C11.1922 13.7032 11.2358 13.7119 11.2798 13.7119C11.3238 13.7119 11.3674 13.7032 11.408 13.6863C11.4486 13.6693 11.4855 13.6445 11.5165 13.6133L14.2365 10.8933C14.2703 10.8621 14.2973 10.8242 14.3158 10.782C14.3343 10.7399 14.3438 10.6943 14.3438 10.6483C14.3438 10.6023 14.3343 10.5567 14.3158 10.5146C14.2973 10.4724 14.2703 10.4345 14.2365 10.4033Z" fill="#010914"/>
<rect opacity="0.4" x="18" y="10" width="10" height="4" rx="2" fill="#757575"/>
<path d="M14.2365 22.4033C14.2055 22.372 14.1686 22.3472 14.128 22.3303C14.0874 22.3134 14.0438 22.3047 13.9998 22.3047C13.9558 22.3047 13.9122 22.3134 13.8716 22.3303C13.831 22.3472 13.7941 22.372 13.7632 22.4033L11.2798 24.89L10.2365 23.8433C10.2043 23.8122 10.1663 23.7878 10.1247 23.7714C10.0831 23.755 10.0387 23.7469 9.99393 23.7477C9.9492 23.7485 9.90506 23.758 9.86404 23.7759C9.82301 23.7937 9.7859 23.8194 9.75482 23.8516C9.72374 23.8838 9.6993 23.9218 9.6829 23.9634C9.6665 24.005 9.65846 24.0495 9.65923 24.0942C9.66 24.1389 9.66958 24.183 9.68741 24.2241C9.70524 24.2651 9.73098 24.3022 9.76315 24.3333L11.0432 25.6133C11.0741 25.6445 11.111 25.6693 11.1516 25.6863C11.1922 25.7032 11.2358 25.7119 11.2798 25.7119C11.3238 25.7119 11.3674 25.7032 11.408 25.6863C11.4486 25.6693 11.4855 25.6445 11.5165 25.6133L14.2365 22.8933C14.2703 22.8621 14.2973 22.8242 14.3158 22.782C14.3343 22.7399 14.3438 22.6943 14.3438 22.6483C14.3438 22.6023 14.3343 22.5567 14.3158 22.5146C14.2973 22.4724 14.2703 22.4345 14.2365 22.4033Z" fill="#010914"/>
<rect opacity="0.4" x="18" y="22" width="10" height="4" rx="2" fill="#757575"/>
<path d="M38.2365 10.4033C38.2055 10.372 38.1686 10.3472 38.128 10.3303C38.0874 10.3134 38.0438 10.3047 37.9998 10.3047C37.9558 10.3047 37.9122 10.3134 37.8716 10.3303C37.831 10.3472 37.7941 10.372 37.7632 10.4033L35.2798 12.89L34.2365 11.8433C34.2043 11.8122 34.1663 11.7878 34.1247 11.7714C34.0831 11.755 34.0387 11.7469 33.9939 11.7477C33.9492 11.7485 33.9051 11.758 33.864 11.7759C33.823 11.7937 33.7859 11.8194 33.7548 11.8516C33.7237 11.8838 33.6993 11.9218 33.6829 11.9634C33.6665 12.005 33.6585 12.0495 33.6592 12.0942C33.66 12.1389 33.6696 12.183 33.6874 12.2241C33.7052 12.2651 33.731 12.3022 33.7632 12.3333L35.0432 13.6133C35.0741 13.6445 35.111 13.6693 35.1516 13.6863C35.1922 13.7032 35.2358 13.7119 35.2798 13.7119C35.3238 13.7119 35.3674 13.7032 35.408 13.6863C35.4486 13.6693 35.4855 13.6445 35.5165 13.6133L38.2365 10.8933C38.2703 10.8621 38.2973 10.8242 38.3158 10.782C38.3343 10.7399 38.3438 10.6943 38.3438 10.6483C38.3438 10.6023 38.3343 10.5567 38.3158 10.5146C38.2973 10.4724 38.2703 10.4345 38.2365 10.4033Z" fill="#010914"/>
<rect opacity="0.4" x="42" y="10" width="10" height="4" rx="2" fill="#757575"/>
<path d="M38.2365 22.4033C38.2055 22.372 38.1686 22.3472 38.128 22.3303C38.0874 22.3134 38.0438 22.3047 37.9998 22.3047C37.9558 22.3047 37.9122 22.3134 37.8716 22.3303C37.831 22.3472 37.7941 22.372 37.7632 22.4033L35.2798 24.89L34.2365 23.8433C34.2043 23.8122 34.1663 23.7878 34.1247 23.7714C34.0831 23.755 34.0387 23.7469 33.9939 23.7477C33.9492 23.7485 33.9051 23.758 33.864 23.7759C33.823 23.7937 33.7859 23.8194 33.7548 23.8516C33.7237 23.8838 33.6993 23.9218 33.6829 23.9634C33.6665 24.005 33.6585 24.0495 33.6592 24.0942C33.66 24.1389 33.6696 24.183 33.6874 24.2241C33.7052 24.2651 33.731 24.3022 33.7632 24.3333L35.0432 25.6133C35.0741 25.6445 35.111 25.6693 35.1516 25.6863C35.1922 25.7032 35.2358 25.7119 35.2798 25.7119C35.3238 25.7119 35.3674 25.7032 35.408 25.6863C35.4486 25.6693 35.4855 25.6445 35.5165 25.6133L38.2365 22.8933C38.2703 22.8621 38.2973 22.8242 38.3158 22.782C38.3343 22.7399 38.3438 22.6943 38.3438 22.6483C38.3438 22.6023 38.3343 22.5567 38.3158 22.5146C38.2973 22.4724 38.2703 22.4345 38.2365 22.4033Z" fill="#010914"/>
<rect opacity="0.4" x="42" y="22" width="10" height="4" rx="2" fill="#757575"/>
<path d="M62.2365 10.4033C62.2055 10.372 62.1686 10.3472 62.128 10.3303C62.0874 10.3134 62.0438 10.3047 61.9998 10.3047C61.9558 10.3047 61.9122 10.3134 61.8716 10.3303C61.831 10.3472 61.7941 10.372 61.7632 10.4033L59.2798 12.89L58.2365 11.8433C58.2043 11.8122 58.1663 11.7878 58.1247 11.7714C58.0831 11.755 58.0387 11.7469 57.9939 11.7477C57.9492 11.7485 57.9051 11.758 57.864 11.7759C57.823 11.7937 57.7859 11.8194 57.7548 11.8516C57.7237 11.8838 57.6993 11.9218 57.6829 11.9634C57.6665 12.005 57.6585 12.0495 57.6592 12.0942C57.66 12.1389 57.6696 12.183 57.6874 12.2241C57.7052 12.2651 57.731 12.3022 57.7632 12.3333L59.0432 13.6133C59.0741 13.6445 59.111 13.6693 59.1516 13.6863C59.1922 13.7032 59.2358 13.7119 59.2798 13.7119C59.3238 13.7119 59.3674 13.7032 59.408 13.6863C59.4486 13.6693 59.4855 13.6445 59.5165 13.6133L62.2365 10.8933C62.2703 10.8621 62.2973 10.8242 62.3158 10.782C62.3343 10.7399 62.3438 10.6943 62.3438 10.6483C62.3438 10.6023 62.3343 10.5567 62.3158 10.5146C62.2973 10.4724 62.2703 10.4345 62.2365 10.4033Z" fill="#010914"/>
<rect opacity="0.4" x="66" y="10" width="10" height="4" rx="2" fill="#757575"/>
<path d="M62.2365 22.4033C62.2055 22.372 62.1686 22.3472 62.128 22.3303C62.0874 22.3134 62.0438 22.3047 61.9998 22.3047C61.9558 22.3047 61.9122 22.3134 61.8716 22.3303C61.831 22.3472 61.7941 22.372 61.7632 22.4033L59.2798 24.89L58.2365 23.8433C58.2043 23.8122 58.1663 23.7878 58.1247 23.7714C58.0831 23.755 58.0387 23.7469 57.9939 23.7477C57.9492 23.7485 57.9051 23.758 57.864 23.7759C57.823 23.7937 57.7859 23.8194 57.7548 23.8516C57.7237 23.8838 57.6993 23.9218 57.6829 23.9634C57.6665 24.005 57.6585 24.0495 57.6592 24.0942C57.66 24.1389 57.6696 24.183 57.6874 24.2241C57.7052 24.2651 57.731 24.3022 57.7632 24.3333L59.0432 25.6133C59.0741 25.6445 59.111 25.6693 59.1516 25.6863C59.1922 25.7032 59.2358 25.7119 59.2798 25.7119C59.3238 25.7119 59.3674 25.7032 59.408 25.6863C59.4486 25.6693 59.4855 25.6445 59.5165 25.6133L62.2365 22.8933C62.2703 22.8621 62.2973 22.8242 62.3158 22.782C62.3343 22.7399 62.3438 22.6943 62.3438 22.6483C62.3438 22.6023 62.3343 22.5567 62.3158 22.5146C62.2973 22.4724 62.2703 22.4345 62.2365 22.4033Z" fill="#010914"/>
<rect opacity="0.4" x="66" y="22" width="10" height="4" rx="2" fill="#757575"/>
</svg>
