<svg width="84" height="36" viewBox="0 0 84 36" fill="none" xmlns="http://www.w3.org/2000/svg">
<path d="M33.6117 10.4033C33.5807 10.372 33.5439 10.3472 33.5033 10.3303C33.4626 10.3134 33.4191 10.3047 33.3751 10.3047C33.3311 10.3047 33.2875 10.3134 33.2469 10.3303C33.2063 10.3472 33.1694 10.372 33.1384 10.4033L30.6551 12.89L29.6117 11.8433C29.5796 11.8122 29.5416 11.7878 29.5 11.7714C29.4583 11.755 29.4139 11.7469 29.3692 11.7477C29.3244 11.7485 29.2803 11.758 29.2393 11.7759C29.1983 11.7937 29.1611 11.8194 29.1301 11.8516C29.099 11.8838 29.0745 11.9218 29.0581 11.9634C29.0417 12.005 29.0337 12.0495 29.0345 12.0942C29.0352 12.1389 29.0448 12.183 29.0627 12.2241C29.0805 12.2651 29.1062 12.3022 29.1384 12.3333L30.4184 13.6133C30.4494 13.6445 30.4863 13.6693 30.5269 13.6863C30.5675 13.7032 30.6111 13.7119 30.6551 13.7119C30.6991 13.7119 30.7426 13.7032 30.7833 13.6863C30.8239 13.6693 30.8607 13.6445 30.8917 13.6133L33.6117 10.8933C33.6456 10.8621 33.6726 10.8242 33.691 10.782C33.7095 10.7399 33.719 10.6943 33.719 10.6483C33.719 10.6023 33.7095 10.5567 33.691 10.5146C33.6726 10.4724 33.6456 10.4345 33.6117 10.4033Z" fill="#B3B3B3"/>
<rect x="37.375" y="10" width="19.25" height="4" rx="2" fill="#757575"/>
<path d="M33.6117 22.4033C33.5807 22.372 33.5439 22.3472 33.5033 22.3303C33.4626 22.3134 33.4191 22.3047 33.3751 22.3047C33.3311 22.3047 33.2875 22.3134 33.2469 22.3303C33.2063 22.3472 33.1694 22.372 33.1384 22.4033L30.6551 24.89L29.6117 23.8433C29.5796 23.8122 29.5416 23.7878 29.5 23.7714C29.4583 23.755 29.4139 23.7469 29.3692 23.7477C29.3244 23.7485 29.2803 23.758 29.2393 23.7759C29.1983 23.7937 29.1611 23.8194 29.1301 23.8516C29.099 23.8838 29.0745 23.9218 29.0581 23.9634C29.0417 24.005 29.0337 24.0495 29.0345 24.0942C29.0352 24.1389 29.0448 24.183 29.0627 24.2241C29.0805 24.2651 29.1062 24.3022 29.1384 24.3333L30.4184 25.6133C30.4494 25.6445 30.4863 25.6693 30.5269 25.6863C30.5675 25.7032 30.6111 25.7119 30.6551 25.7119C30.6991 25.7119 30.7426 25.7032 30.7833 25.6863C30.8239 25.6693 30.8607 25.6445 30.8917 25.6133L33.6117 22.8933C33.6456 22.8621 33.6726 22.8242 33.691 22.782C33.7095 22.7399 33.719 22.6943 33.719 22.6483C33.719 22.6023 33.7095 22.5567 33.691 22.5146C33.6726 22.4724 33.6456 22.4345 33.6117 22.4033Z" fill="#B3B3B3"/>
<rect x="37.375" y="22" width="19.25" height="4" rx="2" fill="#757575"/>
</svg>
