<svg width="84" height="36" viewBox="0 0 84 36" fill="none" xmlns="http://www.w3.org/2000/svg">
<path d="M33.6115 10.4033C33.5805 10.372 33.5436 10.3472 33.503 10.3303C33.4624 10.3134 33.4188 10.3047 33.3748 10.3047C33.3308 10.3047 33.2872 10.3134 33.2466 10.3303C33.206 10.3472 33.1691 10.372 33.1382 10.4033L30.6548 12.89L29.6115 11.8433C29.5793 11.8122 29.5413 11.7878 29.4997 11.7714C29.4581 11.755 29.4137 11.7469 29.3689 11.7477C29.3242 11.7485 29.2801 11.758 29.239 11.7759C29.198 11.7937 29.1609 11.8194 29.1298 11.8516C29.0987 11.8838 29.0743 11.9218 29.0579 11.9634C29.0415 12.005 29.0335 12.0495 29.0342 12.0942C29.035 12.1389 29.0446 12.183 29.0624 12.2241C29.0802 12.2651 29.106 12.3022 29.1382 12.3333L30.4182 13.6133C30.4491 13.6445 30.486 13.6693 30.5266 13.6863C30.5672 13.7032 30.6108 13.7119 30.6548 13.7119C30.6988 13.7119 30.7424 13.7032 30.783 13.6863C30.8236 13.6693 30.8605 13.6445 30.8915 13.6133L33.6115 10.8933C33.6453 10.8621 33.6723 10.8242 33.6908 10.782C33.7093 10.7399 33.7188 10.6943 33.7188 10.6483C33.7188 10.6023 33.7093 10.5567 33.6908 10.5146C33.6723 10.4724 33.6453 10.4345 33.6115 10.4033Z" fill="#010914"/>
<rect opacity="0.4" x="37.375" y="10" width="19.25" height="4" rx="2" fill="#757575"/>
<path d="M33.6115 22.4033C33.5805 22.372 33.5436 22.3472 33.503 22.3303C33.4624 22.3134 33.4188 22.3047 33.3748 22.3047C33.3308 22.3047 33.2872 22.3134 33.2466 22.3303C33.206 22.3472 33.1691 22.372 33.1382 22.4033L30.6548 24.89L29.6115 23.8433C29.5793 23.8122 29.5413 23.7878 29.4997 23.7714C29.4581 23.755 29.4137 23.7469 29.3689 23.7477C29.3242 23.7485 29.2801 23.758 29.239 23.7759C29.198 23.7937 29.1609 23.8194 29.1298 23.8516C29.0987 23.8838 29.0743 23.9218 29.0579 23.9634C29.0415 24.005 29.0335 24.0495 29.0342 24.0942C29.035 24.1389 29.0446 24.183 29.0624 24.2241C29.0802 24.2651 29.106 24.3022 29.1382 24.3333L30.4182 25.6133C30.4491 25.6445 30.486 25.6693 30.5266 25.6863C30.5672 25.7032 30.6108 25.7119 30.6548 25.7119C30.6988 25.7119 30.7424 25.7032 30.783 25.6863C30.8236 25.6693 30.8605 25.6445 30.8915 25.6133L33.6115 22.8933C33.6453 22.8621 33.6723 22.8242 33.6908 22.782C33.7093 22.7399 33.7188 22.6943 33.7188 22.6483C33.7188 22.6023 33.7093 22.5567 33.6908 22.5146C33.6723 22.4724 33.6453 22.4345 33.6115 22.4033Z" fill="#010914"/>
<rect opacity="0.4" x="37.375" y="22" width="19.25" height="4" rx="2" fill="#757575"/>
</svg>
