<svg width="84" height="36" viewBox="0 0 84 36" fill="none" xmlns="http://www.w3.org/2000/svg">
<path d="M16.9445 10.4033C16.9135 10.372 16.8766 10.3472 16.836 10.3303C16.7954 10.3134 16.7518 10.3047 16.7078 10.3047C16.6638 10.3047 16.6203 10.3134 16.5796 10.3303C16.539 10.3472 16.5021 10.372 16.4712 10.4033L13.9878 12.89L12.9445 11.8433C12.9123 11.8122 12.8743 11.7878 12.8327 11.7714C12.7911 11.755 12.7467 11.7469 12.7019 11.7477C12.6572 11.7485 12.6131 11.758 12.572 11.7759C12.531 11.7937 12.4939 11.8194 12.4628 11.8516C12.4317 11.8838 12.4073 11.9218 12.3909 11.9634C12.3745 12.005 12.3665 12.0495 12.3672 12.0942C12.368 12.1389 12.3776 12.183 12.3954 12.2241C12.4133 12.2651 12.439 12.3022 12.4712 12.3333L13.7512 13.6133C13.7821 13.6445 13.819 13.6693 13.8596 13.6863C13.9003 13.7032 13.9438 13.7119 13.9878 13.7119C14.0318 13.7119 14.0754 13.7032 14.116 13.6863C14.1566 13.6693 14.1935 13.6445 14.2245 13.6133L16.9445 10.8933C16.9783 10.8621 17.0053 10.8242 17.0238 10.782C17.0423 10.7399 17.0518 10.6943 17.0518 10.6483C17.0518 10.6023 17.0423 10.5567 17.0238 10.5146C17.0053 10.4724 16.9783 10.4345 16.9445 10.4033Z" fill="#010914"/>
<rect opacity="0.4" x="20.708" y="10" width="19.25" height="4" rx="2" fill="#757575"/>
<path d="M16.9445 22.4033C16.9135 22.372 16.8766 22.3472 16.836 22.3303C16.7954 22.3134 16.7518 22.3047 16.7078 22.3047C16.6638 22.3047 16.6203 22.3134 16.5796 22.3303C16.539 22.3472 16.5021 22.372 16.4712 22.4033L13.9878 24.89L12.9445 23.8433C12.9123 23.8122 12.8743 23.7878 12.8327 23.7714C12.7911 23.755 12.7467 23.7469 12.7019 23.7477C12.6572 23.7485 12.6131 23.758 12.572 23.7759C12.531 23.7937 12.4939 23.8194 12.4628 23.8516C12.4317 23.8838 12.4073 23.9218 12.3909 23.9634C12.3745 24.005 12.3665 24.0495 12.3672 24.0942C12.368 24.1389 12.3776 24.183 12.3954 24.2241C12.4133 24.2651 12.439 24.3022 12.4712 24.3333L13.7512 25.6133C13.7821 25.6445 13.819 25.6693 13.8596 25.6863C13.9003 25.7032 13.9438 25.7119 13.9878 25.7119C14.0318 25.7119 14.0754 25.7032 14.116 25.6863C14.1566 25.6693 14.1935 25.6445 14.2245 25.6133L16.9445 22.8933C16.9783 22.8621 17.0053 22.8242 17.0238 22.782C17.0423 22.7399 17.0518 22.6943 17.0518 22.6483C17.0518 22.6023 17.0423 22.5567 17.0238 22.5146C17.0053 22.4724 16.9783 22.4345 16.9445 22.4033Z" fill="#010914"/>
<rect opacity="0.4" x="20.708" y="22" width="19.25" height="4" rx="2" fill="#757575"/>
<path d="M50.278 10.4033C50.247 10.372 50.2101 10.3472 50.1695 10.3303C50.1289 10.3134 50.0853 10.3047 50.0413 10.3047C49.9973 10.3047 49.9538 10.3134 49.9131 10.3303C49.8725 10.3472 49.8356 10.372 49.8047 10.4033L47.3213 12.89L46.278 11.8433C46.2458 11.8122 46.2078 11.7878 46.1662 11.7714C46.1246 11.755 46.0802 11.7469 46.0354 11.7477C45.9907 11.7485 45.9466 11.758 45.9055 11.7759C45.8645 11.7937 45.8274 11.8194 45.7963 11.8516C45.7652 11.8838 45.7408 11.9218 45.7244 11.9634C45.708 12.005 45.7 12.0495 45.7007 12.0942C45.7015 12.1389 45.7111 12.183 45.7289 12.2241C45.7467 12.2651 45.7725 12.3022 45.8047 12.3333L47.0847 13.6133C47.1156 13.6445 47.1525 13.6693 47.1931 13.6863C47.2338 13.7032 47.2773 13.7119 47.3213 13.7119C47.3653 13.7119 47.4089 13.7032 47.4495 13.6863C47.4901 13.6693 47.527 13.6445 47.558 13.6133L50.278 10.8933C50.3118 10.8621 50.3388 10.8242 50.3573 10.782C50.3758 10.7399 50.3853 10.6943 50.3853 10.6483C50.3853 10.6023 50.3758 10.5567 50.3573 10.5146C50.3388 10.4724 50.3118 10.4345 50.278 10.4033Z" fill="#010914"/>
<rect opacity="0.4" x="54.0415" y="10" width="19.25" height="4" rx="2" fill="#757575"/>
<path d="M50.278 22.4033C50.247 22.372 50.2101 22.3472 50.1695 22.3303C50.1289 22.3134 50.0853 22.3047 50.0413 22.3047C49.9973 22.3047 49.9538 22.3134 49.9131 22.3303C49.8725 22.3472 49.8356 22.372 49.8047 22.4033L47.3213 24.89L46.278 23.8433C46.2458 23.8122 46.2078 23.7878 46.1662 23.7714C46.1246 23.755 46.0802 23.7469 46.0354 23.7477C45.9907 23.7485 45.9466 23.758 45.9055 23.7759C45.8645 23.7937 45.8274 23.8194 45.7963 23.8516C45.7652 23.8838 45.7408 23.9218 45.7244 23.9634C45.708 24.005 45.7 24.0495 45.7007 24.0942C45.7015 24.1389 45.7111 24.183 45.7289 24.2241C45.7467 24.2651 45.7725 24.3022 45.8047 24.3333L47.0847 25.6133C47.1156 25.6445 47.1525 25.6693 47.1931 25.6863C47.2338 25.7032 47.2773 25.7119 47.3213 25.7119C47.3653 25.7119 47.4089 25.7032 47.4495 25.6863C47.4901 25.6693 47.527 25.6445 47.558 25.6133L50.278 22.8933C50.3118 22.8621 50.3388 22.8242 50.3573 22.782C50.3758 22.7399 50.3853 22.6943 50.3853 22.6483C50.3853 22.6023 50.3758 22.5567 50.3573 22.5146C50.3388 22.4724 50.3118 22.4345 50.278 22.4033Z" fill="#010914"/>
<rect opacity="0.4" x="54.0415" y="22" width="19.25" height="4" rx="2" fill="#757575"/>
</svg>
