<svg width="84" height="64" viewBox="0 0 84 64" fill="none" xmlns="http://www.w3.org/2000/svg">
<path d="M67.8462 8H48.1538C46.9643 8 46 8.97683 46 10.1818V53.8182C46 55.0232 46.9643 56 48.1538 56H67.8462C69.0357 56 70 55.0232 70 53.8182V10.1818C70 8.97683 69.0357 8 67.8462 8Z" fill="#010914"/>
<path d="M53.9313 38.0579C53.9115 38.0395 53.8878 38.025 53.8618 38.015C53.8358 38.0052 53.8079 38 53.7797 38C53.7515 38 53.7236 38.0052 53.6976 38.015C53.6716 38.025 53.648 38.0395 53.6281 38.0579L52.0378 39.5176L51.3697 38.9032C51.3491 38.8849 51.3248 38.8705 51.2981 38.8609C51.2715 38.8513 51.243 38.8466 51.2144 38.8471C51.1857 38.8475 51.1574 38.8531 51.1312 38.8636C51.1049 38.8741 51.0811 38.8892 51.0613 38.908C51.0413 38.9269 51.0257 38.9492 51.0151 38.9736C51.0046 38.9981 50.9995 39.0242 51 39.0504C51.0005 39.0767 51.0066 39.1026 51.0181 39.1267C51.0295 39.1507 51.046 39.1726 51.0666 39.1908L51.8863 39.9422C51.9062 39.9605 51.9297 39.975 51.9558 39.985C51.9817 39.9949 52.0096 40 52.0378 40C52.066 40 52.0939 39.9949 52.12 39.985C52.1459 39.975 52.1696 39.9605 52.1894 39.9422L53.9313 38.3455C53.953 38.3272 53.9702 38.3049 53.9821 38.2802C53.9939 38.2555 54 38.2287 54 38.2017C54 38.1747 53.9939 38.1479 53.9821 38.1232C53.9702 38.0985 53.953 38.0762 53.9313 38.0579Z" fill="white"/>
<path opacity="0.4" d="M62.7778 37H57.2222C55.9949 37 55 37.8954 55 39C55 40.1046 55.9949 41 57.2222 41H62.7778C64.0051 41 65 40.1046 65 39C65 37.8954 64.0051 37 62.7778 37Z" fill="#757575"/>
<path d="M35.8462 8H16.1538C14.9643 8 14 8.97683 14 10.1818V53.8182C14 55.0232 14.9643 56 16.1538 56H35.8462C37.0357 56 38 55.0232 38 53.8182V10.1818C38 8.97683 37.0357 8 35.8462 8Z" fill="#010914"/>
<path d="M30 21.0273C30 21.5279 29.8591 21.9921 29.5774 22.4198C29.3054 22.8385 28.8973 23.1843 28.3534 23.4573C27.819 23.7212 27.1828 23.8669 26.4444 23.8942V25H25.5118V23.8805C24.482 23.7986 23.6514 23.5119 23.02 23.0205C22.3886 22.5199 22.0535 21.8419 22.0146 20.9863H24.6667C24.725 21.5324 25.0066 21.8829 25.5118 22.0375V19.8805C24.7541 19.6986 24.1469 19.5211 23.6903 19.3481C23.2434 19.1752 22.85 18.8976 22.51 18.5154C22.1701 18.1331 22 17.6098 22 16.9454C22 16.1171 22.3254 15.4528 22.9763 14.9522C23.6369 14.4516 24.482 14.1696 25.5118 14.1058V13H26.4444V14.1058C27.4645 14.1786 28.2707 14.4562 28.8634 14.9386C29.456 15.4209 29.7862 16.0898 29.8543 16.9454H27.1876C27.1293 16.4539 26.8816 16.1354 26.4444 15.9898V18.1058C27.2507 18.3151 27.8725 18.5017 28.3097 18.6655C28.7468 18.8294 29.1354 19.1024 29.4754 19.4846C29.8251 19.8577 30 20.372 30 21.0273ZM24.6375 16.8362C24.6375 17.0638 24.7104 17.2549 24.8561 17.4096C25.0116 17.5642 25.2302 17.7008 25.5118 17.8191V15.9215C25.2398 15.967 25.0262 16.0672 24.8707 16.2218C24.7152 16.3675 24.6375 16.5723 24.6375 16.8362ZM26.4444 22.0785C26.7359 22.033 26.9642 21.9238 27.1293 21.7509C27.3042 21.5779 27.3916 21.3641 27.3916 21.1092C27.3916 20.8726 27.309 20.6815 27.1439 20.5358C26.9884 20.3812 26.7553 20.2491 26.4444 20.1399V22.0785Z" fill="#B3B3B3"/>
<path d="M62 21.0273C62 21.5279 61.8591 21.9921 61.5774 22.4198C61.3054 22.8385 60.8973 23.1843 60.3534 23.4573C59.819 23.7212 59.1828 23.8669 58.4444 23.8942V25H57.5118V23.8805C56.482 23.7986 55.6514 23.5119 55.02 23.0205C54.3886 22.5199 54.0535 21.8419 54.0146 20.9863H56.6667C56.725 21.5324 57.0066 21.8829 57.5118 22.0375V19.8805C56.7541 19.6986 56.1469 19.5211 55.6903 19.3481C55.2434 19.1752 54.85 18.8976 54.51 18.5154C54.1701 18.1331 54 17.6098 54 16.9454C54 16.1171 54.3254 15.4528 54.9763 14.9522C55.6369 14.4516 56.482 14.1696 57.5118 14.1058V13H58.4444V14.1058C59.4645 14.1786 60.2707 14.4562 60.8634 14.9386C61.456 15.4209 61.7862 16.0898 61.8543 16.9454H59.1876C59.1293 16.4539 58.8816 16.1354 58.4444 15.9898V18.1058C59.2507 18.3151 59.8725 18.5017 60.3097 18.6655C60.7468 18.8294 61.1354 19.1024 61.4754 19.4846C61.8251 19.8577 62 20.372 62 21.0273ZM56.6375 16.8362C56.6375 17.0638 56.7104 17.2549 56.8561 17.4096C57.0116 17.5642 57.2302 17.7008 57.5118 17.8191V15.9215C57.2398 15.967 57.0262 16.0672 56.8707 16.2218C56.7152 16.3675 56.6375 16.5723 56.6375 16.8362ZM58.4444 22.0785C58.7359 22.033 58.9642 21.9238 59.1293 21.7509C59.3042 21.5779 59.3916 21.3641 59.3916 21.1092C59.3916 20.8726 59.309 20.6815 59.1439 20.5358C58.9884 20.3812 58.7553 20.2491 58.4444 20.1399V22.0785Z" fill="#B3B3B3"/>
<path d="M35.8462 8H16.1538C14.9643 8 14 8.97683 14 10.1818V53.8182C14 55.0232 14.9643 56 16.1538 56H35.8462C37.0357 56 38 55.0232 38 53.8182V10.1818C38 8.97683 37.0357 8 35.8462 8Z" stroke="#B3B3B3" stroke-width="0.5"/>
<rect x="18" y="45" width="16" height="6" rx="3" fill="white"/>
<rect x="24" y="47" width="4" height="2" rx="1" fill="#010914"/>
<rect opacity="0.4" x="16" y="30" width="20" height="4" rx="2" fill="#757575"/>
<path d="M21.9313 38.0579C21.9115 38.0395 21.8878 38.025 21.8618 38.015C21.8358 38.0052 21.8079 38 21.7797 38C21.7515 38 21.7236 38.0052 21.6976 38.015C21.6716 38.025 21.648 38.0395 21.6281 38.0579L20.0378 39.5176L19.3697 38.9032C19.3491 38.8849 19.3248 38.8705 19.2981 38.8609C19.2715 38.8513 19.243 38.8466 19.2144 38.8471C19.1857 38.8475 19.1574 38.8531 19.1312 38.8636C19.1049 38.8741 19.0811 38.8892 19.0613 38.908C19.0413 38.9269 19.0257 38.9492 19.0151 38.9736C19.0046 38.9981 18.9995 39.0242 19 39.0504C19.0005 39.0767 19.0066 39.1026 19.0181 39.1267C19.0295 39.1507 19.046 39.1726 19.0666 39.1908L19.8863 39.9422C19.9062 39.9605 19.9297 39.975 19.9558 39.985C19.9817 39.9949 20.0096 40 20.0378 40C20.066 40 20.0939 39.9949 20.12 39.985C20.1459 39.975 20.1696 39.9605 20.1894 39.9422L21.9313 38.3455C21.953 38.3272 21.9702 38.3049 21.9821 38.2802C21.9939 38.2555 22 38.2287 22 38.2017C22 38.1747 21.9939 38.1479 21.9821 38.1232C21.9702 38.0985 21.953 38.0762 21.9313 38.0579Z" fill="white"/>
<path opacity="0.4" d="M30.7778 37H25.2222C23.9949 37 23 37.8954 23 39C23 40.1046 23.9949 41 25.2222 41H30.7778C32.0051 41 33 40.1046 33 39C33 37.8954 32.0051 37 30.7778 37Z" fill="#757575"/>
<path d="M67.8462 8H48.1538C46.9643 8 46 8.97683 46 10.1818V53.8182C46 55.0232 46.9643 56 48.1538 56H67.8462C69.0357 56 70 55.0232 70 53.8182V10.1818C70 8.97683 69.0357 8 67.8462 8Z" stroke="#B3B3B3" stroke-width="0.5"/>
<rect x="50" y="45" width="16" height="6" rx="3" fill="white"/>
<rect x="56" y="47" width="4" height="2" rx="1" fill="#010914"/>
<rect opacity="0.4" x="48" y="30" width="20" height="4" rx="2" fill="#757575"/>
</svg>
