<svg width="84" height="64" viewBox="0 0 84 64" fill="none" xmlns="http://www.w3.org/2000/svg">
<rect x="8.25" y="12.75" width="19.5" height="38.5" rx="1.75" fill="#010914"/>
<path d="M20.43 22.46C20.43 22.8267 20.3333 23.1667 20.14 23.48C19.9533 23.7867 19.6733 24.04 19.3 24.24C18.9333 24.4333 18.4967 24.54 17.99 24.56V25.37H17.35V24.55C16.6433 24.49 16.0733 24.28 15.64 23.92C15.2067 23.5533 14.9767 23.0567 14.95 22.43H16.77C16.81 22.83 17.0033 23.0867 17.35 23.2V21.62C16.83 21.4867 16.4133 21.3567 16.1 21.23C15.7933 21.1033 15.5233 20.9 15.29 20.62C15.0567 20.34 14.94 19.9567 14.94 19.47C14.94 18.8633 15.1633 18.3767 15.61 18.01C16.0633 17.6433 16.6433 17.4367 17.35 17.39V16.58H17.99V17.39C18.69 17.4433 19.2433 17.6467 19.65 18C20.0567 18.3533 20.2833 18.8433 20.33 19.47H18.5C18.46 19.11 18.29 18.8767 17.99 18.77V20.32C18.5433 20.4733 18.97 20.61 19.27 20.73C19.57 20.85 19.8367 21.05 20.07 21.33C20.31 21.6033 20.43 21.98 20.43 22.46ZM16.75 19.39C16.75 19.5567 16.8 19.6967 16.9 19.81C17.0067 19.9233 17.1567 20.0233 17.35 20.11V18.72C17.1633 18.7533 17.0167 18.8267 16.91 18.94C16.8033 19.0467 16.75 19.1967 16.75 19.39ZM17.99 23.23C18.19 23.1967 18.3467 23.1167 18.46 22.99C18.58 22.8633 18.64 22.7067 18.64 22.52C18.64 22.3467 18.5833 22.2067 18.47 22.1C18.3633 21.9867 18.2033 21.89 17.99 21.81V23.23Z" fill="#B3B3B3"/>
<rect opacity="0.4" x="12" y="27.5" width="12" height="4" rx="2" fill="#757575"/>
<path d="M15.1776 35.3025C15.1544 35.279 15.1267 35.2604 15.0963 35.2477C15.0658 35.2351 15.0331 35.2285 15.0001 35.2285C14.9671 35.2285 14.9344 35.2351 14.904 35.2477C14.8735 35.2604 14.8459 35.279 14.8226 35.3025L12.9601 37.1675L12.1776 36.3825C12.1535 36.3592 12.125 36.3408 12.0938 36.3285C12.0626 36.3162 12.0292 36.3102 11.9957 36.3108C11.9621 36.3114 11.929 36.3185 11.8983 36.3319C11.8675 36.3453 11.8397 36.3646 11.8164 36.3887C11.793 36.4128 11.7747 36.4413 11.7624 36.4725C11.7501 36.5038 11.7441 36.5371 11.7447 36.5706C11.7452 36.6042 11.7524 36.6373 11.7658 36.6681C11.7792 36.6988 11.7985 36.7267 11.8226 36.75L12.7826 37.71C12.8059 37.7334 12.8335 37.752 12.864 37.7647C12.8944 37.7774 12.9271 37.7839 12.9601 37.7839C12.9931 37.7839 13.0258 37.7774 13.0563 37.7647C13.0867 37.752 13.1144 37.7334 13.1376 37.71L15.1776 35.67C15.203 35.6466 15.2232 35.6181 15.2371 35.5865C15.2509 35.5549 15.2581 35.5207 15.2581 35.4862C15.2581 35.4517 15.2509 35.4175 15.2371 35.3859C15.2232 35.3543 15.203 35.3259 15.1776 35.3025Z" fill="#B3B3B3"/>
<rect opacity="0.4" x="16.5" y="34.5" width="9" height="4" rx="2" fill="#757575"/>
<path d="M10.5 44.5C10.5 43.1193 11.6193 42 13 42H23C24.3807 42 25.5 43.1193 25.5 44.5C25.5 45.8807 24.3807 47 23 47H13C11.6193 47 10.5 45.8807 10.5 44.5Z" fill="#010914" stroke="#B3B3B3"/>
<rect x="15" y="43.5" width="6" height="2" rx="1" fill="white"/>
<rect x="8.25" y="12.75" width="19.5" height="38.5" rx="1.75" stroke="#757575" stroke-width="0.5"/>
<rect x="32.25" y="12.75" width="19.5" height="38.5" rx="1.75" fill="#010914"/>
<path d="M44.43 22.46C44.43 22.8267 44.3333 23.1667 44.14 23.48C43.9533 23.7867 43.6733 24.04 43.3 24.24C42.9333 24.4333 42.4967 24.54 41.99 24.56V25.37H41.35V24.55C40.6433 24.49 40.0733 24.28 39.64 23.92C39.2067 23.5533 38.9767 23.0567 38.95 22.43H40.77C40.81 22.83 41.0033 23.0867 41.35 23.2V21.62C40.83 21.4867 40.4133 21.3567 40.1 21.23C39.7933 21.1033 39.5233 20.9 39.29 20.62C39.0567 20.34 38.94 19.9567 38.94 19.47C38.94 18.8633 39.1633 18.3767 39.61 18.01C40.0633 17.6433 40.6433 17.4367 41.35 17.39V16.58H41.99V17.39C42.69 17.4433 43.2433 17.6467 43.65 18C44.0567 18.3533 44.2833 18.8433 44.33 19.47H42.5C42.46 19.11 42.29 18.8767 41.99 18.77V20.32C42.5433 20.4733 42.97 20.61 43.27 20.73C43.57 20.85 43.8367 21.05 44.07 21.33C44.31 21.6033 44.43 21.98 44.43 22.46ZM40.75 19.39C40.75 19.5567 40.8 19.6967 40.9 19.81C41.0067 19.9233 41.1567 20.0233 41.35 20.11V18.72C41.1633 18.7533 41.0167 18.8267 40.91 18.94C40.8033 19.0467 40.75 19.1967 40.75 19.39ZM41.99 23.23C42.19 23.1967 42.3467 23.1167 42.46 22.99C42.58 22.8633 42.64 22.7067 42.64 22.52C42.64 22.3467 42.5833 22.2067 42.47 22.1C42.3633 21.9867 42.2033 21.89 41.99 21.81V23.23Z" fill="#B3B3B3"/>
<rect opacity="0.4" x="36" y="27.5" width="12" height="4" rx="2" fill="#757575"/>
<path d="M39.1776 35.3025C39.1544 35.279 39.1267 35.2604 39.0963 35.2477C39.0658 35.2351 39.0331 35.2285 39.0001 35.2285C38.9671 35.2285 38.9344 35.2351 38.904 35.2477C38.8735 35.2604 38.8459 35.279 38.8226 35.3025L36.9601 37.1675L36.1776 36.3825C36.1535 36.3592 36.125 36.3408 36.0938 36.3285C36.0626 36.3162 36.0292 36.3102 35.9957 36.3108C35.9621 36.3114 35.929 36.3185 35.8983 36.3319C35.8675 36.3453 35.8397 36.3646 35.8164 36.3887C35.793 36.4128 35.7747 36.4413 35.7624 36.4725C35.7501 36.5038 35.7441 36.5371 35.7447 36.5706C35.7452 36.6042 35.7524 36.6373 35.7658 36.6681C35.7792 36.6988 35.7985 36.7267 35.8226 36.75L36.7826 37.71C36.8059 37.7334 36.8335 37.752 36.864 37.7647C36.8944 37.7774 36.9271 37.7839 36.9601 37.7839C36.9931 37.7839 37.0258 37.7774 37.0563 37.7647C37.0867 37.752 37.1144 37.7334 37.1376 37.71L39.1776 35.67C39.203 35.6466 39.2232 35.6181 39.2371 35.5865C39.2509 35.5549 39.2581 35.5207 39.2581 35.4862C39.2581 35.4517 39.2509 35.4175 39.2371 35.3859C39.2232 35.3543 39.203 35.3259 39.1776 35.3025Z" fill="#B3B3B3"/>
<rect opacity="0.4" x="40.5" y="34.5" width="9" height="4" rx="2" fill="#757575"/>
<path d="M34.5 44.5C34.5 43.1193 35.6193 42 37 42H47C48.3807 42 49.5 43.1193 49.5 44.5C49.5 45.8807 48.3807 47 47 47H37C35.6193 47 34.5 45.8807 34.5 44.5Z" fill="#010914" stroke="#B3B3B3"/>
<rect x="39" y="43.5" width="6" height="2" rx="1" fill="white"/>
<rect x="32.25" y="12.75" width="19.5" height="38.5" rx="1.75" stroke="#757575" stroke-width="0.5"/>
<rect x="56.25" y="12.75" width="19.5" height="38.5" rx="1.75" fill="#010914"/>
<path d="M68.43 22.46C68.43 22.8267 68.3333 23.1667 68.14 23.48C67.9533 23.7867 67.6733 24.04 67.3 24.24C66.9333 24.4333 66.4967 24.54 65.99 24.56V25.37H65.35V24.55C64.6433 24.49 64.0733 24.28 63.64 23.92C63.2067 23.5533 62.9767 23.0567 62.95 22.43H64.77C64.81 22.83 65.0033 23.0867 65.35 23.2V21.62C64.83 21.4867 64.4133 21.3567 64.1 21.23C63.7933 21.1033 63.5233 20.9 63.29 20.62C63.0567 20.34 62.94 19.9567 62.94 19.47C62.94 18.8633 63.1633 18.3767 63.61 18.01C64.0633 17.6433 64.6433 17.4367 65.35 17.39V16.58H65.99V17.39C66.69 17.4433 67.2433 17.6467 67.65 18C68.0567 18.3533 68.2833 18.8433 68.33 19.47H66.5C66.46 19.11 66.29 18.8767 65.99 18.77V20.32C66.5433 20.4733 66.97 20.61 67.27 20.73C67.57 20.85 67.8367 21.05 68.07 21.33C68.31 21.6033 68.43 21.98 68.43 22.46ZM64.75 19.39C64.75 19.5567 64.8 19.6967 64.9 19.81C65.0067 19.9233 65.1567 20.0233 65.35 20.11V18.72C65.1633 18.7533 65.0167 18.8267 64.91 18.94C64.8033 19.0467 64.75 19.1967 64.75 19.39ZM65.99 23.23C66.19 23.1967 66.3467 23.1167 66.46 22.99C66.58 22.8633 66.64 22.7067 66.64 22.52C66.64 22.3467 66.5833 22.2067 66.47 22.1C66.3633 21.9867 66.2033 21.89 65.99 21.81V23.23Z" fill="#B3B3B3"/>
<rect opacity="0.4" x="60" y="27.5" width="12" height="4" rx="2" fill="#757575"/>
<path d="M63.1776 35.3025C63.1544 35.279 63.1267 35.2604 63.0963 35.2477C63.0658 35.2351 63.0331 35.2285 63.0001 35.2285C62.9671 35.2285 62.9344 35.2351 62.904 35.2477C62.8735 35.2604 62.8459 35.279 62.8226 35.3025L60.9601 37.1675L60.1776 36.3825C60.1535 36.3592 60.125 36.3408 60.0938 36.3285C60.0626 36.3162 60.0292 36.3102 59.9957 36.3108C59.9621 36.3114 59.929 36.3185 59.8983 36.3319C59.8675 36.3453 59.8397 36.3646 59.8164 36.3887C59.793 36.4128 59.7747 36.4413 59.7624 36.4725C59.7501 36.5038 59.7441 36.5371 59.7447 36.5706C59.7452 36.6042 59.7524 36.6373 59.7658 36.6681C59.7792 36.6988 59.7985 36.7267 59.8226 36.75L60.7826 37.71C60.8059 37.7334 60.8335 37.752 60.864 37.7647C60.8944 37.7774 60.9271 37.7839 60.9601 37.7839C60.9931 37.7839 61.0258 37.7774 61.0563 37.7647C61.0867 37.752 61.1144 37.7334 61.1376 37.71L63.1776 35.67C63.203 35.6466 63.2232 35.6181 63.2371 35.5865C63.2509 35.5549 63.2581 35.5207 63.2581 35.4862C63.2581 35.4517 63.2509 35.4175 63.2371 35.3859C63.2232 35.3543 63.203 35.3259 63.1776 35.3025Z" fill="#B3B3B3"/>
<rect opacity="0.4" x="64.5" y="34.5" width="9" height="4" rx="2" fill="#757575"/>
<path d="M58.5 44.5C58.5 43.1193 59.6193 42 61 42H71C72.3807 42 73.5 43.1193 73.5 44.5C73.5 45.8807 72.3807 47 71 47H61C59.6193 47 58.5 45.8807 58.5 44.5Z" fill="#010914" stroke="#B3B3B3"/>
<rect x="63" y="43.5" width="6" height="2" rx="1" fill="white"/>
<rect x="56.25" y="12.75" width="19.5" height="38.5" rx="1.75" stroke="#757575" stroke-width="0.5"/>
</svg>
