<svg width="84" height="48" viewBox="0 0 84 48" fill="none" xmlns="http://www.w3.org/2000/svg">
<g clip-path="url(#clip0_4_61)">
<path d="M12.201 23V9.18182H15.1225V14.8832H21.0533V9.18182H23.968V23H21.0533V17.2919H15.1225V23H12.201ZM32.3075 9.18182V23H29.386V11.9549H29.305L26.1406 13.9386V11.3477L29.5614 9.18182H32.3075Z" fill="black"/>
<path d="M12.6953 40V32H14.3867V35.3008H17.8203V32H19.5078V40H17.8203V36.6953H14.3867V40H12.6953ZM20.8555 40V38.7812L23.7031 36.1445C23.9453 35.9102 24.1484 35.6992 24.3125 35.5117C24.4792 35.3242 24.6055 35.1406 24.6914 34.9609C24.7773 34.7786 24.8203 34.582 24.8203 34.3711C24.8203 34.1367 24.7669 33.9349 24.6602 33.7656C24.5534 33.5937 24.4076 33.4622 24.2227 33.3711C24.0378 33.2773 23.8281 33.2305 23.5938 33.2305C23.349 33.2305 23.1354 33.2799 22.9531 33.3789C22.7708 33.4779 22.6302 33.6198 22.5313 33.8047C22.4323 33.9896 22.3828 34.2096 22.3828 34.4648H20.7773C20.7773 33.9414 20.8958 33.487 21.1328 33.1016C21.3698 32.7161 21.7018 32.418 22.1289 32.207C22.556 31.9961 23.0482 31.8906 23.6055 31.8906C24.1784 31.8906 24.6771 31.9922 25.1016 32.1953C25.5286 32.3958 25.8607 32.6745 26.0977 33.0312C26.3346 33.388 26.4531 33.7969 26.4531 34.2578C26.4531 34.5599 26.3932 34.8581 26.2734 35.1523C26.1563 35.4466 25.9466 35.7734 25.6445 36.1328C25.3424 36.4896 24.9167 36.918 24.3672 37.418L23.1992 38.5625V38.6172H26.5586V40H20.8555Z" fill="#BFBFBF"/>
<rect x="39" y="14" width="34" height="4" rx="2" fill="#BFBFBF"/>
<rect x="39" y="34" width="34" height="4" rx="2" fill="#BFBFBF"/>
</g>
<defs>
<clipPath id="clip0_4_61">
<rect width="84" height="48" fill="white"/>
</clipPath>
</defs>
</svg>
