<svg width="5000" height="5000" viewBox="0 0 5000 5000" fill="none" xmlns="http://www.w3.org/2000/svg">
<rect x="4200" width="800" height="5000" fill="#00CF83"/>
<path d="M2164 3125C2164 2951.59 2224.21 2804.67 2344.64 2684.25C2467.47 2561.42 2615.59 2500 2789 2500C2962.41 2500 3109.33 2561.42 3229.75 2684.25C3352.59 2804.67 3414 2951.59 3414 3125C3414 3298.41 3352.59 3446.53 3229.75 3569.37C3109.33 3689.79 2962.41 3750 2789 3750C2615.59 3750 2467.47 3689.79 2344.64 3569.37C2224.21 3446.53 2164 3298.41 2164 3125Z" fill="#FFAA00"/>
<path d="M51.098 4836.24C277.389 4680.98 447.716 4545.12 562.078 4428.67C764.037 4227.32 865.017 4036.88 865.017 3857.35C865.017 3806.41 852.85 3765.16 828.518 3733.63C801.752 3704.51 764.037 3689.96 715.372 3689.96C691.04 3689.96 660.624 3692.38 624.125 3697.24C587.627 3704.51 562.078 3708.15 547.478 3708.15C399.052 3708.15 270.09 3655.99 160.594 3551.67C53.5312 3447.35 0 3306.65 0 3129.55C0 2942.75 55.9645 2791.12 167.894 2674.67C282.256 2558.22 430.684 2500 613.176 2500C837.034 2500 1019.53 2578.85 1160.66 2736.54C1304.21 2891.8 1376 3100.44 1376 3362.44C1376 3762.74 1215.41 4126.64 894.215 4454.15C719.022 4628.82 467.182 4810.77 138.695 5000L51.098 4836.24Z" fill="#FF2B59"/>
</svg>
