<?xml version="1.0" encoding="UTF-8" standalone="no"?>
<svg
   xmlns:dc="http://purl.org/dc/elements/1.1/"
   xmlns:cc="http://creativecommons.org/ns#"
   xmlns:rdf="http://www.w3.org/1999/02/22-rdf-syntax-ns#"
   xmlns:svg="http://www.w3.org/2000/svg"
   xmlns="http://www.w3.org/2000/svg"
   xmlns:sodipodi="http://sodipodi.sourceforge.net/DTD/sodipodi-0.dtd"
   xmlns:inkscape="http://www.inkscape.org/namespaces/inkscape"
   width="13.344433mm"
   height="12.47179mm"
   viewBox="0 0 13.344433 12.47179"
   version="1.1"
   id="svg8"
   inkscape:version="1.0beta2 (2b71d25, 2019-12-03)"
   sodipodi:docname="firefly-logo-small.svg">
  <defs
     id="defs2" />
  <sodipodi:namedview
     id="base"
     pagecolor="#ffffff"
     bordercolor="#666666"
     borderopacity="1.0"
     inkscape:pageopacity="0.0"
     inkscape:pageshadow="2"
     inkscape:zoom="1.9291176"
     inkscape:cx="181.23211"
     inkscape:cy="117.86352"
     inkscape:document-units="mm"
     inkscape:current-layer="g847"
     inkscape:document-rotation="0"
     showgrid="false"
     inkscape:window-width="1600"
     inkscape:window-height="880"
     inkscape:window-x="1982"
     inkscape:window-y="202"
     inkscape:window-maximized="0" />
  <metadata
     id="metadata5">
    <rdf:RDF>
      <cc:Work
         rdf:about="">
        <dc:format>image/svg+xml</dc:format>
        <dc:type
           rdf:resource="http://purl.org/dc/dcmitype/StillImage" />
        <dc:title />
      </cc:Work>
    </rdf:RDF>
  </metadata>
  <g
     inkscape:label="Layer 1"
     inkscape:groupmode="layer"
     id="layer1"
     transform="translate(-85.852576,-79.184324)">
    <g
       id="g847"
       transform="translate(2.2678571,-40.065476)">
      <path
         style="fill:#bababa;stroke-width:0.0211667"
         d="m 101.19771,130.52076 c 0.0556,-0.004 0.14138,-0.004 0.1905,1.3e-4 0.0491,0.004 0.004,0.008 -0.10118,0.008 -0.10477,-6e-5 -0.14497,-0.004 -0.0893,-0.008 z m 1.92024,0.002 c 0.12285,-0.0157 0.31757,-0.0174 0.31754,-0.003 -2e-5,0.009 -0.0834,0.0145 -0.18525,0.0127 -0.10186,-0.002 -0.16139,-0.006 -0.13229,-0.01 z m 5.68992,-0.003 c 0.21321,-0.003 0.55611,-0.003 0.762,2e-5 0.20588,0.003 0.0314,0.006 -0.38767,0.006 -0.4191,-1e-5 -0.58755,-0.003 -0.37433,-0.006 z m 6.53884,6.6e-4 0.15319,-0.008 0.006,-0.71875 0.006,-0.71875 -4.2e-4,0.72496 -4.3e-4,0.72497 -0.15875,0.002 -0.15875,0.002 0.15318,-0.008 z m 1.68724,-6.5e-4 0.23174,-0.007 -0.25291,-0.25854 -0.25291,-0.25853 0.25929,0.25367 c 0.14261,0.13952 0.25929,0.26096 0.25929,0.26988 0,0.009 -0.10716,0.0142 -0.23812,0.0117 l -0.23813,-0.004 0.23175,-0.007 z m 6.13516,7e-5 c 0.10244,-0.004 0.26437,-0.004 0.35984,4e-5 0.0955,0.004 0.0117,0.007 -0.18625,0.007 -0.19791,-2e-5 -0.27602,-0.003 -0.17359,-0.007 z m 6.51694,-7e-5 c 0.19426,-0.003 0.51811,-0.003 0.71967,-1e-5 0.20156,0.003 0.0426,0.006 -0.35319,0.006 -0.39581,1e-5 -0.56073,-0.003 -0.36648,-0.006 z m 7.07103,4.2e-4 c 0.0436,-0.005 0.11509,-0.005 0.15875,0 0.0437,0.005 0.008,0.008 -0.0794,0.008 -0.0873,0 -0.12303,-0.004 -0.0794,-0.008 z m 7.04913,-1.7e-4 c 0.0557,-0.004 0.14138,-0.004 0.1905,1.2e-4 0.0491,0.004 0.004,0.008 -0.10118,0.008 -0.10477,-7e-5 -0.14496,-0.004 -0.0893,-0.008 z m 1.92024,0.002 c 0.12285,-0.0157 0.31757,-0.0174 0.31754,-0.003 0,0.009 -0.0834,0.0145 -0.18525,0.0127 -0.10186,-0.002 -0.16139,-0.006 -0.13229,-0.01 z m 6.69304,-0.003 0.54412,-0.006 0.008,-0.15311 0.008,-0.1531 -0.002,0.15875 -0.002,0.15875 -0.55033,5.6e-4 -0.55034,5.5e-4 0.54413,-0.006 z m 6.69925,-6e-5 0.7452,-0.006 0.008,-0.14261 0.008,-0.14261 -0.001,0.14817 -0.001,0.14816 -0.75142,4.1e-4 -0.75141,4e-4 0.7452,-0.006 z m -42.61331,-0.30706 -0.19006,-0.19579 0.19579,0.19006 c 0.18185,0.17652 0.20543,0.20152 0.19006,0.20152 -0.003,0 -0.0913,-0.0881 -0.19579,-0.19579 z m 14.59485,0.16663 c 0,-0.004 0.0167,-0.0211 0.037,-0.037 0.0336,-0.0263 0.0343,-0.0256 0.008,0.008 -0.0276,0.0353 -0.045,0.0465 -0.045,0.029 z m -6.985,-0.0212 c 0,-0.004 0.0167,-0.0211 0.0371,-0.037 0.0336,-0.0263 0.0343,-0.0256 0.008,0.008 -0.0276,0.0353 -0.045,0.0465 -0.045,0.029 z m -15.3789,-0.72226 c -1e-5,-0.31433 0.003,-0.44586 0.007,-0.29231 0.004,0.15356 0.004,0.41073 2e-5,0.5715 -0.004,0.16077 -0.007,0.0351 -0.007,-0.27919 z m 15.2519,0.40217 c 0.0273,-0.0291 0.0545,-0.0529 0.0603,-0.0529 0.006,0 -0.0118,0.0238 -0.0391,0.0529 -0.0273,0.0291 -0.0545,0.0529 -0.0603,0.0529 -0.006,0 0.0118,-0.0238 0.0391,-0.0529 z m 7.28668,-0.0635 c 2.3e-4,-0.0466 0.005,-0.0631 0.01,-0.0368 0.005,0.0263 0.005,0.0644 -4.3e-4,0.0847 -0.005,0.0202 -0.009,-0.001 -0.009,-0.0479 z m 5.88625,-0.10584 c 0,-0.0931 0.004,-0.1286 0.008,-0.0788 0.004,0.0498 0.004,0.12598 -2.2e-4,0.16933 -0.005,0.0434 -0.008,0.003 -0.008,-0.0905 z m -20.13676,-0.0186 c 0,-0.004 0.0167,-0.0211 0.037,-0.037 0.0336,-0.0263 0.0343,-0.0256 0.008,0.008 -0.0276,0.0353 -0.045,0.0465 -0.045,0.0291 z m -7.92041,-0.0713 c 0.14328,-0.004 0.37188,-0.004 0.508,2e-5 0.13612,0.004 0.0189,0.007 -0.26051,0.007 -0.2794,-2e-5 -0.39077,-0.003 -0.24749,-0.007 z m 49.93217,0 c 0.14327,-0.004 0.37187,-0.004 0.508,2e-5 0.13612,0.004 0.0189,0.007 -0.26051,0.007 -0.2794,-2e-5 -0.39077,-0.003 -0.24749,-0.007 z m -34.89809,-0.06 c 0.001,-0.0247 0.006,-0.0297 0.0128,-0.0128 0.006,0.0153 0.005,0.0335 -0.002,0.0406 -0.007,0.007 -0.012,-0.005 -0.0111,-0.0278 z m 0.3175,-0.0212 c 0.001,-0.0247 0.006,-0.0297 0.0128,-0.0128 0.006,0.0153 0.005,0.0335 -0.002,0.0406 -0.007,0.007 -0.012,-0.005 -0.0111,-0.0278 z m 6.66423,-0.10937 -0.0513,-0.0582 0.0582,0.0513 c 0.032,0.0282 0.0582,0.0544 0.0582,0.0582 0,0.0166 -0.0171,0.003 -0.0651,-0.0513 z m 7.09243,0.0502 c 0,-0.004 0.0167,-0.0211 0.037,-0.037 0.0336,-0.0263 0.0343,-0.0256 0.008,0.008 -0.0276,0.0353 -0.045,0.0465 -0.045,0.0291 z m -21.42066,-0.0212 c 0,-0.004 0.0167,-0.0211 0.037,-0.037 0.0336,-0.0263 0.0343,-0.0256 0.008,0.008 -0.0277,0.0353 -0.045,0.0465 -0.045,0.029 z m 7.66567,-0.0767 c 0,-0.0291 0.005,-0.041 0.0107,-0.0265 0.006,0.0145 0.006,0.0384 0,0.0529 -0.006,0.0145 -0.0107,0.003 -0.0107,-0.0265 z m -1.80251,-0.28316 c 0,-0.004 0.0167,-0.0211 0.037,-0.037 0.0336,-0.0263 0.0343,-0.0256 0.008,0.008 -0.0277,0.0353 -0.045,0.0465 -0.045,0.0291 z m 28.8925,0 c 0,-0.004 0.0167,-0.0211 0.037,-0.037 0.0336,-0.0263 0.0343,-0.0256 0.008,0.008 -0.0276,0.0353 -0.045,0.0465 -0.045,0.0291 z m -27.33808,-0.27247 -0.0622,-0.0688 0.0688,0.0622 c 0.0641,0.0579 0.0785,0.0754 0.0622,0.0754 -0.004,0 -0.0346,-0.031 -0.0688,-0.0688 z m 6.95866,-0.0738 -0.004,-0.15317 -0.6932,-0.006 -0.69321,-0.006 0.69387,-0.005 c 0.56777,-0.004 0.69587,2.2e-4 0.70488,0.0237 0.006,0.0158 0.008,0.0896 0.003,0.16405 l -0.008,0.13535 z m 21.80167,8e-5 -0.004,-0.15309 -0.53446,-0.006 -0.53446,-0.006 0.53513,-0.005 c 0.43415,-0.004 0.5372,5e-4 0.54613,0.0238 0.006,0.0158 0.008,0.0896 0.003,0.16405 l -0.008,0.13535 z m 6.90033,-1e-4 -0.004,-0.15319 -0.7567,-0.006 -0.75671,-0.006 0.75737,-0.005 c 0.62122,-0.004 0.75935,1.5e-4 0.76838,0.0237 0.006,0.0158 0.008,0.0896 0.003,0.16405 l -0.008,0.13535 z m -21.41617,0.0315 -0.0403,-0.0476 0.0476,0.0403 c 0.0448,0.0379 0.0573,0.0549 0.0403,0.0549 -0.004,0 -0.0254,-0.0214 -0.0476,-0.0476 z m -36.03694,-0.13758 c -0.0263,-0.0336 -0.0256,-0.0343 0.008,-0.008 0.0353,0.0276 0.0465,0.045 0.029,0.045 -0.004,0 -0.0211,-0.0167 -0.037,-0.037 z m 42.6085,0 c -0.0263,-0.0336 -0.0256,-0.0343 0.008,-0.008 0.0353,0.0276 0.0465,0.045 0.029,0.045 -0.004,0 -0.0211,-0.0167 -0.037,-0.037 z m -42.76944,-0.0623 c 0.0206,-0.005 0.0492,-0.005 0.0635,7.9e-4 0.0143,0.006 -0.003,0.0102 -0.0374,0.01 -0.0349,-4.3e-4 -0.0466,-0.005 -0.0261,-0.0105 z m 6.55206,-10e-4 c 0.21321,-0.003 0.55611,-0.003 0.762,2e-5 0.20588,0.003 0.0314,0.006 -0.38767,0.006 -0.4191,-10e-6 -0.58755,-0.003 -0.37433,-0.006 z m 6.73096,1e-5 c 0.1899,-0.004 0.4947,-0.004 0.67733,2e-5 0.18262,0.004 0.0272,0.006 -0.34529,0.006 -0.37254,-1e-5 -0.52196,-0.003 -0.33204,-0.006 z m 7.64083,8e-5 c 0.0966,-0.004 0.249,-0.004 0.33867,5e-5 0.0897,0.004 0.0106,0.007 -0.17563,0.007 -0.18627,-2e-5 -0.25963,-0.003 -0.16304,-0.007 z m 13.83142,-6e-5 c 0.18335,-0.004 0.48339,-0.004 0.66675,0 0.18335,0.004 0.0333,0.006 -0.33338,0.006 -0.36671,0 -0.51673,-0.003 -0.33337,-0.006 z m 7.85323,0.001 c 0.0206,-0.005 0.0492,-0.005 0.0635,7.8e-4 0.0143,0.006 -0.003,0.0102 -0.0374,0.01 -0.0349,-4.3e-4 -0.0466,-0.005 -0.0261,-0.0105 z m -56.201523,-1.16186 c 0.001,-0.0247 0.006,-0.0297 0.01279,-0.0128 0.0061,0.0153 0.0054,0.0335 -0.0017,0.0406 -0.007,0.007 -0.01204,-0.005 -0.01112,-0.0278 z m 3.175,-0.127 c 10e-4,-0.0247 0.006,-0.0297 0.01279,-0.0128 0.0061,0.0153 0.0054,0.0335 -0.0017,0.0406 -0.007,0.007 -0.01204,-0.005 -0.01112,-0.0278 z M 89.155206,127.095 c 8.4e-5,-0.0931 0.0038,-0.1286 0.0083,-0.0788 0.0045,0.0498 0.0044,0.12599 -1.48e-4,0.16934 -0.0045,0.0434 -0.0082,0.003 -0.0081,-0.0905 z m -0.508914,0.0106 c 0,-0.064 0.004,-0.0902 0.0088,-0.0582 0.0049,0.032 0.0049,0.0844 0,0.11642 -0.0048,0.032 -0.0088,0.006 -0.0088,-0.0582 z m 3.193166,-0.33866 c 0,-0.0291 0.0048,-0.041 0.01068,-0.0265 0.0059,0.0145 0.0059,0.0384 0,0.0529 -0.0059,0.0146 -0.01068,0.003 -0.01068,-0.0264 z m -0.509671,-0.0123 c 0.001,-0.0247 0.006,-0.0297 0.01279,-0.0128 0.0061,0.0153 0.0054,0.0335 -0.0017,0.0406 -0.007,0.007 -0.01204,-0.005 -0.01112,-0.0278 z m 25.789513,-2.18899 c 0,-1.16998 0.003,-1.64862 0.006,-1.06362 0.003,0.58499 0.003,1.54225 0,2.12725 -0.003,0.58499 -0.006,0.10636 -0.006,-1.06363 z m 10.66776,0.83609 c 0,-0.71015 0.003,-0.99759 0.006,-0.63877 0.003,0.35882 0.003,0.93984 0,1.29116 -0.003,0.35133 -0.006,0.0577 -0.006,-0.65239 z m 4.52868,0.84666 c 2e-5,-0.24447 0.003,-0.34159 0.007,-0.2158 0.004,0.12578 0.004,0.3258 0,0.4445 -0.004,0.11869 -0.007,0.0158 -0.007,-0.2287 z m 5.35615,-0.83608 c 0,-0.70432 0.003,-0.99245 0.006,-0.64029 0.003,0.35216 0.003,0.92842 0,1.28058 -0.003,0.35216 -0.006,0.064 -0.006,-0.64029 z m 0.88928,0.42333 3.6e-4,-0.83608 1.69819,-0.005 1.6982,-0.005 0.006,-0.4338 0.006,-0.43381 -6.5e-4,0.43923 -6.6e-4,0.43922 -1.69838,0.005 -1.69838,0.005 -0.006,0.83067 -0.006,0.83067 z m 13.10091,0.41275 c 1e-5,-0.24447 0.003,-0.34159 0.007,-0.2158 0.004,0.12578 0.004,0.3258 0,0.4445 -0.004,0.11869 -0.007,0.0158 -0.007,-0.2287 z m -29.73956,0.32279 -0.0403,-0.0476 0.0476,0.0403 c 0.0448,0.0379 0.0573,0.0549 0.0403,0.0549 -0.004,0 -0.0255,-0.0214 -0.0476,-0.0476 z m -1.22766,-0.0212 -0.0403,-0.0476 0.0476,0.0403 c 0.0447,0.0379 0.0573,0.0549 0.0403,0.0549 -0.004,0 -0.0255,-0.0214 -0.0476,-0.0476 z m 1.05833,-0.16934 -0.0403,-0.0476 0.0476,0.0403 c 0.0448,0.0379 0.0573,0.0549 0.0403,0.0549 -0.004,0 -0.0254,-0.0214 -0.0476,-0.0476 z m -1.22767,-0.0212 -0.0403,-0.0476 0.0476,0.0403 c 0.0447,0.0379 0.0573,0.0549 0.0403,0.0549 -0.004,0 -0.0254,-0.0214 -0.0476,-0.0476 z m 1.05834,-0.16934 -0.0403,-0.0476 0.0476,0.0403 c 0.0447,0.0379 0.0573,0.0549 0.0403,0.0549 -0.004,0 -0.0254,-0.0214 -0.0476,-0.0476 z m -32.010906,-0.007 c 0.001,-0.0247 0.006,-0.0297 0.01279,-0.0128 0.0061,0.0153 0.0054,0.0335 -0.0017,0.0406 -0.007,0.007 -0.01204,-0.005 -0.01112,-0.0278 z m 30.783236,-0.0141 -0.0403,-0.0476 0.0476,0.0403 c 0.0448,0.0379 0.0573,0.0549 0.0403,0.0549 -0.004,0 -0.0254,-0.0214 -0.0476,-0.0476 z m -29.426899,-0.10054 c 0,-0.0291 0.0048,-0.041 0.01068,-0.0265 0.0059,0.0145 0.0059,0.0384 0,0.0529 -0.0059,0.0146 -0.01068,0.003 -0.01068,-0.0265 z m 29.257569,-0.09 -0.0403,-0.0476 0.0476,0.0403 c 0.0448,0.0379 0.0573,0.0549 0.0403,0.0549 -0.004,0 -0.0255,-0.0214 -0.0476,-0.0476 z m 1.2065,0 -0.0403,-0.0476 0.0476,0.0403 c 0.0447,0.0379 0.0573,0.0549 0.0403,0.0549 -0.004,0 -0.0254,-0.0214 -0.0476,-0.0476 z m -31.836901,-0.20638 c 0,-0.064 0.004,-0.0902 0.0088,-0.0582 0.0049,0.032 0.0049,0.0844 0,0.11642 -0.0048,0.032 -0.0088,0.006 -0.0088,-0.0582 z m 0.990162,0.03 c 0.001,-0.0247 0.006,-0.0297 0.01279,-0.0128 0.0061,0.0153 0.0054,0.0335 -0.0017,0.0406 -0.007,0.007 -0.01204,-0.005 -0.01112,-0.0278 z m 29.470899,-0.0141 -0.0403,-0.0476 0.0476,0.0403 c 0.0448,0.0379 0.0573,0.0549 0.0403,0.0549 -0.004,0 -0.0255,-0.0214 -0.0476,-0.0476 z m 1.2065,0 -0.0403,-0.0476 0.0476,0.0403 c 0.0447,0.0379 0.0573,0.0549 0.0403,0.0549 -0.004,0 -0.0254,-0.0214 -0.0476,-0.0476 z m -1.37583,-0.1905 -0.0403,-0.0476 0.0476,0.0403 c 0.0448,0.0379 0.0573,0.0549 0.0403,0.0549 -0.004,0 -0.0254,-0.0214 -0.0476,-0.0476 z m 1.18533,-0.0212 -0.0403,-0.0476 0.0476,0.0403 c 0.0447,0.0379 0.0573,0.0549 0.0403,0.0549 -0.004,0 -0.0254,-0.0214 -0.0476,-0.0476 z m -31.097066,-0.0476 c 2.35e-4,-0.0466 0.0046,-0.0631 0.0096,-0.0368 0.0051,0.0263 0.0049,0.0644 -4.27e-4,0.0847 -0.0053,0.0202 -0.0094,-10e-4 -0.0092,-0.0479 z m 29.752296,-0.11113 c -0.0263,-0.0336 -0.0256,-0.0343 0.008,-0.008 0.0353,0.0276 0.0465,0.045 0.029,0.045 -0.004,0 -0.0211,-0.0167 -0.037,-0.037 z m 1.17544,-0.0318 -0.0403,-0.0476 0.0476,0.0403 c 0.0448,0.0379 0.0573,0.0549 0.0403,0.0549 -0.004,0 -0.0254,-0.0214 -0.0476,-0.0476 z m -33.001713,-0.0517 c 0.0206,-0.005 0.04917,-0.005 0.0635,7.9e-4 0.01433,0.006 -0.0025,0.0102 -0.03744,0.01 -0.03493,-4.3e-4 -0.04665,-0.005 -0.02606,-0.0105 z m 4.741334,0 c 0.02059,-0.005 0.04917,-0.005 0.0635,7.9e-4 0.01433,0.006 -0.0025,0.0102 -0.03744,0.01 -0.03493,-4.3e-4 -0.04665,-0.005 -0.02606,-0.0105 z m -2.05719,-0.0823 c 0.001,-0.0247 0.006,-0.0297 0.01279,-0.0128 0.0061,0.0153 0.0054,0.0335 -0.0017,0.0406 -0.007,0.007 -0.01204,-0.005 -0.01112,-0.0278 z m 28.972799,-0.0247 c -0.0263,-0.0336 -0.0256,-0.0343 0.008,-0.008 0.0353,0.0276 0.0465,0.045 0.029,0.045 -0.004,0 -0.0211,-0.0167 -0.037,-0.037 z m 38.7985,-0.16933 c -0.0263,-0.0336 -0.0256,-0.0343 0.008,-0.008 0.0353,0.0277 0.0465,0.045 0.0291,0.045 -0.004,0 -0.0211,-0.0167 -0.037,-0.037 z m -38.96784,-0.0212 c -0.0263,-0.0336 -0.0256,-0.0343 0.008,-0.008 0.0353,0.0276 0.0465,0.045 0.029,0.045 -0.004,0 -0.0211,-0.0167 -0.037,-0.037 z m 11.03011,-0.0423 1.6929,-0.006 0.006,-0.42849 0.006,-0.4285 -6.3e-4,0.43391 -6.4e-4,0.43392 -1.69862,1.9e-4 -1.69863,1.9e-4 1.69291,-0.006 z m 27.83189,-0.0636 c -0.0263,-0.0336 -0.0256,-0.0343 0.008,-0.008 0.0352,0.0276 0.0465,0.045 0.0291,0.045 -0.004,0 -0.0211,-0.0167 -0.0371,-0.037 z m -39.02006,-0.0741 -0.0403,-0.0476 0.0476,0.0403 c 0.0447,0.0379 0.0573,0.0549 0.0403,0.0549 -0.004,0 -0.0254,-0.0214 -0.0476,-0.0476 z m 40.0149,-0.0529 c -0.0263,-0.0336 -0.0256,-0.0343 0.008,-0.008 0.0353,0.0277 0.0465,0.045 0.029,0.045 -0.004,0 -0.0211,-0.0167 -0.037,-0.037 z m -40.18423,-0.13759 -0.0403,-0.0476 0.0476,0.0403 c 0.0448,0.0379 0.0573,0.0549 0.0403,0.0549 -0.004,0 -0.0254,-0.0214 -0.0476,-0.0476 z m -0.16933,-0.1905 -0.0403,-0.0476 0.0476,0.0403 c 0.0448,0.0379 0.0573,0.0549 0.0403,0.0549 -0.004,0 -0.0255,-0.0214 -0.0476,-0.0476 z m 38.91422,-0.0741 c -0.0263,-0.0336 -0.0256,-0.0343 0.008,-0.008 0.0353,0.0277 0.0465,0.045 0.0291,0.045 -0.004,0 -0.0211,-0.0167 -0.037,-0.037 z m -38.36566,-0.0423 c 0.34718,-0.003 0.90915,-0.003 1.24884,0 0.33968,0.003 0.0556,0.006 -0.63123,0.006 -0.68685,0 -0.96478,-0.003 -0.61761,-0.006 z m 38.25983,-0.0847 c -0.0263,-0.0336 -0.0256,-0.0343 0.008,-0.008 0.0204,0.016 0.037,0.0327 0.037,0.037 0,0.0174 -0.0174,0.006 -0.045,-0.029 z m 1.10067,0 c -0.0263,-0.0336 -0.0256,-0.0343 0.008,-0.008 0.0204,0.016 0.037,0.0327 0.037,0.037 0,0.0174 -0.0174,0.006 -0.045,-0.029 z m -0.10584,-0.127 c -0.0263,-0.0336 -0.0256,-0.0343 0.008,-0.008 0.0204,0.016 0.037,0.0326 0.037,0.037 0,0.0174 -0.0174,0.006 -0.045,-0.029 z m -36.21179,-0.1023 c 0.001,-0.0247 0.006,-0.0297 0.0128,-0.0128 0.006,0.0153 0.005,0.0335 -0.002,0.0406 -0.007,0.007 -0.012,-0.005 -0.0111,-0.0278 z m 34.77246,-0.29987 c -0.0263,-0.0336 -0.0256,-0.0343 0.008,-0.008 0.0353,0.0276 0.0465,0.045 0.029,0.045 -0.004,0 -0.0211,-0.0167 -0.037,-0.0371 z m -34.77246,-0.1023 c 0.001,-0.0247 0.006,-0.0297 0.0128,-0.0128 0.006,0.0153 0.005,0.0335 -0.002,0.0406 -0.007,0.007 -0.012,-0.005 -0.0111,-0.0278 z m 34.66663,-0.0247 c -0.0263,-0.0336 -0.0256,-0.0343 0.008,-0.008 0.0353,0.0277 0.0465,0.045 0.0291,0.045 -0.004,0 -0.0211,-0.0167 -0.037,-0.037 z m 1.10066,0 c -0.0263,-0.0336 -0.0256,-0.0343 0.008,-0.008 0.0204,0.016 0.037,0.0327 0.037,0.037 0,0.0174 -0.0174,0.006 -0.045,-0.029 z m -0.10583,-0.127 c -0.0263,-0.0336 -0.0256,-0.0343 0.008,-0.008 0.0353,0.0276 0.0465,0.045 0.0291,0.045 -0.004,0 -0.0211,-0.0167 -0.037,-0.0371 z m -39.28635,-0.16932 c 0.4578,-0.003 1.20075,-0.003 1.651,0 0.45025,0.003 0.0757,0.006 -0.83237,0.006 -0.90805,0 -1.27643,-0.003 -0.81863,-0.006 z m 20.72218,0 c 0.49273,-0.003 1.29283,-0.003 1.778,0 0.48517,0.003 0.082,0.006 -0.89588,0.006 -0.9779,0 -1.37485,-0.003 -0.88212,-0.006 z m -37.88482,-0.44451 -0.43373,-0.43921 0.43921,0.43373 c 0.24157,0.23854 0.43921,0.43619 0.43921,0.4392 0,0.015 -0.0417,-0.0256 -0.44469,-0.43372 z m 36.54424,0.0106 -0.42313,-0.42862 0.42862,0.42313 c 0.23575,0.23273 0.42863,0.42561 0.42863,0.42863 0,0.015 -0.041,-0.0249 -0.43412,-0.42314 z m -9.66399,0.28575 -0.0513,-0.0582 0.0582,0.0513 c 0.032,0.0282 0.0582,0.0544 0.0582,0.0582 0,0.0166 -0.0171,0.003 -0.0651,-0.0513 z m -39.555552,-0.0688 c 0,-0.0291 0.0048,-0.041 0.01068,-0.0265 0.0059,0.0146 0.0059,0.0384 0,0.0529 -0.0059,0.0145 -0.01068,0.003 -0.01068,-0.0265 z m 67.684962,-0.0159 c -0.0263,-0.0336 -0.0256,-0.0343 0.008,-0.008 0.0353,0.0276 0.0465,0.045 0.029,0.045 -0.004,0 -0.0211,-0.0167 -0.037,-0.037 z m -28.3309,-0.13759 -0.0403,-0.0476 0.0476,0.0403 c 0.0447,0.0379 0.0573,0.0549 0.0403,0.0549 -0.004,0 -0.0254,-0.0214 -0.0476,-0.0476 z m 29.32573,0.0106 c -0.0263,-0.0336 -0.0256,-0.0343 0.008,-0.008 0.0204,0.016 0.037,0.0326 0.037,0.037 0,0.0174 -0.0174,0.006 -0.045,-0.029 z m -0.10583,-0.127 c -0.0263,-0.0336 -0.0256,-0.0343 0.008,-0.008 0.0353,0.0276 0.0465,0.045 0.0291,0.045 -0.004,0 -0.0211,-0.0167 -0.037,-0.037 z m -29.4104,-0.0952 -0.0403,-0.0476 0.0476,0.0403 c 0.0447,0.0379 0.0573,0.0549 0.0403,0.0549 -0.004,0 -0.0255,-0.0214 -0.0476,-0.0476 z m 28.0769,-0.17992 c -0.0263,-0.0336 -0.0256,-0.0343 0.008,-0.008 0.0353,0.0277 0.0465,0.045 0.029,0.045 -0.004,0 -0.0211,-0.0167 -0.037,-0.037 z m -28.27757,-0.0423 -0.0513,-0.0582 0.0582,0.0513 c 0.032,0.0282 0.0582,0.0544 0.0582,0.0582 0,0.0166 -0.0171,0.003 -0.0651,-0.0513 z M 87.047158,121.7998 c 1.760802,-0.003 4.642114,-0.003 6.402917,0 1.760802,0.003 0.320145,0.005 -3.201459,0.005 -3.521604,0 -4.96226,-0.002 -3.201458,-0.005 z"
         id="path855"
         inkscape:connector-curvature="0" />
      <path
         style="fill:#d4df4c;stroke-width:0.0211667"
         d="m 90.135041,131.54705 c -0.951606,-1.47548 -1.474989,-3.05236 -1.473537,-4.43958 0.0011,-1.00278 0.271582,-1.718 0.82137,-2.17149 0.141857,-0.11701 0.386247,-0.24839 0.509326,-0.2738 0.07046,-0.0145 0.07141,-0.0138 0.05622,0.0457 -0.162423,0.63635 -0.126452,1.3989 0.09791,2.07551 0.09805,0.29568 0.105334,0.29969 0.181771,0.10001 0.240448,-0.62814 0.304572,-1.49536 0.153887,-2.08117 l -0.03985,-0.15493 0.06728,0.0128 c 0.03701,0.007 0.143483,0.0504 0.236617,0.0964 0.533971,0.26361 0.90796,0.84323 1.052427,1.63109 0.05973,0.32574 0.0641,1.0832 0.0086,1.48166 -0.165787,1.18919 -0.61458,2.36083 -1.372255,3.58246 -0.09206,0.14843 -0.171816,0.26988 -0.177236,0.26988 -0.0054,0 -0.06054,-0.0786 -0.122479,-0.17463 z m 0.276637,-1.63512 c 0.46981,-0.84028 0.79659,-1.69269 0.904872,-2.36038 0.05982,-0.36888 0.03615,-0.9332 -0.05416,-1.29087 -0.04609,-0.18257 -0.158286,-0.4221 -0.247234,-0.52785 l -0.06121,-0.0728 -0.01451,0.28919 c -0.04614,0.91939 -0.244712,1.78516 -0.556679,2.42712 -0.132039,0.2717 -0.123515,0.26954 -0.231721,0.0586 -0.312254,-0.60864 -0.539256,-1.57645 -0.573449,-2.44487 l -0.01274,-0.32346 -0.05091,0.0478 c -0.028,0.0263 -0.07917,0.0972 -0.11372,0.15761 -0.244825,0.42791 -0.313481,1.2221 -0.165004,1.9087 0.137197,0.63444 0.511283,1.53707 0.938788,2.26519 0.09076,0.15459 0.06961,0.16652 0.237667,-0.13406 z m -2.808895,-4.65348 c -0.329076,-0.14464 -1.315221,-0.65565 -1.377447,-0.71378 -0.07828,-0.0731 -0.07766,-0.15466 0.0016,-0.2135 0.02911,-0.0216 0.662517,-0.2943 1.407584,-0.60599 l 1.354666,-0.56671 -0.0076,-0.14752 c -0.0042,-0.0811 -0.0091,-0.14931 -0.01102,-0.15149 -0.0019,-0.002 -0.750955,0.16795 -1.664587,0.37806 -1.828147,0.42043 -1.902031,0.43247 -2.095065,0.34127 -0.06615,-0.0312 -0.318053,-0.26225 -0.824574,-0.75614 -0.401129,-0.39113 -0.747119,-0.73925 -0.768868,-0.7736 -0.056,-0.0884 -0.04037,-0.152 0.04828,-0.19637 0.07018,-0.0351 0.418927,-0.0368 6.614583,-0.0318 5.767546,0.005 6.546156,0.009 6.588362,0.037 0.06504,0.0431 0.07674,0.0922 0.03925,0.16466 -0.0504,0.0975 -1.482677,1.48956 -1.593541,1.54883 -0.190717,0.10197 -0.251665,0.0924 -2.070381,-0.32507 -0.896213,-0.20573 -1.651069,-0.37946 -1.677458,-0.38608 -0.04662,-0.0117 -0.04797,-0.008 -0.04778,0.14371 l 1.9e-4,0.15575 1.368895,0.5715 c 0.752892,0.31432 1.390978,0.58886 1.417968,0.61008 0.07341,0.0577 0.06226,0.12681 -0.03364,0.20848 -0.08637,0.0735 -0.930594,0.51351 -1.313835,0.68469 -0.204413,0.0913 -0.232616,0.0984 -0.359833,0.091 -0.103199,-0.006 -0.157219,-0.0212 -0.214046,-0.0603 -0.0418,-0.0288 -0.526402,-0.53808 -1.076888,-1.1318 -0.550487,-0.59373 -1.012295,-1.09178 -1.02624,-1.10679 -0.02021,-0.0217 -0.237146,0.20081 -1.068408,1.09606 -0.692556,0.74586 -1.070488,1.13733 -1.124698,1.16499 -0.127943,0.0653 -0.293114,0.0553 -0.485498,-0.0292 z m 1.510592,-3.83965 c 0.0058,-0.0204 0.044,-0.16563 0.08481,-0.32279 0.227016,-0.87422 0.550048,-1.47779 0.946764,-1.76901 l 0.105109,-0.0772 0.08924,0.0588 c 0.124935,0.0823 0.30675,0.27553 0.424973,0.45174 0.121824,0.18158 0.304643,0.5601 0.392949,0.8136 0.07678,0.22041 0.234396,0.78734 0.234396,0.84309 0,0.0372 -0.04875,0.0388 -1.144426,0.0388 -1.079862,0 -1.143828,-0.002 -1.133815,-0.037 z"
         id="path853"
         inkscape:connector-curvature="0"
         sodipodi:nodetypes="ccsccccccccsccsccccccccccccccsccccccscccccccccccccccccccccccccccccccccccsscc" />
    </g>
  </g>
</svg>
