<svg version="1.1" id="svg8" xmlns:x="ns_extend;" xmlns:i="ns_ai;" xmlns:graph="ns_graphs;" xmlns:cc="http://creativecommons.org/ns#" xmlns:dc="http://purl.org/dc/elements/1.1/" xmlns:inkscape="http://www.inkscape.org/namespaces/inkscape" xmlns:rdf="http://www.w3.org/1999/02/22-rdf-syntax-ns#" xmlns:sodipodi="http://sodipodi.sourceforge.net/DTD/sodipodi-0.dtd" xmlns:svg="http://www.w3.org/2000/svg" xmlns="http://www.w3.org/2000/svg" xmlns:xlink="http://www.w3.org/1999/xlink" x="0px" y="0px" viewBox="0 0 467.6 75" style="enable-background:new 0 0 467.6 75;" xml:space="preserve">
 <style type="text/css">
  .st0{fill:#BABABA;}
	.st1{fill:#D4DF4C;}
	.st2{fill:#7A7A7A;}
 </style>
 <metadata id="metadata5">
  <rdf:RDF>
   <cc:Work rdf:about="">
    <dc:format>
     image/svg+xml
    </dc:format>
    <dc:type rdf:resource="http://purl.org/dc/dcmitype/StillImage">
    </dc:type>
    <dc:title>
    </dc:title>
   </cc:Work>
  </rdf:RDF>
  <sfw xmlns="ns_sfw;">
   <slices>
   </slices>
   <sliceSourceBounds bottomLeftOrigin="true" height="75" width="467.6" x="-247.2" y="0">
   </sliceSourceBounds>
  </sfw>
 </metadata>
 <sodipodi:namedview bordercolor="#666666" borderopacity="1.0" id="base" inkscape:current-layer="g847" inkscape:cx="181.24558" inkscape:cy="117.86352" inkscape:document-rotation="0" inkscape:document-units="mm" inkscape:pageopacity="0.0" inkscape:pageshadow="2" inkscape:window-height="880" inkscape:window-maximized="0" inkscape:window-width="1600" inkscape:window-x="1982" inkscape:window-y="202" inkscape:zoom="1.9291176" pagecolor="#ffffff" showgrid="false">
 </sodipodi:namedview>
 <g id="layer1" transform="translate(-85.849011,-79.184324)" inkscape:groupmode="layer" inkscape:label="Layer 1">
  <g id="g847" transform="translate(2.2678571,-40.065476)">
   <path id="path855" inkscape:connector-curvature="0" class="st0" d="M189.5,187c0.3,0,0.9,0,1.1,0c0.3,0,0,0-0.6,0
			C189.4,187.1,189.2,187.1,189.5,187L189.5,187z M201,187c0.7-0.1,1.9-0.1,1.9,0c0,0.1-0.5,0.1-1.1,0.1
			C201.2,187.1,200.9,187.1,201,187L201,187z M235.3,187c1.3,0,3.3,0,4.6,0c1.2,0,0.2,0-2.3,0C235,187.1,234,187,235.3,187
			L235.3,187z M274.6,187l0.9,0l0-4.3l0-4.3l0,4.4l0,4.4L274.6,187l-0.9,0.1L274.6,187L274.6,187z M284.7,187l1.4,0l-1.5-1.6
			l-1.5-1.6l1.6,1.5c0.9,0.8,1.6,1.6,1.6,1.6C286.2,187.1,285.6,187.1,284.7,187l-1.4,0L284.7,187L284.7,187z M321.6,187
			c0.6,0,1.6,0,2.2,0c0.6,0,0.1,0-1.1,0C321.5,187.1,321,187,321.6,187L321.6,187z M360.8,187c1.2,0,3.1,0,4.3,0c1.2,0,0.3,0-2.1,0
			C360.6,187.1,359.6,187,360.8,187L360.8,187z M403.3,187c0.3,0,0.7,0,1,0c0.3,0,0,0-0.5,0C403.3,187.1,403.1,187,403.3,187
			L403.3,187z M445.7,187c0.3,0,0.9,0,1.1,0c0.3,0,0,0-0.6,0C445.6,187.1,445.4,187,445.7,187L445.7,187z M457.3,187
			c0.7-0.1,1.9-0.1,1.9,0c0,0.1-0.5,0.1-1.1,0.1C457.5,187.1,457.1,187.1,457.3,187L457.3,187z M497.5,187l3.3,0l0-0.9l0-0.9l0,1
			l0,1L497.5,187l-3.3,0L497.5,187L497.5,187z M537.8,187l4.5,0l0-0.9l0-0.9l0,0.9l0,0.9L537.8,187l-4.5,0L537.8,187L537.8,187z
			 M281.6,185.2l-1.1-1.2L281.6,185.2c1.1,1,1.3,1.2,1.2,1.2C282.7,186.3,282.2,185.8,281.6,185.2L281.6,185.2z M369.3,186.2
			c0,0,0.1-0.1,0.2-0.2c0.2-0.2,0.2-0.2,0,0C369.4,186.2,369.3,186.3,369.3,186.2z M327.3,186c0,0,0.1-0.1,0.2-0.2
			c0.2-0.2,0.2-0.2,0,0C327.4,186.1,327.3,186.2,327.3,186L327.3,186z M234.8,181.7c0-1.9,0-2.7,0-1.8c0,0.9,0,2.5,0,3.4
			C234.9,184.3,234.8,183.6,234.8,181.7L234.8,181.7z M326.6,184.1c0.2-0.2,0.3-0.3,0.4-0.3c0,0-0.1,0.1-0.2,0.3
			c-0.2,0.2-0.3,0.3-0.4,0.3C326.3,184.4,326.4,184.3,326.6,184.1z M370.4,183.7c0-0.3,0-0.4,0.1-0.2c0,0.2,0,0.4,0,0.5
			C370.4,184.1,370.4,184,370.4,183.7L370.4,183.7z M405.8,183.1c0-0.6,0-0.8,0-0.5c0,0.3,0,0.8,0,1
			C405.8,183.9,405.8,183.7,405.8,183.1L405.8,183.1z M284.7,183c0,0,0.1-0.1,0.2-0.2c0.2-0.2,0.2-0.2,0,0
			C284.8,183,284.7,183.1,284.7,183L284.7,183z M237,182.6c0.9,0,2.2,0,3.1,0c0.8,0,0.1,0-1.6,0C236.9,182.6,236.2,182.6,237,182.6
			L237,182.6z M537.3,182.6c0.9,0,2.2,0,3.1,0c0.8,0,0.1,0-1.6,0C537.1,182.6,536.5,182.6,537.3,182.6L537.3,182.6z M327.5,182.2
			C327.5,182.1,327.5,182,327.5,182.2c0.1,0,0.1,0.1,0.1,0.2C327.5,182.4,327.4,182.3,327.5,182.2L327.5,182.2z M329.4,182.1
			C329.4,181.9,329.4,181.9,329.4,182.1c0.1,0,0.1,0.1,0.1,0.2C329.4,182.3,329.4,182.2,329.4,182.1L329.4,182.1z M369.4,181.4
			l-0.3-0.3L369.4,181.4c0.2,0.1,0.4,0.3,0.4,0.3C369.8,181.8,369.7,181.7,369.4,181.4z M412.1,181.7c0,0,0.1-0.1,0.2-0.2
			c0.2-0.2,0.2-0.2,0,0C412.2,181.8,412.1,181.8,412.1,181.7L412.1,181.7z M283.3,181.6c0,0,0.1-0.1,0.2-0.2c0.2-0.2,0.2-0.2,0,0
			C283.4,181.6,283.3,181.7,283.3,181.6L283.3,181.6z M329.4,181.1c0-0.2,0-0.2,0.1-0.2c0,0.1,0,0.2,0,0.3S329.4,181.3,329.4,181.1
			L329.4,181.1z M318.5,179.4c0,0,0.1-0.1,0.2-0.2c0.2-0.2,0.2-0.2,0,0C318.6,179.5,318.5,179.5,318.5,179.4L318.5,179.4z
			 M492.3,179.4c0,0,0.1-0.1,0.2-0.2c0.2-0.2,0.2-0.2,0,0C492.4,179.5,492.3,179.5,492.3,179.4L492.3,179.4z M327.9,177.8l-0.4-0.4
			L327.9,177.8c0.4,0.3,0.5,0.4,0.4,0.4C328.3,178.2,328.1,178,327.9,177.8L327.9,177.8z M369.7,177.3l0-0.9l-4.2,0l-4.2,0l4.2,0
			c3.4,0,4.2,0,4.2,0.1c0,0.1,0,0.5,0,1l0,0.8L369.7,177.3z M500.8,177.3l0-0.9l-3.2,0l-3.2,0l3.2,0c2.6,0,3.2,0,3.3,0.1
			c0,0.1,0,0.5,0,1l0,0.8L500.8,177.3z M542.3,177.3l0-0.9l-4.6,0l-4.6,0l4.6,0c3.7,0,4.6,0,4.6,0.1c0,0.1,0,0.5,0,1l0,0.8
			L542.3,177.3z M413.5,177.5l-0.2-0.3L413.5,177.5c0.3,0.2,0.4,0.3,0.3,0.3C413.8,177.8,413.7,177.7,413.5,177.5L413.5,177.5z
			 M196.8,176.7C196.7,176.5,196.7,176.5,196.8,176.7c0.3,0.1,0.3,0.2,0.2,0.2C197,176.9,196.9,176.8,196.8,176.7z M453.1,176.7
			C452.9,176.5,452.9,176.5,453.1,176.7c0.3,0.1,0.3,0.2,0.2,0.2C453.3,176.9,453.2,176.8,453.1,176.7z M195.9,176.3
			c0.1,0,0.3,0,0.4,0c0.1,0,0,0.1-0.2,0.1C195.8,176.4,195.7,176.4,195.9,176.3L195.9,176.3z M235.3,176.3c1.3,0,3.3,0,4.6,0
			c1.2,0,0.2,0-2.3,0C235,176.4,234,176.3,235.3,176.3L235.3,176.3z M275.7,176.3c1.1,0,3,0,4.1,0c1.1,0,0.2,0-2.1,0
			C275.5,176.4,274.6,176.3,275.7,176.3L275.7,176.3z M321.7,176.3c0.6,0,1.5,0,2,0c0.5,0,0.1,0-1.1,0
			C321.5,176.4,321.1,176.4,321.7,176.3L321.7,176.3z M404.9,176.3c1.1,0,2.9,0,4,0c1.1,0,0.2,0-2,0
			C404.7,176.4,403.8,176.3,404.9,176.3z M452.1,176.3c0.1,0,0.3,0,0.4,0c0.1,0,0,0.1-0.2,0.1C452,176.4,452,176.4,452.1,176.3
			L452.1,176.3z M114.1,169.3C114.1,169.2,114.2,169.2,114.1,169.3c0.1,0,0.1,0.1,0.1,0.2C114.1,169.6,114.1,169.5,114.1,169.3
			L114.1,169.3z M133.2,168.6C133.2,168.4,133.2,168.4,133.2,168.6c0.1,0,0.1,0.1,0.1,0.2C133.2,168.8,133.2,168.7,133.2,168.6
			L133.2,168.6z M117.1,166.4c0-0.6,0-0.8,0-0.5c0,0.3,0,0.8,0,1C117.1,167.2,117.1,167,117.1,166.4L117.1,166.4z M114,166.5
			c0-0.4,0-0.5,0.1-0.3c0,0.2,0,0.5,0,0.7C114,167,114,166.9,114,166.5L114,166.5z M133.2,164.5c0-0.2,0-0.2,0.1-0.2
			c0,0.1,0,0.2,0,0.3C133.3,164.7,133.2,164.6,133.2,164.5L133.2,164.5z M130.2,164.4C130.2,164.2,130.2,164.2,130.2,164.4
			c0.1,0,0.1,0.1,0.1,0.2C130.2,164.6,130.2,164.5,130.2,164.4L130.2,164.4z M285.2,151.2c0-7,0-9.9,0-6.4c0,3.5,0,9.3,0,12.8
			C285.3,161.1,285.2,158.3,285.2,151.2z M349.4,156.2c0-4.3,0-6,0-3.8c0,2.2,0,5.7,0,7.8C349.4,162.3,349.4,160.5,349.4,156.2z
			 M376.6,161.3c0-1.5,0-2.1,0-1.3c0,0.8,0,2,0,2.7C376.6,163.4,376.6,162.8,376.6,161.3L376.6,161.3z M408.8,156.3c0-4.2,0-6,0-3.9
			c0,2.1,0,5.6,0,7.7S408.8,160.5,408.8,156.3z M414.2,158.9l0-5l10.2,0l10.2,0l0-2.6l0-2.6l0,2.6l0,2.6l-10.2,0l-10.2,0
			L414.2,158.9l0,5L414.2,158.9z M493,161.3c0-1.5,0-2.1,0-1.3c0,0.8,0,2,0,2.7C493,163.4,493,162.8,493,161.3L493,161.3z
			 M314.1,163.3l-0.2-0.3L314.1,163.3c0.3,0.2,0.4,0.3,0.3,0.3C314.4,163.6,314.3,163.4,314.1,163.3z M306.7,163.2l-0.2-0.3
			L306.7,163.2c0.3,0.2,0.4,0.3,0.3,0.3C307,163.4,306.9,163.3,306.7,163.2z M313.1,162.1l-0.2-0.3L313.1,162.1
			c0.3,0.2,0.4,0.3,0.3,0.3C313.4,162.4,313.2,162.3,313.1,162.1z M305.7,162l-0.2-0.3L305.7,162c0.3,0.2,0.4,0.3,0.3,0.3
			C306,162.3,305.9,162.2,305.7,162z M312.1,161l-0.2-0.3L312.1,161c0.3,0.2,0.4,0.3,0.3,0.3C312.4,161.3,312.2,161.1,312.1,161z
			 M119.6,160.9C119.6,160.8,119.6,160.8,119.6,160.9c0.1,0,0.1,0.1,0.1,0.2C119.6,161.2,119.6,161.1,119.6,160.9L119.6,160.9z
			 M304.7,160.9l-0.2-0.3L304.7,160.9c0.3,0.2,0.4,0.3,0.3,0.3C305,161.1,304.8,161,304.7,160.9z M127.7,160.3c0-0.2,0-0.2,0.1-0.2
			c0,0.1,0,0.2,0,0.3C127.8,160.5,127.7,160.4,127.7,160.3L127.7,160.3z M303.7,159.7l-0.2-0.3L303.7,159.7c0.3,0.2,0.4,0.3,0.3,0.3
			C304,160,303.8,159.9,303.7,159.7z M310.9,159.7l-0.2-0.3L310.9,159.7c0.3,0.2,0.4,0.3,0.3,0.3C311.2,160,311.1,159.9,310.9,159.7
			z M119.5,158.5c0-0.4,0-0.5,0.1-0.3c0,0.2,0,0.5,0,0.7C119.5,159,119.5,158.9,119.5,158.5L119.5,158.5z M125.4,158.7
			C125.5,158.5,125.5,158.5,125.4,158.7c0.1,0,0.1,0.1,0.1,0.2C125.5,158.9,125.4,158.8,125.4,158.7L125.4,158.7z M302.7,158.6
			l-0.2-0.3L302.7,158.6c0.3,0.2,0.4,0.3,0.3,0.3C302.9,158.9,302.8,158.7,302.7,158.6z M309.9,158.6l-0.2-0.3L309.9,158.6
			c0.3,0.2,0.4,0.3,0.3,0.3C310.2,158.9,310.1,158.7,309.9,158.6z M301.7,157.4l-0.2-0.3L301.7,157.4c0.3,0.2,0.4,0.3,0.3,0.3
			C301.9,157.7,301.8,157.6,301.7,157.4z M308.8,157.3l-0.2-0.3L308.8,157.3c0.3,0.2,0.4,0.3,0.3,0.3
			C309,157.6,308.9,157.5,308.8,157.3z M121.8,157c0-0.3,0-0.4,0.1-0.2c0,0.2,0,0.4,0,0.5C121.8,157.4,121.8,157.3,121.8,157
			L121.8,157z M300.7,156.3C300.5,156.1,300.5,156.1,300.7,156.3c0.3,0.1,0.3,0.2,0.2,0.2C300.9,156.6,300.8,156.5,300.7,156.3
			L300.7,156.3z M307.8,156.1l-0.2-0.3L307.8,156.1c0.3,0.2,0.4,0.3,0.3,0.3C308,156.4,307.9,156.3,307.8,156.1z M109.3,155.8
			c0.1,0,0.3,0,0.4,0c0.1,0,0,0.1-0.2,0.1C109.3,155.9,109.2,155.9,109.3,155.8L109.3,155.8z M137.8,155.8c0.1,0,0.3,0,0.4,0
			c0.1,0,0,0.1-0.2,0.1C137.8,155.9,137.7,155.9,137.8,155.8L137.8,155.8z M125.4,155.3C125.5,155.2,125.5,155.2,125.4,155.3
			c0.1,0,0.1,0.1,0.1,0.2C125.5,155.6,125.4,155.5,125.4,155.3L125.4,155.3z M299.7,155.2C299.5,155,299.5,155,299.7,155.2
			c0.3,0.1,0.3,0.2,0.2,0.2C299.9,155.4,299.8,155.3,299.7,155.2L299.7,155.2z M533,154.2C532.8,154,532.8,154,533,154.2
			c0.3,0.1,0.3,0.2,0.2,0.2C533.2,154.4,533.1,154.3,533,154.2L533,154.2z M298.7,154C298.5,153.8,298.5,153.8,298.7,154
			c0.3,0.1,0.3,0.2,0.2,0.2C298.9,154.3,298.8,154.2,298.7,154L298.7,154z M365,153.8l10.2,0l0-2.6l0-2.6l0,2.6l0,2.6L365,153.8
			l-10.2,0L365,153.8L365,153.8z M532.4,153.4C532.2,153.2,532.2,153.2,532.4,153.4c0.3,0.1,0.3,0.2,0.2,0.2
			C532.6,153.6,532.5,153.5,532.4,153.4L532.4,153.4z M297.7,153l-0.2-0.3L297.7,153c0.3,0.2,0.4,0.3,0.3,0.3
			C298,153.3,297.8,153.1,297.7,153z M538.3,152.6C538.2,152.4,538.2,152.4,538.3,152.6c0.3,0.1,0.3,0.2,0.2,0.2
			C538.5,152.9,538.4,152.8,538.3,152.6L538.3,152.6z M296.7,151.8l-0.2-0.3L296.7,151.8c0.3,0.2,0.4,0.3,0.3,0.3
			C297,152.1,296.8,152,296.7,151.8z M295.7,150.7l-0.2-0.3L295.7,150.7c0.3,0.2,0.4,0.3,0.3,0.3C295.9,151,295.8,150.8,295.7,150.7
			z M529.7,150.2C529.5,150,529.5,150,529.7,150.2c0.3,0.1,0.3,0.2,0.2,0.2C529.9,150.5,529.8,150.4,529.7,150.2L529.7,150.2z
			 M299,150c2.1,0,5.5,0,7.5,0c2,0,0.3,0-3.8,0C298.6,150,296.9,150,299,150z M529,149.5C528.9,149.3,528.9,149.3,529,149.5
			c0.2,0,0.3,0.1,0.3,0.2C529.3,149.7,529.2,149.7,529,149.5z M535.7,149.5C535.5,149.3,535.5,149.3,535.7,149.5
			c0.2,0,0.3,0.1,0.3,0.2C535.9,149.7,535.8,149.7,535.7,149.5z M535,148.7C534.9,148.5,534.9,148.5,535,148.7
			c0.2,0,0.3,0.1,0.3,0.2C535.3,149,535.2,148.9,535,148.7z M317.3,148.1C317.3,147.9,317.3,147.9,317.3,148.1
			c0.1,0,0.1,0.1,0.1,0.2C317.3,148.3,317.3,148.2,317.3,148.1L317.3,148.1z M526.4,146.3C526.2,146.1,526.2,146.1,526.4,146.3
			c0.3,0.1,0.3,0.2,0.2,0.2C526.6,146.5,526.5,146.4,526.4,146.3L526.4,146.3z M317.3,145.7C317.3,145.5,317.3,145.5,317.3,145.7
			c0.1,0,0.1,0.1,0.1,0.2C317.3,145.9,317.3,145.8,317.3,145.7L317.3,145.7z M525.7,145.5C525.6,145.3,525.6,145.3,525.7,145.5
			c0.3,0.1,0.3,0.2,0.2,0.2C525.9,145.7,525.8,145.6,525.7,145.5L525.7,145.5z M532.4,145.5C532.2,145.3,532.2,145.3,532.4,145.5
			c0.2,0,0.3,0.1,0.3,0.2C532.6,145.8,532.5,145.7,532.4,145.5z M531.7,144.8C531.6,144.6,531.6,144.6,531.7,144.8
			c0.3,0.1,0.3,0.2,0.2,0.2C531.9,145,531.8,144.9,531.7,144.8L531.7,144.8z M295.5,143.7c2.8,0,7.2,0,9.9,0c2.7,0,0.5,0-5,0
			C294.9,143.8,292.7,143.8,295.5,143.7L295.5,143.7z M420.1,143.7c3,0,7.8,0,10.7,0c2.9,0,0.5,0-5.4,0
			C419.5,143.8,417.1,143.8,420.1,143.7z M192.3,141.1l-2.6-2.6L192.3,141.1c1.5,1.4,2.7,2.6,2.7,2.6
			C194.9,143.8,194.7,143.5,192.3,141.1z M412,141.1l-2.5-2.6L412,141.1c1.5,1.4,2.6,2.5,2.6,2.5C414.6,143.8,414.4,143.5,412,141.1
			L412,141.1z M353.9,142.8l-0.3-0.3L353.9,142.8c0.2,0.1,0.4,0.3,0.4,0.3C354.3,143.3,354.2,143.2,353.9,142.8z M116,142.4
			c0-0.2,0-0.2,0.1-0.2c0,0.1,0,0.2,0,0.3C116.1,142.7,116,142.6,116,142.4L116,142.4z M523.1,142.3
			C522.9,142.1,522.9,142.1,523.1,142.3c0.3,0.1,0.3,0.2,0.2,0.2C523.3,142.6,523.2,142.5,523.1,142.3L523.1,142.3z M352.7,141.5
			l-0.2-0.3L352.7,141.5c0.3,0.2,0.4,0.3,0.3,0.3C353,141.8,352.8,141.7,352.7,141.5z M529,141.6C528.9,141.4,528.9,141.4,529,141.6
			c0.2,0,0.3,0.1,0.3,0.2C529.3,141.9,529.2,141.8,529,141.6z M528.4,140.8C528.3,140.6,528.3,140.6,528.4,140.8
			c0.3,0.1,0.3,0.2,0.2,0.2C528.6,141,528.5,140.9,528.4,140.8L528.4,140.8z M351.6,140.2l-0.2-0.3L351.6,140.2
			c0.3,0.2,0.4,0.3,0.3,0.3C351.8,140.5,351.7,140.4,351.6,140.2z M520.4,139.2C520.2,139,520.2,138.9,520.4,139.2
			c0.3,0.1,0.3,0.2,0.2,0.2C520.6,139.4,520.5,139.3,520.4,139.2L520.4,139.2z M350.3,138.9l-0.3-0.3L350.3,138.9
			c0.2,0.1,0.4,0.3,0.4,0.3C350.7,139.3,350.6,139.2,350.3,138.9L350.3,138.9z M104.4,134.6c10.6,0,27.9,0,38.5,0s1.9,0-19.3,0
			S93.8,134.6,104.4,134.6L104.4,134.6z">
   </path>
   <path id="path853" inkscape:connector-curvature="0" class="st1" d="M123,193.2c-5.7-8.9-8.9-18.4-8.9-26.7c0-6,1.6-10.3,4.9-13.1
			c0.9-0.7,2.3-1.5,3.1-1.6c0.4-0.1,0.4-0.1,0.3,0.3c-1,3.8-0.8,8.4,0.6,12.5c0.6,1.8,0.6,1.8,1.1,0.6c1.4-3.8,1.8-9,0.9-12.5
			l-0.2-0.9l0.4,0.1c0.2,0,0.9,0.3,1.4,0.6c3.2,1.6,5.5,5.1,6.3,9.8c0.4,2,0.4,6.5,0.1,8.9c-1,7.2-3.7,14.2-8.3,21.5
			c-0.6,0.9-1,1.6-1.1,1.6C123.7,194.2,123.3,193.8,123,193.2L123,193.2z M124.6,183.4c2.8-5.1,4.8-10.2,5.4-14.2
			c0.4-2.2,0.2-5.6-0.3-7.8c-0.3-1.1-1-2.5-1.5-3.2l-0.4-0.4l-0.1,1.7c-0.3,5.5-1.5,10.7-3.3,14.6c-0.8,1.6-0.7,1.6-1.4,0.4
			c-1.9-3.7-3.2-9.5-3.4-14.7l-0.1-1.9l-0.3,0.3c-0.2,0.2-0.5,0.6-0.7,0.9c-1.5,2.6-1.9,7.3-1,11.5c0.8,3.8,3.1,9.2,5.6,13.6
			C123.8,185.1,123.6,185.2,124.6,183.4L124.6,183.4z M107.7,155.4c-2-0.9-7.9-3.9-8.3-4.3c-0.5-0.4-0.5-0.9,0-1.3
			c0.2-0.1,4-1.8,8.5-3.6l8.1-3.4l0-0.9c0-0.5-0.1-0.9-0.1-0.9c0,0-4.5,1-10,2.3c-11,2.5-11.4,2.6-12.6,2.1c-0.4-0.2-1.9-1.6-5-4.5
			c-2.4-2.4-4.5-4.4-4.6-4.7c-0.3-0.5-0.2-0.9,0.3-1.2c0.4-0.2,2.5-0.2,39.8-0.2c34.7,0,39.4,0.1,39.6,0.2c0.4,0.3,0.5,0.6,0.2,1
			c-0.3,0.6-8.9,9-9.6,9.3c-1.1,0.6-1.5,0.6-12.5-2c-5.4-1.2-9.9-2.3-10.1-2.3c-0.3-0.1-0.3,0-0.3,0.9l0,0.9l8.2,3.4
			c4.5,1.9,8.4,3.5,8.5,3.7c0.4,0.3,0.4,0.8-0.2,1.3c-0.5,0.4-5.6,3.1-7.9,4.1c-1.2,0.5-1.4,0.6-2.2,0.5c-0.6,0-0.9-0.1-1.3-0.4
			c-0.3-0.2-3.2-3.2-6.5-6.8c-3.3-3.6-6.1-6.6-6.2-6.7c-0.1-0.1-1.4,1.2-6.4,6.6c-4.2,4.5-6.4,6.8-6.8,7
			C109.9,156,108.9,155.9,107.7,155.4L107.7,155.4z M540.5,147.8c-1.6-1.9-1.6-1.9-1.4-2.2c0.1-0.2,1.5-1.8,3-3.7l2.8-3.4h3.2
			c1.7,0,3.2,0,3.2,0.1c0,0.1-8.7,10.7-9,11C542.1,149.7,541.8,149.3,540.5,147.8L540.5,147.8z M116.8,132.3c0-0.1,0.3-1,0.5-1.9
			c1.4-5.3,3.3-8.9,5.7-10.6l0.6-0.5l0.5,0.4c0.8,0.5,1.8,1.7,2.6,2.7c0.7,1.1,1.8,3.4,2.4,4.9c0.5,1.3,1.4,4.7,1.4,5.1
			c0,0.2-0.3,0.2-6.9,0.2C117.2,132.5,116.8,132.5,116.8,132.3L116.8,132.3z">
   </path>
   <path id="path851" inkscape:connector-curvature="0" class="st2" d="M232.9,181.7c0-2.9,0-4.1,0-2.6c0,1.5,0,3.9,0,5.3
			C232.9,185.9,232.9,184.7,232.9,181.7L232.9,181.7z M241.9,186.1l0-0.9l-3.6,0l-3.6,0l3.6,0c2.9,0,3.6,0,3.7,0.1c0,0.1,0,0.5,0,1
			l0,0.8L241.9,186.1z M273.7,181.7c0-2.9,0-4.1,0-2.6c0,1.5,0,3.9,0,5.3C273.7,185.9,273.7,184.7,273.7,181.7L273.7,181.7z
			 M283,186.6l-0.3-0.3L283,186.6c0.2,0.1,0.4,0.3,0.4,0.3C283.4,187.1,283.3,187,283,186.6L283,186.6z M325.1,186.9
			c0.1,0,0.2,0,0.2,0C325.4,187,325.3,187,325.1,186.9C325.1,187,325,187,325.1,186.9L325.1,186.9z M404.7,182.6l0-4.4l3.3,0l3.3,0
			l-3.2,0l-3.2,0L404.7,182.6l0,4.4L404.7,182.6z M317.4,185.6l-0.4-0.4L317.4,185.6c0.4,0.3,0.5,0.4,0.4,0.4
			C317.8,186,317.6,185.8,317.4,185.6L317.4,185.6z M491.2,185.6l-0.4-0.4L491.2,185.6c0.3,0.2,0.5,0.4,0.5,0.4
			C491.6,186,491.5,185.9,491.2,185.6L491.2,185.6z M327.7,185.7c0,0,0.1-0.1,0.2-0.2c0.2-0.2,0.2-0.2,0,0
			C327.8,185.7,327.7,185.8,327.7,185.7L327.7,185.7z M321.6,185.1c0.6,0,1.6,0,2.2,0c0.6,0,0.1,0-1.1,0
			C321.5,185.2,321,185.1,321.6,185.1L321.6,185.1z M360.8,185.1c1.2,0,3.1,0,4.3,0c1.2,0,0.3,0-2.1,0
			C360.6,185.2,359.6,185.1,360.8,185.1L360.8,185.1z M495.9,185.1c0.9,0,2.4,0,3.3,0c0.9,0,0.2,0-1.6,0
			C495.7,185.2,495,185.1,495.9,185.1L495.9,185.1z M535,181.7v-3.5l3.7,0l3.7,0l-3.6,0l-3.6,0v3.4v3.4l3.6,0l3.6,0l-3.7,0l-3.7,0
			V181.7z M276.6,183.1l0-1l2.7,0l2.7,0l-2.6,0l-2.6,0L276.6,183.1l0,1L276.6,183.1z M410.9,184c0.1,0,0.2,0,0.3,0
			c0.1,0,0,0.1-0.2,0.1C410.9,184,410.8,184,410.9,184L410.9,184z M368.3,182.8C368.1,182.6,368.1,182.6,368.3,182.8
			c0.2,0,0.3,0.1,0.3,0.2C368.6,183.1,368.5,183,368.3,182.8L368.3,182.8z M535.9,181.6l0-0.9h3h3l0,0.9l0,0.9l0-0.9l0-0.9h-2.9
			h-2.9L535.9,181.6l0,0.9L535.9,181.6L535.9,181.6z M315.9,181.6c0-0.4,0-0.6,0.1-0.3c0,0.2,0,0.6,0,0.8
			C315.9,182.2,315.9,182,315.9,181.6L315.9,181.6z M407.2,182.2c0.8,0,2,0,2.7,0c0.7,0,0.1,0-1.4,0
			C407,182.2,406.4,182.2,407.2,182.2L407.2,182.2z M489.6,181.6c0-0.4,0-0.6,0.1-0.3c0,0.2,0,0.6,0,0.8
			C489.7,182.2,489.6,182,489.6,181.6L489.6,181.6z M329.4,181.6c0-0.2,0-0.2,0.1-0.2c0,0.1,0,0.2,0,0.3
			C329.4,181.9,329.4,181.8,329.4,181.6z M237,180.7c0.9,0,2.2,0,3.1,0c0.8,0,0.1,0-1.6,0C236.9,180.7,236.2,180.7,237,180.7
			L237,180.7z M285.9,180.2c0-0.3,0-0.5,0.1-0.3c0,0.2,0,0.5,0,0.6C285.9,180.7,285.9,180.5,285.9,180.2L285.9,180.2z M329.2,180.4
			C329.2,180.3,329.3,180.3,329.2,180.4c0.1,0,0.1,0.1,0.1,0.2C329.3,180.6,329.2,180.6,329.2,180.4L329.2,180.4z M283.9,180.2
			c0-0.2,0-0.3,0.1-0.2c0,0.1,0,0.3,0,0.4C284,180.5,283.9,180.4,283.9,180.2L283.9,180.2z M363.1,180.4c0.8,0,2.1,0,2.9,0
			c0.8,0,0.1,0-1.5,0C362.9,180.5,362.3,180.4,363.1,180.4L363.1,180.4z M358.5,179.4c0-0.2,0-0.3,0.1-0.2c0,0.1,0,0.3,0,0.4
			C358.6,179.7,358.5,179.6,358.5,179.4L358.5,179.4z M360.6,179.4c0-0.2,0-0.2,0.1-0.2c0,0.1,0,0.2,0,0.3
			C360.6,179.6,360.6,179.5,360.6,179.4z M238.3,178.2l3.6,0l0-0.9l0-0.9l0,1l0,1L238.3,178.2l-3.6,0L238.3,178.2L238.3,178.2z
			 M277.1,178.2c0.9,0,2.4,0,3.4,0c0.9,0,0.2,0-1.7,0C277,178.3,276.2,178.3,277.1,178.2L277.1,178.2z M321.7,178.2c0.6,0,1.5,0,2,0
			c0.5,0,0.1,0-1.1,0C321.5,178.3,321.1,178.3,321.7,178.2L321.7,178.2z M363.6,178.2c1.1,0,3,0,4.1,0c1.1,0,0.2,0-2.1,0
			C363.4,178.3,362.4,178.3,363.6,178.2z M496,178.2c0.9,0,2.4,0,3.2,0c0.9,0,0.2,0-1.6,0C495.8,178.3,495.1,178.3,496,178.2z
			 M317.1,178c0,0,0.1-0.1,0.2-0.2c0.2-0.2,0.2-0.2,0,0C317.2,178.1,317.1,178.1,317.1,178L317.1,178z M490.9,178
			c0,0,0.1-0.1,0.2-0.2c0.2-0.2,0.2-0.2,0,0C491,178.1,490.9,178.1,490.9,178L490.9,178z M359.3,177.4c0.2-0.2,0.3-0.3,0.4-0.3
			c0,0-0.1,0.1-0.2,0.3c-0.2,0.2-0.3,0.3-0.4,0.3C359,177.7,359.1,177.6,359.3,177.4z M282.2,176.5c0.1,0,0.2,0,0.2,0
			C282.5,176.5,282.4,176.6,282.2,176.5C282.2,176.5,282.1,176.5,282.2,176.5L282.2,176.5z M320,176.5c0.1,0,0.2,0,0.2,0
			C320.3,176.5,320.2,176.6,320,176.5C320,176.5,319.9,176.5,320,176.5L320,176.5z M325.1,176.5c0.1,0,0.2,0,0.2,0
			C325.4,176.5,325.3,176.6,325.1,176.5C325.1,176.5,325,176.5,325.1,176.5L325.1,176.5z M411.3,176.5c0.1,0,0.2,0,0.2,0
			C411.6,176.5,411.5,176.6,411.3,176.5C411.2,176.5,411.2,176.5,411.3,176.5L411.3,176.5z M493.8,176.5c0.1,0,0.2,0,0.2,0
			C494.1,176.5,494,176.6,493.8,176.5C493.7,176.5,493.7,176.5,493.8,176.5L493.8,176.5z M189.1,163.8c0-0.1,0-3.5,0-7.7l0-7.5
			l12.9,0l12.9,0l0,2.6l0,2.6l-10.2,0l-10.2,0l10.2,0l10.2,0v-2.5v-2.5H202h-12.8v7.6L189.1,163.8l2.7,0.1l2.6,0l-2.6,0
			C189.8,163.9,189.2,163.9,189.1,163.8L189.1,163.8z M248.5,163.8c0-0.1,0-5.8,0-12.8l0-12.6l0,12.7L248.5,163.8l2.6,0h2.5l0-12.6
			l0-12.6l0,12.7l0,12.7l-2.6,0C249.1,164,248.5,163.9,248.5,163.8L248.5,163.8z M286.6,163.9c0.8,0,2,0,2.7,0c0.7,0,0.1,0-1.4,0
			C286.4,163.9,285.9,163.9,286.6,163.9L286.6,163.9z M309.3,163.9c1,0,2.7,0,3.7,0c1,0,0.1,0-1.9,0
			C309.1,163.9,308.2,163.9,309.3,163.9L309.3,163.9z M356.2,163.9c3.7,0,9.9,0,13.6,0c3.8,0,0.7,0-6.8,0
			C355.5,163.9,352.4,163.9,356.2,163.9L356.2,163.9z M410.2,163.9c0.8,0,2,0,2.7,0c0.7,0,0.1,0-1.4,0
			C410,163.9,409.5,163.9,410.2,163.9L410.2,163.9z M467.5,163.8c0-0.1,0-5.8,0-12.8l0-12.6l0,12.7L467.5,163.8l12.8,0.1l12.7,0
			l-12.7,0C470.2,163.9,467.6,163.9,467.5,163.8L467.5,163.8z M533.4,159.3l0-4.7L533.4,159.3l0.1,4.6h2.7h2.7l0-5.3l0-5.3l0,5.3
			l0,5.3h-2.8h-2.8L533.4,159.3z M312.7,161.7C312.5,161.5,312.5,161.5,312.7,161.7c0.3,0.1,0.3,0.2,0.2,0.2
			C312.9,161.9,312.8,161.8,312.7,161.7L312.7,161.7z M311.6,160.6C311.5,160.3,311.5,160.3,311.6,160.6c0.3,0.1,0.3,0.2,0.2,0.2
			C311.8,160.8,311.7,160.7,311.6,160.6L311.6,160.6z M304.1,160.2C304,160,304,160,304.1,160.2c0.3,0.1,0.3,0.2,0.2,0.2
			C304.3,160.4,304.2,160.3,304.1,160.2L304.1,160.2z M310.5,159.3C310.3,159.1,310.3,159.1,310.5,159.3c0.3,0.1,0.3,0.2,0.2,0.2
			C310.7,159.5,310.6,159.4,310.5,159.3L310.5,159.3z M303.1,159C303,158.8,303,158.8,303.1,159c0.3,0.1,0.3,0.2,0.2,0.2
			C303.3,159.2,303.2,159.1,303.1,159L303.1,159z M354.7,156.2l0-2.5L354.7,156.2l0.1,2.4l10.9,0l10.9,0l-11,0l-11,0L354.7,156.2z
			 M472.7,158.6c0-0.1,0-4.7,0-10.2l0-10l0,10.1L472.7,158.6l10.2,0.1l10.1,0l-10.1,0C474.9,158.7,472.8,158.7,472.7,158.6
			L472.7,158.6z M309.5,158.1C309.3,157.9,309.3,157.9,309.5,158.1c0.3,0.1,0.3,0.2,0.2,0.2C309.7,158.4,309.6,158.3,309.5,158.1
			L309.5,158.1z M302.1,157.9C301.9,157.7,301.9,157.7,302.1,157.9c0.3,0.1,0.3,0.2,0.2,0.2C302.3,158.1,302.2,158,302.1,157.9
			L302.1,157.9z M308.3,156.9C308.2,156.7,308.2,156.7,308.3,156.9c0.3,0.1,0.3,0.2,0.2,0.2C308.5,157.1,308.4,157,308.3,156.9
			L308.3,156.9z M301.1,156.7C300.9,156.5,300.9,156.5,301.1,156.7c0.3,0.1,0.3,0.2,0.2,0.2C301.3,157,301.2,156.9,301.1,156.7
			L301.1,156.7z M307.3,155.7C307.2,155.5,307.2,155.5,307.3,155.7c0.2,0,0.3,0.1,0.3,0.2C307.6,156,307.5,155.9,307.3,155.7
			L307.3,155.7z M300.1,155.6C299.9,155.4,299.9,155.4,300.1,155.6c0.3,0.1,0.3,0.2,0.2,0.2C300.3,155.8,300.2,155.7,300.1,155.6
			L300.1,155.6z M311,155.2c0.1,0,0.2,0,0.3,0c0.1,0,0,0.1-0.2,0.1C311,155.3,310.9,155.3,311,155.2L311,155.2z M299,154.4
			C298.9,154.2,298.9,154.2,299,154.4c0.3,0.1,0.3,0.2,0.2,0.2C299.2,154.7,299.1,154.6,299,154.4L299,154.4z M296.1,151.1
			C296,150.9,296,150.9,296.1,151.1c0.3,0.1,0.3,0.2,0.2,0.2C296.3,151.4,296.2,151.3,296.1,151.1L296.1,151.1z M310.2,150
			c0.1,0,0.2,0,0.2,0C310.5,150,310.4,150.1,310.2,150C310.2,150.1,310.1,150,310.2,150L310.2,150z M311.1,149.7
			c0,0,0.1-0.1,0.2-0.2c0.2-0.2,0.2-0.2,0,0C311.3,149.7,311.1,149.8,311.1,149.7L311.1,149.7z M317.1,148.7
			C317.1,148.6,317.2,148.6,317.1,148.7c0.1,0,0.1,0.1,0.1,0.2C317.2,148.9,317.1,148.9,317.1,148.7L317.1,148.7z M415.3,148.6
			c3.6,0,9.4,0,12.9,0c3.6,0,0.6,0-6.5,0C414.7,148.6,411.7,148.6,415.3,148.6L415.3,148.6z M317.3,146.9c0-0.6,0-0.8,0-0.5
			c0,0.3,0,0.8,0,1.1C317.3,147.7,317.3,147.5,317.3,146.9L317.3,146.9z M312.1,146.9c0-0.5,0-0.6,0.1-0.4c0,0.2,0,0.6,0,0.8
			C312.1,147.5,312.1,147.4,312.1,146.9L312.1,146.9z M317.1,145C317.1,144.9,317.2,144.9,317.1,145c0.1,0,0.1,0.1,0.1,0.2
			C317.2,145.3,317.1,145.2,317.1,145L317.1,145z M311.3,144.3C311.1,144.1,311.1,144.1,311.3,144.3c0.3,0.1,0.3,0.2,0.2,0.2
			C311.5,144.5,311.4,144.4,311.3,144.3L311.3,144.3z M216.2,141.1c0-1.5,0-2.1,0-1.3c0,0.8,0,2,0,2.7
			C216.3,143.2,216.2,142.6,216.2,141.1L216.2,141.1z M354.4,143.4C354.3,143.2,354.3,143.2,354.4,143.4c0.2,0,0.3,0.1,0.3,0.2
			C354.7,143.6,354.6,143.6,354.4,143.4z M353.1,142C353,141.8,353,141.8,353.1,142c0.2,0,0.3,0.1,0.3,0.2
			C353.4,142.2,353.3,142.2,353.1,142L353.1,142z M522.7,141.8C522.5,141.6,522.5,141.6,522.7,141.8c0.3,0.1,0.3,0.2,0.2,0.2
			C522.9,142.1,522.8,142,522.7,141.8L522.7,141.8z M352,140.7C351.8,140.5,351.8,140.5,352,140.7c0.3,0.1,0.3,0.2,0.2,0.2
			C352.2,140.9,352.1,140.8,352,140.7L352,140.7z M314.8,140.2l-0.4-0.4L314.8,140.2c0.4,0.3,0.5,0.4,0.4,0.4
			C315.2,140.7,315,140.5,314.8,140.2z M350.8,139.4C350.7,139.2,350.7,139.2,350.8,139.4c0.2,0,0.3,0.1,0.3,0.2
			C351.1,139.7,351,139.6,350.8,139.4z M311,138.5c0.1,0,0.2,0,0.3,0c0.1,0,0,0.1-0.2,0.1C311,138.6,310.9,138.6,311,138.5
			L311,138.5z">
   </path>
   <path id="path849" inkscape:connector-curvature="0" d="M189.1,186.8c0.2-0.6,5.9-10,6.1-10.2c0.4-0.3,1.1-0.3,1.5,0.1
			c0.3,0.2,5,8.3,5.9,9.9l0.2,0.4l-1,0l-1,0l-0.7-1.3l-0.7-1.3l-2.7,0l-2.7,0l0.5-0.9l0.5-0.9l1.6-0.1l1.6-0.1l-1.1-1.8
			c-0.6-1-1.1-1.8-1.1-1.8c0,0-1.1,1.8-2.5,4l-2.4,4.1h-1C189.2,187,189.1,187,189.1,186.8L189.1,186.8z M233,181.7v-5.3h4.5h4.5
			v0.9v0.9h-3.6h-3.6v3.5v3.5h3.6h3.6v0.9v0.9h-4.5H233V181.7z M273.7,181.7v-5.3h4c4.3,0,5.2,0.1,6.1,0.6c1.3,0.7,1.8,1.5,1.9,3.1
			c0,0.9,0,1.1-0.3,1.7c-0.4,0.8-0.9,1.3-1.8,1.7l-0.7,0.3l1.6,1.6l1.6,1.6h-1.3h-1.3l-1.5-1.5l-1.5-1.5h-1.9h-1.9v-0.9v-0.9h2.5
			c1.4,0,2.8-0.1,3.1-0.1c1.3-0.3,2-1.3,1.7-2.5c-0.4-1.3-0.9-1.5-5.2-1.5h-3.2v4.4v4.4h-0.9h-0.9L273.7,181.7z M319.6,186.8
			c-1.3-0.4-2.6-1.5-3.3-2.8c-0.3-0.7-0.3-0.9-0.3-2.3c0-1.5,0-1.7,0.3-2.3c0.5-1.1,1.3-1.9,2.4-2.4l0.9-0.4l2.4,0
			c1.5,0,2.7,0,3.2,0.1c1.7,0.3,3.1,1.5,3.7,2.9c0.2,0.6,0.3,1,0.3,2.2c0,1.4,0,1.5-0.5,2.4c-0.6,1.2-1.5,2.1-2.6,2.5
			c-0.7,0.3-1,0.3-3.3,0.3C321,187,320.1,186.9,319.6,186.8L319.6,186.8z M325.3,185c0.9-0.3,1.9-1.2,2.1-2c0.5-1.8-0.2-3.6-1.7-4.3
			c-0.6-0.3-0.7-0.3-3.1-0.3c-2.7,0-2.9,0.1-3.8,0.8c-1,0.9-1.4,2.5-0.9,3.9c0.3,0.8,1.1,1.6,2,1.9
			C320.9,185.3,324.3,185.3,325.3,185L325.3,185z M358.8,186.1v-0.9h4.2c4.5,0,4.9-0.1,5.5-0.7c0.4-0.4,0.4-1.2,0.1-1.6
			c-0.4-0.6-0.9-0.7-4-0.7c-1.6,0-3.2-0.1-3.6-0.1c-1.4-0.3-2.3-1.4-2.3-2.8c0-1.1,0.5-2,1.6-2.6c0.5-0.3,0.7-0.3,5-0.3l4.5,0v0.9
			v0.9h-4c-4.5,0-4.7,0-5,0.7c-0.1,0.3-0.1,0.5,0,0.8c0.3,0.7,0.4,0.7,4.1,0.8c3.6,0.1,3.7,0.1,4.6,0.8c0.7,0.6,1,1.2,1,2.4
			c0,1.5-0.4,2.2-1.7,2.9c-0.6,0.3-0.6,0.3-5.2,0.3l-4.6,0V186.1z M402.9,181.7v-5.3l4.4,0l4.4,0l0.7,0.3c1,0.4,1.5,0.9,1.9,1.7
			c0.3,0.6,0.3,0.8,0.3,1.7c0,1,0,1.2-0.4,1.8c-0.4,0.7-0.9,1.2-1.7,1.6c-0.7,0.3-1.9,0.5-4.3,0.5l-2.3,0v-0.9v-0.9l2.8,0
			c3.1,0,3.4-0.1,4-1c0.2-0.4,0.3-0.6,0.2-1.2c0-0.6-0.1-0.8-0.5-1.2c-0.6-0.7-1-0.7-4.5-0.7h-3.1v4.4v4.4h-0.9h-0.9L402.9,181.7z
			 M445.3,186.8c0.2-0.6,5.9-10,6.1-10.2c0.4-0.3,1.1-0.3,1.5,0.1c0.2,0.2,6.1,10,6.1,10.2c0,0-0.5,0-1,0h-1l-0.8-1.3l-0.8-1.3h-2.7
			h-2.7l0.5-0.9l0.5-0.9l1.6-0.1l1.6-0.1l-1.1-1.8c-1-1.6-1.1-1.8-1.2-1.6c-0.1,0.1-1.2,2-2.4,4.1l-2.3,3.9h-1
			C445.5,187,445.3,187,445.3,186.8L445.3,186.8z M493.4,186.8c-1.3-0.4-2.6-1.5-3.3-2.8c-0.3-0.7-0.3-0.9-0.3-2.3
			c0-1.5,0-1.7,0.3-2.3c0.5-1.1,1.3-1.9,2.4-2.4l0.9-0.4l3.7,0l3.7,0v0.9v0.9h-3c-3.4,0-4.1,0.1-4.9,0.7c-0.9,0.7-1.3,1.5-1.3,2.6
			c-0.1,1.3,0.2,2,1,2.8c1,0.9,1.4,1,5.1,1h3.2v0.9v0.9l-3.4,0C495,187,493.8,186.9,493.4,186.8L493.4,186.8z M533.3,181.7v-5.3h4.5
			h4.5v0.9v0.9h-3.6H535v3.5v3.5h3.6h3.6v0.9v0.9h-4.5h-4.5V181.7z M235.5,181.6v-0.9h3h3v0.9v0.9h-3h-3V181.6z M535.9,181.6v-0.9
			h2.9h2.9v0.9v0.9h-2.9h-2.9V181.6z M189.2,156.3v-7.6H202h12.8v2.5v2.5h-10.2h-10.2v5v5h-2.6h-2.6L189.2,156.3z M248.5,151.2
			v-12.7h2.5h2.5v12.7v12.7h-2.5h-2.5V151.2z M285.3,151.2v-12.7l13.1,0c13,0,13.1,0,13.9,0.3c1.1,0.4,1.8,0.8,2.6,1.7
			c0.9,0.9,1.4,1.8,1.8,3.1c0.3,1,0.4,1.1,0.4,3.2c0,2.1,0,2.3-0.4,3.2c-0.7,2.1-1.9,3.6-3.3,4.3c-1.1,0.6-1.7,0.7-4.2,0.8l-2.3,0.1
			l3.4,3.8c1.8,2.1,3.6,4,3.8,4.2l0.5,0.5l-3.6,0l-3.6,0l-6-6.8c-3.3-3.7-6-6.8-6-6.9c0-0.1,3.4-0.1,7.6-0.1l7.7,0l0.4-0.3
			c0.8-0.6,1.2-2.2,1-3.6c-0.2-1-0.5-1.7-1-2l-0.4-0.3l-10.1,0l-10.1,0v10.1v10.1h-2.6h-2.6L285.3,151.2L285.3,151.2z M349.5,156.2
			v-7.6h12.9h12.9v2.6v2.6h-10.2h-10.2v2.5v2.5h10.9h10.9v2.5v2.5H363h-13.6V156.2z M408.9,156.3v-7.6h12.9h12.9v2.5v2.5h-10.2
			h-10.2v5v5h-2.6h-2.6L408.9,156.3z M467.6,151.2v-12.7h2.5h2.5l0,10.1l0,10.1l10.1,0l10.1,0v2.5v2.5h-12.7h-12.7L467.6,151.2z
			 M533.5,159.2v-4.6l-1-1.2c-1.9-2.2-12.2-14.5-12.4-14.8c-0.2-0.2,0-0.2,3.1-0.2l3.2,0l6.2,7.4l6.2,7.4v5.3v5.3h-2.7h-2.7
			L533.5,159.2L533.5,159.2z M192.4,141.1l-2.6-2.6H203h13.2v2.6v2.6h-10.6H195L192.4,141.1z M354,142.8c-0.4-0.5-1.5-1.6-2.3-2.6
			l-1.6-1.7h13.2h13.2v2.6v2.6l-10.9,0l-10.9,0L354,142.8L354,142.8z M412.1,141.1l-2.6-2.6h13.3H436v2.6v2.6h-10.7h-10.7
			L412.1,141.1z">
   </path>
  </g>
 </g>
</svg>