<svg width="190" height="39" viewBox="0 0 190 39" fill="none" xmlns="http://www.w3.org/2000/svg">
<g clip-path="url(#clip0_2178_347)">
<path d="M188.03 30.2055C186.942 30.2055 186.06 29.3238 186.06 28.2355V17.2908C186.06 14.756 183.998 12.694 181.464 12.694C178.929 12.694 176.867 14.756 176.867 17.2908V28.2355C176.867 29.3238 175.985 30.2055 174.897 30.2055C173.808 30.2055 172.927 29.3238 172.927 28.2355V17.2908C172.927 12.5837 176.757 8.75391 181.464 8.75391C186.171 8.75391 190 12.5837 190 17.2908V28.2355C190 29.3238 189.119 30.2055 188.03 30.2055Z" fill="#19191C"/>
<path d="M159.574 30.2055C153.66 30.2055 148.849 25.3942 148.849 19.4797C148.849 13.5652 153.66 8.75391 159.574 8.75391C165.489 8.75391 170.3 13.5652 170.3 19.4797C170.3 25.3942 165.489 30.2055 159.574 30.2055ZM159.574 12.694C155.833 12.694 152.789 15.7384 152.789 19.4797C152.789 23.221 155.833 26.2654 159.574 26.2654C163.316 26.2654 166.36 23.221 166.36 19.4797C166.36 15.7384 163.316 12.694 159.574 12.694Z" fill="#19191C"/>
<path d="M131.614 30.2055C130.525 30.2055 129.644 29.3238 129.644 28.2355V17.2908C129.644 12.5837 133.473 8.75391 138.18 8.75391C142.888 8.75391 146.717 12.5837 146.717 17.2908C146.717 18.3791 145.836 19.2608 144.747 19.2608C143.659 19.2608 142.777 18.3791 142.777 17.2908C142.777 14.756 140.715 12.694 138.18 12.694C135.646 12.694 133.584 14.756 133.584 17.2908V28.2355C133.584 29.3238 132.702 30.2055 131.614 30.2055Z" fill="#19191C"/>
<path d="M118.855 30.2042C115.99 30.2042 113.297 29.0887 111.271 27.0626C107.089 22.8809 107.089 16.0759 111.271 11.8941C115.453 7.71237 122.258 7.71237 126.44 11.8941C127.209 12.6638 127.209 13.9106 126.44 14.6802C125.67 15.4498 124.423 15.4498 123.653 14.6802C121.007 12.0342 116.703 12.0342 114.057 14.6802C111.411 17.3262 111.411 21.6305 114.057 24.2765C115.339 25.5584 117.043 26.2641 118.855 26.2641C120.668 26.2641 122.372 25.5584 123.653 24.2765C124.423 23.5069 125.67 23.5069 126.44 24.2765C127.209 25.0461 127.209 26.293 126.44 27.0626C124.413 29.0887 121.72 30.2042 118.855 30.2042V30.2042Z" fill="#19191C"/>
<path d="M103.536 30.2055C102.448 30.2055 101.566 29.3238 101.566 28.2355V16.6341C101.566 15.5458 102.448 14.6641 103.536 14.6641C104.625 14.6641 105.506 15.5458 105.506 16.6341V28.2355C105.506 29.3238 104.625 30.2055 103.536 30.2055Z" fill="#19191C"/>
<path d="M103.536 12.694C104.624 12.694 105.506 11.812 105.506 10.724C105.506 9.63593 104.624 8.75391 103.536 8.75391C102.448 8.75391 101.566 9.63593 101.566 10.724C101.566 11.812 102.448 12.694 103.536 12.694Z" fill="#7245F0"/>
<path d="M89.5289 8.75391C86.8908 8.75391 84.5294 9.95695 82.9621 11.8421C81.3948 9.95695 79.0334 8.75391 76.3953 8.75391C71.6882 8.75391 67.8584 12.5837 67.8584 17.2908V28.2355C67.8584 29.3238 68.7401 30.2055 69.8284 30.2055C70.9168 30.2055 71.7985 29.3238 71.7985 28.2355V17.2908C71.7985 14.756 73.8605 12.694 76.3953 12.694C78.9301 12.694 80.992 14.756 80.992 17.2908V28.2355C80.992 29.3238 81.8737 30.2055 82.9621 30.2055C84.0504 30.2055 84.9321 29.3238 84.9321 28.2355V17.2908C84.9321 14.756 86.9941 12.694 89.5289 12.694C92.0637 12.694 94.1257 14.756 94.1257 17.2908V28.2355C94.1257 29.3238 95.0074 30.2055 96.0957 30.2055C97.1841 30.2055 98.0658 29.3238 98.0658 28.2355V17.2908C98.0658 12.5837 94.236 8.75391 89.5289 8.75391Z" fill="#19191C"/>
<path d="M54.5051 30.2055C48.5906 30.2055 43.7793 25.3942 43.7793 19.4797C43.7793 13.5652 48.5906 8.75391 54.5051 8.75391C60.4196 8.75391 65.2309 13.5652 65.2309 19.4797C65.2309 25.3942 60.4196 30.2055 54.5051 30.2055ZM54.5051 12.694C50.7638 12.694 47.7194 15.7384 47.7194 19.4797C47.7194 23.221 50.7638 26.2654 54.5051 26.2654C58.2464 26.2654 61.2908 23.221 61.2908 19.4797C61.2908 15.7384 58.2464 12.694 54.5051 12.694Z" fill="#19191C"/>
<path d="M1.97005 21.4516C3.05807 21.4516 3.94009 20.5695 3.94009 19.4815C3.94009 18.3935 3.05807 17.5115 1.97005 17.5115C0.88202 17.5115 0 18.3935 0 19.4815C0 20.5695 0.88202 21.4516 1.97005 21.4516Z" fill="#7245F0"/>
<path d="M31.8646 33.8346C32.9526 33.8346 33.8346 32.9526 33.8346 31.8646C33.8346 30.7766 32.9526 29.8945 31.8646 29.8945C30.7766 29.8945 29.8945 30.7766 29.8945 31.8646C29.8945 32.9526 30.7766 33.8346 31.8646 33.8346Z" fill="#7245F0"/>
<path d="M19.4826 30.2055C13.5681 30.2055 8.75684 25.3942 8.75684 19.4797C8.75684 18.3914 9.63854 17.5097 10.7269 17.5097C11.8152 17.5097 12.6969 18.3914 12.6969 19.4797C12.6969 23.221 15.7413 26.2654 19.4826 26.2654C23.224 26.2654 26.2684 23.221 26.2684 19.4797C26.2684 15.7384 23.224 12.694 19.4826 12.694C18.3943 12.694 17.5126 11.8123 17.5126 10.724C17.5126 9.63561 18.3943 8.75391 19.4826 8.75391C25.3972 8.75391 30.2084 13.5652 30.2084 19.4797C30.2084 25.3942 25.3972 30.2055 19.4826 30.2055Z" fill="#19191C"/>
<path d="M19.4816 38.9601C15.5537 38.9601 11.7678 37.7965 8.53162 35.5936C5.37517 33.4449 2.93669 30.4513 1.47886 26.9359C1.06208 25.9307 1.53927 24.7784 2.54443 24.3617C3.54959 23.9449 4.70185 24.4221 5.11863 25.4272C6.28139 28.2326 8.22867 30.6212 10.7495 32.3373C13.3289 34.0928 16.3479 35.0209 19.4825 35.0209C20.5708 35.0209 21.4525 35.9026 21.4525 36.991C21.4525 38.0793 20.5708 38.961 19.4825 38.961L19.4816 38.9601Z" fill="#19191C"/>
<path d="M35.664 28.155C35.4127 28.155 35.157 28.1069 34.9101 28.0044C33.9049 27.5876 33.4277 26.4354 33.8445 25.4302C34.6264 23.5442 35.023 21.5435 35.023 19.4816C35.023 10.9123 28.0508 3.94009 19.4816 3.94009C15.3305 3.94009 11.4271 5.5564 8.49221 8.49221C7.72258 9.26184 6.47576 9.26184 5.70613 8.49221C4.9365 7.72258 4.9365 6.47576 5.70613 5.70613C9.3853 2.02608 14.278 0 19.4816 0C24.6851 0 29.5778 2.02608 33.257 5.70613C36.9362 9.3853 38.9631 14.278 38.9631 19.4816C38.9631 22.0636 38.4658 24.5722 37.4843 26.9388C37.17 27.6971 36.4362 28.155 35.664 28.155V28.155Z" fill="#19191C"/>
</g>
<defs>
<clipPath id="clip0_2178_347">
<rect width="190" height="38.9631" fill="white"/>
</clipPath>
</defs>
</svg>
