<svg width="21506" height="5000" viewBox="0 0 21506 5000" fill="none" xmlns="http://www.w3.org/2000/svg">
<rect x="4200" width="800" height="5000" fill="#00CF83"/>
<path d="M2164 3125C2164 2951.59 2224.21 2804.67 2344.64 2684.25C2467.47 2561.42 2615.59 2500 2789 2500C2962.41 2500 3109.33 2561.42 3229.75 2684.25C3352.59 2804.67 3414 2951.59 3414 3125C3414 3298.41 3352.59 3446.53 3229.75 3569.37C3109.33 3689.79 2962.41 3750 2789 3750C2615.59 3750 2467.47 3689.79 2344.64 3569.37C2224.21 3446.53 2164 3298.41 2164 3125Z" fill="#FFAA00"/>
<path d="M51.098 4836.24C277.389 4680.98 447.716 4545.12 562.078 4428.67C764.037 4227.32 865.017 4036.88 865.017 3857.35C865.017 3806.41 852.85 3765.16 828.518 3733.63C801.752 3704.51 764.037 3689.96 715.372 3689.96C691.04 3689.96 660.624 3692.38 624.125 3697.24C587.627 3704.51 562.078 3708.15 547.478 3708.15C399.052 3708.15 270.09 3655.99 160.594 3551.67C53.5312 3447.35 0 3306.65 0 3129.55C0 2942.75 55.9645 2791.12 167.894 2674.67C282.256 2558.22 430.684 2500 613.176 2500C837.034 2500 1019.53 2578.85 1160.66 2736.54C1304.21 2891.8 1376 3100.44 1376 3362.44C1376 3762.74 1215.41 4126.64 894.215 4454.15C719.022 4628.82 467.182 4810.77 138.695 5000L51.098 4836.24Z" fill="#FF2B59"/>
<path d="M6444.16 1887.5H6457.24C6601.22 1712.5 6788.82 1625 7020.04 1625C7146.56 1625 7262.18 1649.5 7366.88 1698.5C7473.77 1745.17 7565.39 1811.67 7641.74 1898C7720.27 1982 7780.26 2083.5 7821.7 2202.5C7865.33 2319.17 7887.14 2447.5 7887.14 2587.5C7887.14 2727.5 7865.33 2855.83 7821.7 2972.5C7780.26 3089.17 7721.36 3190.67 7645.01 3277C7568.66 3363.33 7477.04 3431 7370.15 3480C7265.45 3526.67 7150.93 3550 7026.59 3550C6815 3550 6653.57 3473 6542.32 3319H6529.23V3805.5C6529.23 3898.83 6533.59 3973.5 6542.32 4029.5C6551.04 4085.5 6569.59 4128.67 6597.94 4159C6626.3 4189.33 6665.57 4210.33 6715.74 4222C6768.09 4233.67 6836.81 4240.67 6921.88 4243V4390H5793.01V4243C5851.91 4240.67 5899.9 4233.67 5936.98 4222C5974.07 4210.33 6002.43 4189.33 6022.06 4159C6043.87 4128.67 6058.05 4086.67 6064.6 4033C6073.32 3981.67 6077.68 3914 6077.68 3830V2528C6077.68 2420.67 6075.5 2319.17 6071.14 2223.5C6066.78 2125.5 6061.32 2056.67 6054.78 2017C6043.87 1963.33 6018.79 1926 5979.52 1905C5942.44 1884 5878.09 1873.5 5786.47 1873.5V1737L6444.16 1639V1887.5ZM7000.41 1824.5C6930.6 1824.5 6864.08 1840.83 6800.81 1873.5C6737.55 1906.17 6687.38 1949.33 6650.3 2003C6613.21 2056.67 6584.86 2124.33 6565.22 2206C6545.59 2285.33 6535.77 2371.67 6535.77 2465V2703C6535.77 2868.67 6573.95 3009.83 6650.3 3126.5C6733.19 3254.83 6849.89 3319 7000.41 3319C7133.47 3319 7231.63 3260.67 7294.9 3144C7360.34 3025 7393.06 2841.83 7393.06 2594.5C7393.06 2081.17 7262.18 1824.5 7000.41 1824.5ZM8591.51 2941C8591.51 3034.33 8594.78 3109 8601.33 3165C8607.87 3221 8620.96 3264.17 8640.59 3294.5C8660.22 3324.83 8688.58 3345.83 8725.66 3357.5C8762.75 3366.83 8812.92 3372.67 8876.18 3375V3515H7845.48V3375C7906.55 3372.67 7955.63 3365.67 7992.72 3354C8031.98 3340 8061.43 3319 8081.07 3291C8102.88 3260.67 8117.06 3219.83 8123.6 3168.5C8132.32 3114.83 8136.69 3047.17 8136.69 2965.5V2535C8136.69 2399.67 8134.51 2288.83 8130.15 2202.5C8125.78 2113.83 8120.33 2053.17 8113.79 2020.5C8102.88 1962.17 8077.79 1923.67 8038.53 1905C8001.44 1886.33 7932.73 1877 7832.39 1877V1758L8591.51 1625V2941ZM8110.51 883C8110.51 806 8134.51 741.833 8182.5 690.5C8232.67 636.833 8292.66 610 8362.46 610C8434.45 610 8494.44 636.833 8542.43 690.5C8592.6 741.833 8617.69 806 8617.69 883C8617.69 957.667 8592.6 1021.83 8542.43 1075.5C8494.44 1126.83 8434.45 1152.5 8362.46 1152.5C8292.66 1152.5 8232.67 1126.83 8182.5 1075.5C8134.51 1021.83 8110.51 957.667 8110.51 883ZM9384.43 1887.5H9397.52C9541.49 1712.5 9729.08 1625 9960.31 1625C10086.8 1625 10202.4 1649.5 10307.2 1698.5C10414 1745.17 10505.7 1811.67 10582 1898C10660.5 1982 10720.5 2083.5 10762 2202.5C10805.6 2319.17 10827.4 2447.5 10827.4 2587.5C10827.4 2727.5 10805.6 2855.83 10762 2972.5C10720.5 3089.17 10661.6 3190.67 10585.3 3277C10508.9 3363.33 10417.3 3431 10310.4 3480C10205.7 3526.67 10091.2 3550 9966.86 3550C9755.26 3550 9593.84 3473 9482.59 3319H9469.5V3805.5C9469.5 3898.83 9473.86 3973.5 9482.59 4029.5C9491.31 4085.5 9509.85 4128.67 9538.22 4159C9566.57 4189.33 9605.84 4210.33 9656.01 4222C9708.36 4233.67 9777.08 4240.67 9862.15 4243V4390H8733.28V4243C8792.18 4240.67 8840.17 4233.67 8877.26 4222C8914.33 4210.33 8942.7 4189.33 8962.33 4159C8984.14 4128.67 8998.32 4086.67 9004.87 4033C9013.59 3981.67 9017.95 3914 9017.95 3830V2528C9017.95 2420.67 9015.77 2319.17 9011.41 2223.5C9007.04 2125.5 9001.59 2056.67 8995.05 2017C8984.14 1963.33 8959.06 1926 8919.79 1905C8882.71 1884 8818.36 1873.5 8726.74 1873.5V1737L9384.43 1639V1887.5ZM9940.68 1824.5C9870.87 1824.5 9804.34 1840.83 9741.08 1873.5C9677.82 1906.17 9627.65 1949.33 9590.57 2003C9553.48 2056.67 9525.13 2124.33 9505.49 2206C9485.86 2285.33 9476.05 2371.67 9476.05 2465V2703C9476.05 2868.67 9514.22 3009.83 9590.57 3126.5C9673.45 3254.83 9790.17 3319 9940.68 3319C10073.7 3319 10171.9 3260.67 10235.2 3144C10300.6 3025 10333.3 2841.83 10333.3 2594.5C10333.3 2081.17 10202.4 1824.5 9940.68 1824.5ZM12457.8 3189.5C12259.3 3429.83 12011.7 3550 11715 3550C11579.8 3550 11456.5 3527.83 11345.3 3483.5C11236.2 3436.83 11142.4 3372.67 11063.9 3291C10985.3 3207 10924.3 3107.83 10880.6 2993.5C10837 2879.17 10815.2 2752 10815.2 2612C10815.2 2467.33 10838.1 2335.5 10883.9 2216.5C10929.7 2095.17 10994.1 1991.33 11077 1905C11162 1816.33 11261.3 1747.5 11374.7 1698.5C11490.3 1649.5 11616.9 1625 11754.3 1625C11985.5 1625 12165.5 1691.5 12294.2 1824.5C12422.9 1957.5 12487.2 2144.17 12487.2 2384.5C12487.2 2421.83 12481.8 2445.17 12470.9 2454.5C12460 2461.5 12429.4 2465 12379.2 2465H11325.6C11316.9 2486 11312.6 2524.5 11312.6 2580.5C11312.6 2809.17 11358.4 2990 11450 3123C11543.8 3256 11670.3 3322.5 11829.5 3322.5C11921.2 3322.5 12011.7 3300.33 12101.1 3256C12192.7 3211.67 12281.1 3148.67 12366.2 3067L12457.8 3189.5ZM11823 2269C11910.2 2269 11965.9 2264.33 11989.9 2255C12016 2243.33 12029.1 2217.67 12029.1 2178C12029.1 2075.33 12001.9 1991.33 11947.3 1926C11892.8 1860.67 11824.1 1828 11741.2 1828C11647.4 1828 11563.4 1870 11489.2 1954C11417.3 2035.67 11370.4 2140.67 11348.5 2269H11823ZM13325.7 3550H13080.3L12632.1 2111.5C12597.2 1999.5 12556.8 1921.33 12511 1877C12465.2 1830.33 12404.1 1804.67 12327.8 1800V1660H13263.6V1800C13185 1802.33 13130.5 1815.17 13100 1838.5C13069.4 1859.5 13054.2 1896.83 13054.2 1950.5C13054.2 1976.17 13057.4 2004.17 13064 2034.5C13070.5 2064.83 13079.2 2099.83 13090.2 2139.5L13296.3 2958.5H13309.4L13767.5 1660H14035.8L14379.4 2958.5H14395.7L14657.5 2234C14679.3 2175.67 14694.6 2125.5 14703.3 2083.5C14712 2039.17 14716.4 2000.67 14716.4 1968C14716.4 1907.33 14697.8 1864.17 14660.8 1838.5C14623.7 1812.83 14573.5 1800 14510.2 1800V1660H15213.7V1800C15174.4 1800 15141.7 1804.67 15115.6 1814C15089.4 1823.33 15063.2 1845.5 15037 1880.5C15010.9 1915.5 14982.5 1969.17 14952 2041.5C14921.4 2113.83 14883.3 2213 14837.4 2339L14385.9 3550H14127.4L13780.6 2307.5H13767.5L13325.7 3550ZM15798.2 2972.5C15798.2 3063.5 15801.5 3135.83 15808 3189.5C15816.8 3240.83 15833.2 3280.5 15857.1 3308.5C15881.1 3336.5 15916 3355.17 15961.8 3364.5C16007.6 3371.5 16068.7 3375 16145 3375V3515H15052.2V3375C15117.6 3370.33 15169.9 3363.33 15209.2 3354C15248.5 3344.67 15277.9 3326 15297.6 3298C15317.2 3270 15329.3 3230.33 15333.6 3179C15340.1 3125.33 15343.4 3054.17 15343.4 2965.5V2538.5C15343.4 2393.83 15340.1 2278.33 15333.6 2192C15327 2105.67 15312.9 2039.17 15291 1992.5C15269.2 1945.83 15237.6 1915.5 15196.1 1901.5C15156.9 1885.17 15104.5 1877 15039.1 1877V1754.5L15693.5 1625L15745.8 2027.5H15758.9C15817.8 1903.83 15895.3 1805.83 15991.2 1733.5C16087.3 1661.17 16188.7 1625 16295.5 1625C16378.5 1625 16446.1 1647.17 16498.4 1691.5C16550.8 1735.83 16576.9 1791.83 16576.9 1859.5C16576.9 1934.17 16556.3 1997.17 16514.8 2048.5C16475.5 2099.83 16421 2125.5 16351.2 2125.5C16318.4 2125.5 16289 2118.5 16262.8 2104.5C16236.6 2090.5 16212.7 2075.33 16190.8 2059C16171.2 2040.33 16150.5 2024 16128.7 2010C16109 1993.67 16088.4 1985.5 16066.5 1985.5C16025.1 1985.5 15985.8 2014.67 15948.7 2073C15911.7 2131.33 15881.1 2209.5 15857.1 2307.5C15839.7 2377.5 15825.5 2456.83 15814.5 2545.5C15803.7 2631.83 15798.2 2718.17 15798.2 2804.5V2972.5ZM17162.8 2941C17162.8 3034.33 17166.1 3109 17172.6 3165C17179.2 3221 17192.3 3264.17 17211.9 3294.5C17231.5 3324.83 17259.9 3345.83 17297 3357.5C17334.1 3366.83 17384.2 3372.67 17447.5 3375V3515H16416.8V3375C16477.8 3372.67 16526.9 3365.67 16564 3354C16603.3 3340 16632.8 3319 16652.4 3291C16674.2 3260.67 16688.4 3219.83 16694.9 3168.5C16703.6 3114.83 16708 3047.17 16708 2965.5V2535C16708 2399.67 16705.9 2288.83 16701.5 2202.5C16697.1 2113.83 16691.7 2053.17 16685.1 2020.5C16674.2 1962.17 16649.1 1923.67 16609.8 1905C16572.7 1886.33 16504 1877 16403.7 1877V1758L17162.8 1625V2941ZM16681.8 883C16681.8 806 16705.9 741.833 16753.8 690.5C16804 636.833 16863.9 610 16933.8 610C17005.8 610 17065.8 636.833 17113.8 690.5C17164 741.833 17189 806 17189 883C17189 957.667 17164 1021.83 17113.8 1075.5C17065.8 1126.83 17005.8 1152.5 16933.8 1152.5C16863.9 1152.5 16804 1126.83 16753.8 1075.5C16705.9 1021.83 16681.8 957.667 16681.8 883ZM17324.2 1852.5V1695C17455.1 1655.33 17564.2 1595.83 17651.4 1516.5C17740.9 1434.83 17807.4 1341.5 17851 1236.5H18017.9V1660H18394.2V1852.5H18017.9V2927C18017.9 3071.67 18032.1 3174.33 18060.4 3235C18091 3295.67 18141.2 3326 18210.9 3326C18296 3326 18360.4 3284 18404 3200L18472.7 3301.5C18411.6 3467.17 18267.7 3550 18040.8 3550C17890.3 3550 17772.5 3512.67 17687.4 3438C17604.6 3363.33 17563.1 3258.33 17563.1 3123V1852.5H17324.2ZM19997 3189.5C19798.4 3429.83 19550.9 3550 19254.2 3550C19119 3550 18995.8 3527.83 18884.5 3483.5C18775.4 3436.83 18681.6 3372.67 18603.1 3291C18524.6 3207 18463.4 3107.83 18419.9 2993.5C18376.2 2879.17 18354.4 2752 18354.4 2612C18354.4 2467.33 18377.3 2335.5 18423.1 2216.5C18469 2095.17 18533.3 1991.33 18616.2 1905C18701.3 1816.33 18800.5 1747.5 18914 1698.5C19029.5 1649.5 19156.1 1625 19293.5 1625C19524.7 1625 19704.7 1691.5 19833.4 1824.5C19962 1957.5 20026.5 2144.17 20026.5 2384.5C20026.5 2421.83 20020.9 2445.17 20010.1 2454.5C19999.2 2461.5 19968.6 2465 19918.5 2465H18864.9C18856.1 2486 18851.8 2524.5 18851.8 2580.5C18851.8 2809.17 18897.6 2990 18989.2 3123C19083 3256 19209.5 3322.5 19368.8 3322.5C19460.4 3322.5 19550.9 3300.33 19640.4 3256C19732 3211.67 19820.3 3148.67 19905.4 3067L19997 3189.5ZM19362.2 2269C19449.5 2269 19505.1 2264.33 19529.1 2255C19555.3 2243.33 19568.4 2217.67 19568.4 2178C19568.4 2075.33 19541.1 1991.33 19486.6 1926C19432 1860.67 19363.3 1828 19280.4 1828C19186.6 1828 19102.6 1870 19028.5 1954C18956.5 2035.67 18909.6 2140.67 18887.8 2269H19362.2ZM20726.5 2972.5C20726.5 3063.5 20729.8 3135.83 20736.3 3189.5C20745.1 3240.83 20761.5 3280.5 20785.4 3308.5C20809.4 3336.5 20844.3 3355.17 20890.1 3364.5C20935.9 3371.5 20997.1 3375 21073.3 3375V3515H19980.5V3375C20045.9 3370.33 20098.3 3363.33 20137.5 3354C20176.8 3344.67 20206.2 3326 20225.9 3298C20245.5 3270 20257.6 3230.33 20261.9 3179C20268.4 3125.33 20271.7 3054.17 20271.7 2965.5V2538.5C20271.7 2393.83 20268.4 2278.33 20261.9 2192C20255.3 2105.67 20241.2 2039.17 20219.3 1992.5C20197.5 1945.83 20165.9 1915.5 20124.4 1901.5C20085.2 1885.17 20032.8 1877 19967.4 1877V1754.5L20621.8 1625L20674.1 2027.5H20687.2C20746.1 1903.83 20823.6 1805.83 20919.6 1733.5C21015.6 1661.17 21117 1625 21223.9 1625C21306.8 1625 21374.4 1647.17 21426.7 1691.5C21479.1 1735.83 21505.3 1791.83 21505.3 1859.5C21505.3 1934.17 21484.6 1997.17 21443.1 2048.5C21403.8 2099.83 21349.3 2125.5 21279.5 2125.5C21246.8 2125.5 21217.3 2118.5 21191.1 2104.5C21165 2090.5 21141 2075.33 21119.1 2059C21099.5 2040.33 21078.9 2024 21057 2010C21037.3 1993.67 21016.7 1985.5 20994.8 1985.5C20953.4 1985.5 20914.1 2014.67 20877 2073C20840 2131.33 20809.4 2209.5 20785.4 2307.5C20768 2377.5 20753.8 2456.83 20742.9 2545.5C20732 2631.83 20726.5 2718.17 20726.5 2804.5V2972.5Z" fill="#CFCFCF"/>
</svg>
