<svg width="16815" height="3780" viewBox="0 0 16815 3780" fill="none" xmlns="http://www.w3.org/2000/svg">
<path d="M704 1277.5H718C872 1102.5 1072.67 1015 1320 1015C1455.33 1015 1579 1039.5 1691 1088.5C1805.33 1135.17 1903.33 1201.67 1985 1288C2069 1372 2133.17 1473.5 2177.5 1592.5C2224.17 1709.17 2247.5 1837.5 2247.5 1977.5C2247.5 2117.5 2224.17 2245.83 2177.5 2362.5C2133.17 2479.17 2070.17 2580.67 1988.5 2667C1906.83 2753.33 1808.83 2821 1694.5 2870C1582.5 2916.67 1460 2940 1327 2940C1100.67 2940 928 2863 809 2709H795V3195.5C795 3288.83 799.667 3363.5 809 3419.5C818.333 3475.5 838.167 3518.67 868.5 3549C898.833 3579.33 940.833 3600.33 994.5 3612C1050.5 3623.67 1124 3630.67 1215 3633V3780H7.5V3633C70.5 3630.67 121.833 3623.67 161.5 3612C201.167 3600.33 231.5 3579.33 252.5 3549C275.833 3518.67 291 3476.67 298 3423C307.333 3371.67 312 3304 312 3220V1918C312 1810.67 309.667 1709.17 305 1613.5C300.333 1515.5 294.5 1446.67 287.5 1407C275.833 1353.33 249 1316 207 1295C167.333 1274 98.5 1263.5 0.500003 1263.5V1127L704 1029V1277.5ZM1299 1214.5C1224.33 1214.5 1153.17 1230.83 1085.5 1263.5C1017.83 1296.17 964.167 1339.33 924.5 1393C884.833 1446.67 854.5 1514.33 833.5 1596C812.5 1675.33 802 1761.67 802 1855V2093C802 2258.67 842.833 2399.83 924.5 2516.5C1013.17 2644.83 1138 2709 1299 2709C1441.33 2709 1546.33 2650.67 1614 2534C1684 2415 1719 2231.83 1719 1984.5C1719 1471.17 1579 1214.5 1299 1214.5ZM3000.93 2331C3000.93 2424.33 3004.43 2499 3011.43 2555C3018.43 2611 3032.43 2654.17 3053.43 2684.5C3074.43 2714.83 3104.76 2735.83 3144.43 2747.5C3184.1 2756.83 3237.76 2762.67 3305.43 2765V2905H2202.93V2765C2268.26 2762.67 2320.76 2755.67 2360.43 2744C2402.43 2730 2433.93 2709 2454.93 2681C2478.26 2650.67 2493.43 2609.83 2500.43 2558.5C2509.76 2504.83 2514.43 2437.17 2514.43 2355.5V1925C2514.43 1789.67 2512.1 1678.83 2507.43 1592.5C2502.76 1503.83 2496.93 1443.17 2489.93 1410.5C2478.26 1352.17 2451.43 1313.67 2409.43 1295C2369.76 1276.33 2296.26 1267 2188.93 1267V1148L3000.93 1015V2331ZM2486.43 273C2486.43 196 2512.1 131.833 2563.43 80.4999C2617.1 26.8332 2681.26 -0.000150204 2755.93 -0.000150204C2832.93 -0.000150204 2897.1 26.8332 2948.43 80.4999C3002.1 131.833 3028.93 196 3028.93 273C3028.93 347.667 3002.1 411.833 2948.43 465.5C2897.1 516.833 2832.93 542.5 2755.93 542.5C2681.26 542.5 2617.1 516.833 2563.43 465.5C2512.1 411.833 2486.43 347.667 2486.43 273ZM3849.08 1277.5H3863.08C4017.08 1102.5 4217.74 1015 4465.08 1015C4600.41 1015 4724.08 1039.5 4836.08 1088.5C4950.41 1135.17 5048.41 1201.67 5130.08 1288C5214.08 1372 5278.24 1473.5 5322.58 1592.5C5369.24 1709.17 5392.58 1837.5 5392.58 1977.5C5392.58 2117.5 5369.24 2245.83 5322.58 2362.5C5278.24 2479.17 5215.24 2580.67 5133.58 2667C5051.91 2753.33 4953.91 2821 4839.58 2870C4727.58 2916.67 4605.08 2940 4472.08 2940C4245.74 2940 4073.08 2863 3954.08 2709H3940.08V3195.5C3940.08 3288.83 3944.74 3363.5 3954.08 3419.5C3963.41 3475.5 3983.24 3518.67 4013.58 3549C4043.91 3579.33 4085.91 3600.33 4139.58 3612C4195.58 3623.67 4269.08 3630.67 4360.08 3633V3780H3152.58V3633C3215.58 3630.67 3266.91 3623.67 3306.58 3612C3346.24 3600.33 3376.58 3579.33 3397.58 3549C3420.91 3518.67 3436.08 3476.67 3443.08 3423C3452.41 3371.67 3457.08 3304 3457.08 3220V1918C3457.08 1810.67 3454.74 1709.17 3450.08 1613.5C3445.41 1515.5 3439.58 1446.67 3432.58 1407C3420.91 1353.33 3394.08 1316 3352.08 1295C3312.41 1274 3243.58 1263.5 3145.58 1263.5V1127L3849.08 1029V1277.5ZM4444.08 1214.5C4369.41 1214.5 4298.24 1230.83 4230.58 1263.5C4162.91 1296.17 4109.24 1339.33 4069.58 1393C4029.91 1446.67 3999.58 1514.33 3978.58 1596C3957.58 1675.33 3947.08 1761.67 3947.08 1855V2093C3947.08 2258.67 3987.91 2399.83 4069.58 2516.5C4158.24 2644.83 4283.08 2709 4444.08 2709C4586.41 2709 4691.41 2650.67 4759.08 2534C4829.08 2415 4864.08 2231.83 4864.08 1984.5C4864.08 1471.17 4724.08 1214.5 4444.08 1214.5ZM7136.51 2579.5C6924.17 2819.83 6659.34 2940 6342.01 2940C6197.34 2940 6065.51 2917.83 5946.51 2873.5C5829.84 2826.83 5729.51 2762.67 5645.51 2681C5561.51 2597 5496.17 2497.83 5449.51 2383.5C5402.84 2269.17 5379.51 2142 5379.51 2002C5379.51 1857.33 5404.01 1725.5 5453.01 1606.5C5502.01 1485.17 5570.84 1381.33 5659.51 1295C5750.51 1206.33 5856.67 1137.5 5978.01 1088.5C6101.67 1039.5 6237.01 1015 6384.01 1015C6631.34 1015 6823.84 1081.5 6961.51 1214.5C7099.17 1347.5 7168.01 1534.17 7168.01 1774.5C7168.01 1811.83 7162.17 1835.17 7150.51 1844.5C7138.84 1851.5 7106.17 1855 7052.51 1855H5925.51C5916.17 1876 5911.51 1914.5 5911.51 1970.5C5911.51 2199.17 5960.51 2380 6058.51 2513C6158.84 2646 6294.17 2712.5 6464.51 2712.5C6562.51 2712.5 6659.34 2690.33 6755.01 2646C6853.01 2601.67 6947.51 2538.67 7038.51 2457L7136.51 2579.5ZM6457.51 1659C6550.84 1659 6610.34 1654.33 6636.01 1645C6664.01 1633.33 6678.01 1607.67 6678.01 1568C6678.01 1465.33 6648.84 1381.33 6590.51 1316C6532.17 1250.67 6458.67 1218 6370.01 1218C6269.67 1218 6179.84 1260 6100.51 1344C6023.51 1425.67 5973.34 1530.67 5950.01 1659H6457.51ZM8064.94 2940H7802.44L7322.94 1501.5C7285.6 1389.5 7242.44 1311.33 7193.44 1267C7144.44 1220.33 7079.1 1194.67 6997.44 1190V1050H7998.44V1190C7914.44 1192.33 7856.1 1205.17 7823.44 1228.5C7790.77 1249.5 7774.44 1286.83 7774.44 1340.5C7774.44 1366.17 7777.94 1394.17 7784.94 1424.5C7791.94 1454.83 7801.27 1489.83 7812.94 1529.5L8033.44 2348.5H8047.44L8537.44 1050H8824.44L9191.94 2348.5H9209.44L9489.44 1624C9512.77 1565.67 9529.1 1515.5 9538.44 1473.5C9547.77 1429.17 9552.44 1390.67 9552.44 1358C9552.44 1297.33 9532.6 1254.17 9492.94 1228.5C9453.27 1202.83 9399.6 1190 9331.94 1190V1050H10084.4V1190C10042.4 1190 10007.4 1194.67 9979.44 1204C9951.44 1213.33 9923.44 1235.5 9895.44 1270.5C9867.44 1305.5 9837.1 1359.17 9804.44 1431.5C9771.77 1503.83 9730.94 1603 9681.94 1729L9198.94 2940H8922.44L8551.44 1697.5H8537.44L8064.94 2940ZM10709.6 2362.5C10709.6 2453.5 10713.1 2525.83 10720.1 2579.5C10729.5 2630.83 10747 2670.5 10772.6 2698.5C10798.3 2726.5 10835.6 2745.17 10884.6 2754.5C10933.6 2761.5 10999 2765 11080.6 2765V2905H9911.63V2765C9981.63 2760.33 10037.6 2753.33 10079.6 2744C10121.6 2734.67 10153.1 2716 10174.1 2688C10195.1 2660 10208 2620.33 10212.6 2569C10219.6 2515.33 10223.1 2444.17 10223.1 2355.5V1928.5C10223.1 1783.83 10219.6 1668.33 10212.6 1582C10205.6 1495.67 10190.5 1429.17 10167.1 1382.5C10143.8 1335.83 10110 1305.5 10065.6 1291.5C10023.6 1275.17 9967.63 1267 9897.63 1267V1144.5L10597.6 1015L10653.6 1417.5H10667.6C10730.6 1293.83 10813.5 1195.83 10916.1 1123.5C11018.8 1051.17 11127.3 1015 11241.6 1015C11330.3 1015 11402.6 1037.17 11458.6 1081.5C11514.6 1125.83 11542.6 1181.83 11542.6 1249.5C11542.6 1324.17 11520.5 1387.17 11476.1 1438.5C11434.1 1489.83 11375.8 1515.5 11301.1 1515.5C11266.1 1515.5 11234.6 1508.5 11206.6 1494.5C11178.6 1480.5 11153 1465.33 11129.6 1449C11108.6 1430.33 11086.5 1414 11063.1 1400C11042.1 1383.67 11020 1375.5 10996.6 1375.5C10952.3 1375.5 10910.3 1404.67 10870.6 1463C10831 1521.33 10798.3 1599.5 10772.6 1697.5C10754 1767.5 10738.8 1846.83 10727.1 1935.5C10715.5 2021.83 10709.6 2108.17 10709.6 2194.5V2362.5ZM12169.3 2331C12169.3 2424.33 12172.8 2499 12179.8 2555C12186.8 2611 12200.8 2654.17 12221.8 2684.5C12242.8 2714.83 12273.1 2735.83 12312.8 2747.5C12352.5 2756.83 12406.1 2762.67 12473.8 2765V2905H11371.3V2765C11436.6 2762.67 11489.1 2755.67 11528.8 2744C11570.8 2730 11602.3 2709 11623.3 2681C11646.6 2650.67 11661.8 2609.83 11668.8 2558.5C11678.1 2504.83 11682.8 2437.17 11682.8 2355.5V1925C11682.8 1789.67 11680.5 1678.83 11675.8 1592.5C11671.1 1503.83 11665.3 1443.17 11658.3 1410.5C11646.6 1352.17 11619.8 1313.67 11577.8 1295C11538.1 1276.33 11464.6 1267 11357.3 1267V1148L12169.3 1015V2331ZM11654.8 273C11654.8 196 11680.5 131.833 11731.8 80.4999C11785.5 26.8332 11849.6 -0.000150204 11924.3 -0.000150204C12001.3 -0.000150204 12065.5 26.8332 12116.8 80.4999C12170.5 131.833 12197.3 196 12197.3 273C12197.3 347.667 12170.5 411.833 12116.8 465.5C12065.5 516.833 12001.3 542.5 11924.3 542.5C11849.6 542.5 11785.5 516.833 11731.8 465.5C11680.5 411.833 11654.8 347.667 11654.8 273ZM12341.9 1242.5V1085C12481.9 1045.33 12598.6 985.833 12691.9 906.5C12787.6 824.833 12858.8 731.5 12905.4 626.5H13083.9V1050H13486.4V1242.5H13083.9V2317C13083.9 2461.67 13099.1 2564.33 13129.4 2625C13162.1 2685.67 13215.8 2716 13290.4 2716C13381.4 2716 13450.3 2674 13496.9 2590L13570.4 2691.5C13505.1 2857.17 13351.1 2940 13108.4 2940C12947.4 2940 12821.4 2902.67 12730.4 2828C12641.8 2753.33 12597.4 2648.33 12597.4 2513V1242.5H12341.9ZM15200.9 2579.5C14988.5 2819.83 14723.7 2940 14406.4 2940C14261.7 2940 14129.9 2917.83 14010.9 2873.5C13894.2 2826.83 13793.9 2762.67 13709.9 2681C13625.9 2597 13560.5 2497.83 13513.9 2383.5C13467.2 2269.17 13443.9 2142 13443.9 2002C13443.9 1857.33 13468.4 1725.5 13517.4 1606.5C13566.4 1485.17 13635.2 1381.33 13723.9 1295C13814.9 1206.33 13921 1137.5 14042.4 1088.5C14166 1039.5 14301.4 1015 14448.4 1015C14695.7 1015 14888.2 1081.5 15025.9 1214.5C15163.5 1347.5 15232.4 1534.17 15232.4 1774.5C15232.4 1811.83 15226.5 1835.17 15214.9 1844.5C15203.2 1851.5 15170.5 1855 15116.9 1855H13989.9C13980.5 1876 13975.9 1914.5 13975.9 1970.5C13975.9 2199.17 14024.9 2380 14122.9 2513C14223.2 2646 14358.5 2712.5 14528.9 2712.5C14626.9 2712.5 14723.7 2690.33 14819.4 2646C14917.4 2601.67 15011.9 2538.67 15102.9 2457L15200.9 2579.5ZM14521.9 1659C14615.2 1659 14674.7 1654.33 14700.4 1645C14728.4 1633.33 14742.4 1607.67 14742.4 1568C14742.4 1465.33 14713.2 1381.33 14654.9 1316C14596.5 1250.67 14523 1218 14434.4 1218C14334 1218 14244.2 1260 14164.9 1344C14087.9 1425.67 14037.7 1530.67 14014.4 1659H14521.9ZM15981.2 2362.5C15981.2 2453.5 15984.7 2525.83 15991.7 2579.5C16001.1 2630.83 16018.6 2670.5 16044.2 2698.5C16069.9 2726.5 16107.2 2745.17 16156.2 2754.5C16205.2 2761.5 16270.6 2765 16352.2 2765V2905H15183.2V2765C15253.2 2760.33 15309.2 2753.33 15351.2 2744C15393.2 2734.67 15424.7 2716 15445.7 2688C15466.7 2660 15479.6 2620.33 15484.2 2569C15491.2 2515.33 15494.7 2444.17 15494.7 2355.5V1928.5C15494.7 1783.83 15491.2 1668.33 15484.2 1582C15477.2 1495.67 15462.1 1429.17 15438.7 1382.5C15415.4 1335.83 15381.6 1305.5 15337.2 1291.5C15295.2 1275.17 15239.2 1267 15169.2 1267V1144.5L15869.2 1015L15925.2 1417.5H15939.2C16002.2 1293.83 16085.1 1195.83 16187.7 1123.5C16290.4 1051.17 16398.9 1015 16513.2 1015C16601.9 1015 16674.2 1037.17 16730.2 1081.5C16786.2 1125.83 16814.2 1181.83 16814.2 1249.5C16814.2 1324.17 16792.1 1387.17 16747.7 1438.5C16705.7 1489.83 16647.4 1515.5 16572.7 1515.5C16537.7 1515.5 16506.2 1508.5 16478.2 1494.5C16450.2 1480.5 16424.6 1465.33 16401.2 1449C16380.2 1430.33 16358.1 1414 16334.7 1400C16313.7 1383.67 16291.6 1375.5 16268.2 1375.5C16223.9 1375.5 16181.9 1404.67 16142.2 1463C16102.6 1521.33 16069.9 1599.5 16044.2 1697.5C16025.6 1767.5 16010.4 1846.83 15998.7 1935.5C15987.1 2021.83 15981.2 2108.17 15981.2 2194.5V2362.5Z" fill="#1E1E1E"/>
</svg>
