<svg width="116" height="134" viewBox="0 0 116 134" fill="none" xmlns="http://www.w3.org/2000/svg">
<path d="M30.6 65.0001L40.4 70.6001V57.9001L67.1 42.3L57.5 36.3L30.7 52.1001V65.0001H30.6ZM72.8 45.7L63 51.3L74.3 57.9001L74.1 88.0001L83.9 82.4001V52.1001L72.8 45.7ZM68.5 91.6001V80.7L57.2 87.3L30.5 71.7V82.6001L57.3 98.2L68.5 91.6001Z" fill="#3B4550"/>
<path d="M57.4 0L79.6 12.9L21.2 47.5V77.3L0 64.9V33.5L57.4 0ZM115.3 100L93.1 113.2V47.1L66.3 31.3L88.8 18.3L115.3 33.7V100ZM0 100.4V75.9L57.4 108.7L83.8 92.9L84 118.3L58 133.7L0 100.4Z" fill="#64BC4F"/>
</svg>
