<svg width="79" height="43" viewBox="0 0 79 43" fill="none" xmlns="http://www.w3.org/2000/svg">
<path d="M39.4955 26.7411L25.6462 19.4204L1.60578 6.71443C1.58366 6.69231 1.53995 6.69231 1.51783 6.69231C0.640133 6.27545 -0.259684 7.15314 0.0694851 8.0311L12.3191 39.2737L12.3214 39.2803C12.3346 39.3109 12.3454 39.3417 12.3586 39.3725C12.8613 40.5377 13.9583 41.2574 15.1523 41.5405C15.2531 41.5624 15.3253 41.5824 15.4464 41.6066C15.567 41.6335 15.7358 41.6701 15.8807 41.6809C15.9049 41.6833 15.9267 41.6833 15.951 41.6854H15.9686C15.986 41.6875 16.0036 41.6875 16.0213 41.6898H16.0452C16.0608 41.6919 16.0782 41.6919 16.0937 41.6919H16.1221C16.1398 41.694 16.1572 41.694 16.1748 41.694C31.6884 43.3854 47.3398 43.3854 62.8534 41.694C63.0398 41.694 63.222 41.6854 63.3974 41.6677C63.4546 41.6611 63.5093 41.6545 63.5644 41.648C63.5709 41.6459 63.5796 41.6459 63.5862 41.6438C63.6236 41.6393 63.6607 41.6327 63.6981 41.6261C63.7529 41.6195 63.8079 41.6085 63.8627 41.5977C63.9725 41.5734 64.0223 41.5558 64.1713 41.5047C64.3201 41.4536 64.5674 41.3641 64.722 41.2896C64.8768 41.2148 64.984 41.1434 65.1136 41.062C65.2737 40.9612 65.4261 40.858 65.5807 40.7421C65.6474 40.691 65.6929 40.6583 65.7411 40.6123L65.7148 40.597L39.4955 26.7411Z" fill="#FF4B4B"/>
<path d="M77.4228 6.71474H77.4009L53.3516 19.4207L66.7203 39.3312L78.9391 8.03141V7.98743C79.2464 7.06576 78.3028 6.23204 77.4228 6.71474Z" fill="#7D353B"/>
<path d="M40.7755 0.673085C40.1609 -0.224362 38.8224 -0.224362 38.2299 0.673085L25.6445 19.4204L39.4939 26.7412L65.7397 40.6124C65.9045 40.4509 66.0367 40.2937 66.1763 40.1276C66.3738 39.884 66.5581 39.6227 66.7206 39.331L53.3519 19.4204L40.7755 0.673085Z" fill="#BD4043"/>
</svg>
